SplineFontDB: 3.2
FontName: Beta4CynwydBold
FullName: Beta4CynwydBold
FamilyName: Beta4CynwydBold
Weight: Bold
Copyright: Martha Connell 2021 (marthaconnell.com) open font license
Version: 1.007
ItalicAngle: 0
UnderlinePosition: -220
UnderlineWidth: 70
Ascent: 800
Descent: 200
InvalidEm: 0
sfntRevision: 0x000101cb
LayerCount: 2
Layer: 0 0 "Back" 1
Layer: 1 0 "Fore" 0
XUID: [1021 931 -1168301316 10123]
StyleMap: 0x0040
FSType: 0
OS2Version: 4
OS2_WeightWidthSlopeOnly: 0
OS2_UseTypoMetrics: 1
CreationTime: 1565276124
ModificationTime: 1635538597
PfmFamily: 81
TTFWeight: 700
TTFWidth: 5
LineGap: 0
VLineGap: 0
Panose: 0 0 0 0 0 0 0 0 0 0
OS2TypoAscent: 950
OS2TypoAOffset: 0
OS2TypoDescent: -225
OS2TypoDOffset: 0
OS2TypoLinegap: 0
OS2WinAscent: 1158
OS2WinAOffset: 0
OS2WinDescent: 248
OS2WinDOffset: 0
HheadAscent: 950
HheadAOffset: 0
HheadDescent: -225
HheadDOffset: 0
OS2SubXSize: 650
OS2SubYSize: 600
OS2SubXOff: 0
OS2SubYOff: 75
OS2SupXSize: 650
OS2SupYSize: 600
OS2SupXOff: 0
OS2SupYOff: 350
OS2StrikeYSize: 70
OS2StrikeYPos: 310
OS2CapHeight: 723
OS2XHeight: 517
OS2Vendor: 'NONE'
OS2CodePages: 20000193.00000000
OS2UnicodeRanges: a00000ff.4000205b.00000000.00000000
Lookup: 1 0 0 "'rtla' Right to Left Alternates lookup 0" { "'rtla' Right to Left Alternates lookup 0 subtable"  } ['rtla' ('DFLT' <'dflt' > ) ]
Lookup: 1 0 0 "<10,2> Inferiors lookup 1" { "<10,2> Inferiors lookup 1 subtable" ("inferior") } [<10,2> ('DFLT' <'dflt' > ) 'subs' ('DFLT' <'dflt' > ) ]
Lookup: 1 0 0 "<10,1> Superiors lookup 2" { "<10,1> Superiors lookup 2 subtable" ("superior") } [<10,1> ('DFLT' <'dflt' > ) 'sups' ('DFLT' <'dflt' > ) ]
Lookup: 1 0 0 "<11,2> Diagonal Fractions lookup 3" { "<11,2> Diagonal Fractions lookup 3 subtable"  } [<11,2> ('DFLT' <'dflt' > ) 'frac' ('DFLT' <'dflt' > ) ]
Lookup: 1 0 0 "<11,2> Diagonal Fractions lookup 4" { "<11,2> Diagonal Fractions lookup 4 subtable"  } [<11,2> ('DFLT' <'dflt' > ) 'frac' ('DFLT' <'dflt' > ) ]

StartChar: .notdef
Encoding: 65536 -1 0
Width: 670
Flags: W
HStem: -161 49<138 495.507> 777 49<174.064 532>
VStem: 88 50<-112 716.479> 532 51<-54.6494 777>
LayerCount: 2
Fore
SplineSet
174.063761955 777 m 1
 532 -54.649382716 l 1
 532 760 l 2
 532 771 528 777 518 777 c 2
 174.063761955 777 l 1
114 -161 m 2
 95.1227737696 -161 88 -154.995617823 88 -137 c 2
 88 803 l 2
 88 818 93 826 106 826 c 2
 566 826 l 2
 578 826 583 819 583 805 c 2
 583 -133 l 2
 583 -152 572 -161 550 -161 c 2
 114 -161 l 2
138 -92 m 2
 138 -105.805402079 144.878555052 -112 160 -112 c 2
 495.506521739 -112 l 1
 138 716.478589421 l 1
 138 -92 l 2
EndSplineSet
EndChar

StartChar: exclam
Encoding: 33 33 4
Width: 268
Flags: W
HStem: -8 163<78.3392 184.016> 703 20G<58 202>
VStem: 49 162<19.5506 125.055> 92 78<210 315.618>
LayerCount: 2
Fore
SplineSet
129 -8 m 0xe0
 85.363025113 -8 49 30.4400803619 49 74 c 0
 49 92 57 110 73 128 c 0
 89 146 107 155 130 155 c 0
 173.609215012 155 211 117.607839674 211 74 c 0
 211 29.3647061584 174.12930061 -8 129 -8 c 0xe0
202 723 m 1
 170 210 l 1
 92 210 l 1xd0
 58 723 l 1
 202 723 l 1
EndSplineSet
EndChar

StartChar: quotedbl
Encoding: 34 34 5
Width: 455
Flags: W
HStem: 464 259<95 159 295 359>
VStem: 95 64<464 515.8> 295 64<464 515.8>
LayerCount: 2
Fore
SplineSet
394 723 m 1
 359 464 l 1
 295 464 l 1
 262 723 l 1
 394 723 l 1
194 723 m 1
 159 464 l 1
 95 464 l 1
 62 723 l 1
 194 723 l 1
EndSplineSet
EndChar

StartChar: numbersign
Encoding: 35 35 6
Width: 610
Flags: W
HStem: -2 21G<114 183.972 322 393> 229 67<32 147.439 225.286 355.439 434.7 541> 434 68<64 178.318 255.9 386.318 465.6 573> 704 20G<218.987 288 426.987 498>
LayerCount: 2
Fore
SplineSet
365.531380753 296 m 1
 386.317991632 434 l 1
 245.794444444 434 l 1
 225.286111111 296 l 1
 365.531380753 296 l 1
573 502 m 1
 573 434 l 1
 455.4 434 l 1
 434.7 296 l 1
 541 296 l 1
 541 229 l 1
 424.65 229 l 1
 390 -2 l 1
 322 7 l 1
 355.439330544 229 l 1
 215.329166667 229 l 1
 181 -2 l 1
 114 7 l 1
 147.439330544 229 l 1
 32 229 l 1
 32 296 l 1
 157.531380753 296 l 1
 178.317991632 434 l 1
 64 434 l 1
 64 502 l 1
 188.560669456 502 l 1
 222 724 l 1
 288 718 l 1
 255.9 502 l 1
 396.560669456 502 l 1
 430 724 l 1
 498 718 l 1
 465.6 502 l 1
 573 502 l 1
EndSplineSet
EndChar

StartChar: dollar
Encoding: 36 36 7
Width: 670
Flags: W
HStem: -99 188<292.586 397.404> 537 21G<492.982 575.281> 633 196<296.698 402.391>
VStem: 76 130<479.109 586.549> 295 108<-99 -4.7932 725.272 829> 487 129<135.998 251.127>
LayerCount: 2
Fore
SplineSet
177.142971816 192.000010112 m 1
 197.328965113 123.206687075 258.687715546 89 346 89 c 0
 399.92162912 89 442.719826476 108.830569011 468 138 c 0
 481 153 487 171 487 191 c 0
 487 220 478 242 460 258 c 0
 442 274 414 287 376 296 c 2
 255 325 l 2
 156.535379005 346.881026888 78.1371855985 402.729163281 76 516 c 0
 76 614.02267189 135.671732608 673.246126511 208 705 c 0
 234.570776999 716.66521917 263.661504707 724.550512277 295 728.65587932 c 1
 295 829 l 1
 403 829 l 1
 403 727.967345143 l 1
 432.851057882 723.39691944 470.018554688 714.990234375 494 703 c 0
 550.63723813 674.681380935 595.608206627 631.491702391 610.941399781 566 c 1
 496.035725721 537 l 1
 489.928065931 561.641326196 479.859232019 578.140767981 455 603 c 0
 438 620 391 633 350 633 c 0
 289.076570821 633 239.396921054 612.737139099 218 573 c 0
 211 560 206 545 206 529 c 0
 206 506 215 488 231 474 c 0
 247 460 277 447 320 435 c 2
 438 404 l 2
 546.350601019 376.912349745 616 313.810184953 616 192 c 0
 616 99.4885086651 559.032493147 45.7638095873 489 16 c 0
 462.085522947 4.56134725236 431.549100518 -3.25536012002 398 -7.14548847437 c 1
 398 -99 l 1
 291 -99 l 1
 292 -7.111328125 l 1
 234.95703125 -0.9453125 191.624023438 15.091796875 152 41 c 0
 109.217063526 68.9734584636 73.2032825751 108.454481316 56.7680803508 160 c 1
 177.142971816 192.000010112 l 1
EndSplineSet
Substitution2: "<6,0> Monospaced Numbers in Latin lookup 14 subtable" dollar.tf
EndChar

StartChar: percent
Encoding: 37 37 8
Width: 923
Flags: W
HStem: -10 65<639.18 742.631> 322 65<174.676 278.699> 338 64<639.735 741.513> 670 64<174.28 279.221>
VStem: 50 90<425.418 629.909> 312 91<425.03 631.058> 514 91<94.4601 297.902> 777 91<92.3531 297.481>
LayerCount: 2
Fore
SplineSet
228 734 m 0xdf
 301.494236625 734 354.305705707 687.101541539 380 634 c 0
 395 603 403 567 403 527 c 0
 403 443.034183739 369.47280342 383.31520228 318 349 c 0
 291 331 262 322 228 322 c 0
 151.901560554 322 100.709526272 367.312792848 73 421 c 0
 57 452 50 487 50 527 c 0
 50 611.103749905 85.536872554 672.691248369 137 707 c 0
 164 725 194 734 228 734 c 0xdf
140 527 m 0
 140 455.622427097 161.328285114 387 226 387 c 0
 292.410074141 387 312 454.437317307 312 527 c 0
 312 600.79448529 293.097975419 670 226 670 c 0
 158.528874805 670 140 597.491525424 140 527 c 0
692 402 m 0xbf
 768.121415758 402 818.637135708 356.48325287 845 302 c 0
 860 271 868 236 868 196 c 0
 868 111.775605354 834.637862867 50.4252419113 783 16 c 0
 756 -2 726 -10 692 -10 c 0
 615.415456643 -10 563.495311759 34.2430223647 537 89 c 0
 522 120 514 156 514 196 c 0
 514 279.310480266 549.956796253 341.971197502 601 376 c 0
 628 394 658 402 692 402 c 0xbf
691 338 m 0
 624.67536104 338 605 263.50869644 605 194 c 0
 605 141.309495269 617.302704719 96.6436571826 644 72 c 0
 657 60 672 55 691 55 c 0
 757.633626343 55 777 125.413441399 777 194 c 0
 777 247.816327485 765.044392356 295.035945518 738 320 c 0
 725 332 709 338 691 338 c 0
734 731 m 1
 248 -4 l 1
 172 -3 l 1
 660 731 l 1
 734 731 l 1
EndSplineSet
EndChar

StartChar: ampersand
Encoding: 38 38 9
Width: 749
Flags: W
HStem: -5 94<228.634 385.698> 656 78<279.74 412.231>
VStem: 46 134.415<134.415 262.989> 134 122<509.193 631.549> 438 108<514.138 630.934> 570 124<331.788 401>
LayerCount: 2
Fore
SplineSet
501 75 m 1xdc
 439.443294192 28.0225139883 366.523326408 -5 272 -5 c 0
 139.718240174 -5 46 52.1326153721 46 181 c 0xec
 46 256.785576621 78.9972334054 300.920735958 124 339 c 0
 150 361 183 382 223 403 c 1
 191.283419297 436.478612964 162.664224228 468.149137699 146 511 c 0
 139 529 134 549 134 570 c 0
 134 639.644694562 179.750219225 688.083435639 231 712 c 0
 261 726 296 734 336 734 c 0
 414.497169046 734 481.914224869 703.682780422 518 660 c 0
 537 637 546 609 546 578 c 0
 546 540.501636813 529.012937945 509.631308239 509 485 c 0
 476.386712757 444.860569547 433.298300845 412.679713366 381 384 c 1
 515 227 l 1
 539.991405628 271.98453013 564.743674559 332.667769263 570 401 c 1
 694 401 l 1
 672.594722906 303.147304714 620.003654519 229.605847231 574 156 c 1
 707 -0 l 1
 566 -0 l 1
 501 75 l 1xdc
438 574 m 0
 438 630.918810635 397.458824607 656 341 656 c 0
 290.949273714 656 256 624.134481095 256 577 c 0xdc
 256 530.006413647 287.352725109 493.478184252 310 468 c 2
 330 447 l 1
 359 464 381 481 397 495 c 0
 421.065033524 516.056904334 438 537.739121125 438 574 c 0
283 332 m 1
 253 315 227 294 207 270 c 0
 189.829788118 249.395745741 180.414776998 222.298864337 180.414776998 195.655649986 c 0xec
 180.414776998 173.447658422 186.956108627 151.554864217 201 134 c 0
 221.174204253 108.782244684 257.895059262 89 300 89 c 0
 355.334949656 89 410.729799824 118.375599834 442 148 c 1
 283 332 l 1
EndSplineSet
EndChar

StartChar: quotesingle
Encoding: 39 39 10
Width: 255
Flags: W
HStem: 464 259<95 159>
VStem: 95 64<464 515.8>
LayerCount: 2
Fore
SplineSet
194 723 m 1
 159 464 l 1
 95 464 l 1
 62 723 l 1
 194 723 l 1
EndSplineSet
EndChar

StartChar: parenleft
Encoding: 40 40 11
Width: 319
Flags: W
HStem: 730 20G<167.995 292>
VStem: 64 112<126.545 480.999>
LayerCount: 2
Fore
SplineSet
64 304 m 0
 64 483.056363681 129.989015796 637.793309033 206 750 c 1
 292 750 l 1
 229.763029308 631.017556031 176 477.659581003 176 304 c 0
 176 229 185 155 204 84 c 0
 223 13 250 -59 286 -134 c 1
 201 -134 l 1
 127.835761515 -11.1885996855 64 114.783327848 64 304 c 0
EndSplineSet
Substitution2: "'rtla' Right to Left Alternates lookup 0 subtable" parenright
EndChar

StartChar: parenright
Encoding: 41 41 12
Width: 324
Flags: W
VStem: 131 112<126.545 481.365>
LayerCount: 2
Fore
SplineSet
243 304 m 0
 243 486.151072093 176.826679101 636.589187993 100 750 c 1
 16 750 l 1
 78.0305689282 631.412147637 131 476.619875477 131 304 c 0
 131 229 122 155 103 84 c 0
 84 13 57 -59 21 -134 c 1
 106 -134 l 1
 179.164238485 -11.1885996855 243 114.783327848 243 304 c 0
EndSplineSet
Substitution2: "'rtla' Right to Left Alternates lookup 0 subtable" parenleft
EndChar

StartChar: asterisk
Encoding: 42 42 13
Width: 437
Flags: W
HStem: 703 20G<176 260>
LayerCount: 2
Fore
SplineSet
298 354 m 1
 218 486 l 1
 136 351 l 1
 68 398 l 1
 168 518 l 1
 28 558 l 1
 54 630 l 1
 187 574 l 1
 176 723 l 1
 260 723 l 1
 248 574 l 1
 383 633 l 1
 406 560 l 1
 270 519 l 1
 367 402 l 1
 298 354 l 1
EndSplineSet
EndChar

StartChar: plus
Encoding: 43 43 14
Width: 573
Flags: W
HStem: 318 90<60 242 332 514>
VStem: 242 90<137 318 408.599 591>
LayerCount: 2
Fore
SplineSet
332 137 m 1
 242 137 l 1
 242 318 l 1
 60 318 l 1
 60 408 l 1
 242 408.400881057 l 1
 242 591 l 1
 332 591 l 1
 332 408.599118943 l 1
 514 409 l 1
 514 318 l 1
 332 318 l 1
 332 137 l 1
EndSplineSet
EndChar

StartChar: comma
Encoding: 44 44 15
Width: 261
Flags: W
HStem: -149 304<90.375 93>
VStem: 40 165.424<19.3281 124.625>
LayerCount: 2
Fore
SplineSet
40 74 m 0
 40 92 48 110 64 128 c 0
 80 146 99 155 122 155 c 0
 144 155 162 147 178 131 c 0
 196.282608696 112.717391304 205.423913043 94.0373345936 205.423913043 74.7092648147 c 0
 205.423913043 63.3790170132 202.282608696 51.8260869565 196 40 c 2
 93 -149 l 1
 32 -149 l 1
 90 2 l 1
 82 2 73 7 64 16 c 0
 48 32 40 52 40 74 c 0
EndSplineSet
Substitution2: "<6,0> Monospaced Numbers in Latin lookup 14 subtable" comma.tf
Substitution2: "<6,0> Monospaced Numbers lookup 9 subtable" comma.tf
EndChar

StartChar: hyphen
Encoding: 45 45 16
Width: 386
Flags: W
HStem: 212 91<61 325>
VStem: 61 264<212 303>
LayerCount: 2
Fore
SplineSet
325 304 m 1
 325 212 l 1
 61 212 l 1
 61 303 l 1
 325 304 l 1
EndSplineSet
EndChar

StartChar: period
Encoding: 46 46 17
Width: 249
Flags: W
HStem: -7 163<69.944 175.208>
VStem: 40 162<19.9848 125.442>
LayerCount: 2
Fore
SplineSet
121 -7 m 0
 77.3907849884 -7 40 30.3921603259 40 74 c 0
 40 92 48 111 64 129 c 0
 80 147 99 156 122 156 c 0
 165.636974887 156 202 117.559919638 202 74 c 0
 202 30.3907849884 165.093790415 -7 121 -7 c 0
EndSplineSet
Substitution2: "<6,0> Monospaced Numbers in Latin lookup 14 subtable" period.tf
Substitution2: "<6,0> Monospaced Numbers lookup 9 subtable" period.tf
EndChar

StartChar: slash
Encoding: 47 47 18
Width: 367
Flags: W
HStem: 703 20G<257.289 352>
LayerCount: 2
Fore
SplineSet
12 -28 m 1
 264 723 l 1
 352 723 l 1
 100 -28 l 1
 12 -28 l 1
EndSplineSet
Substitution2: "<11,2> Diagonal Fractions lookup 3 subtable" fraction
EndChar

StartChar: zero
Encoding: 48 48 19
Width: 655
Flags: W
HStem: -11 101<262.433 401.854> 634 99<262.266 400.441>
VStem: 63 128<187.027 530.725> 472 129<187.242 531.927>
LayerCount: 2
Fore
SplineSet
333 733 m 0
 524.155273438 733 601 568.766601562 601 360 c 0
 601 239 577 147 529 84 c 0
 481 21 416 -11 332 -11 c 0
 248 -11 183 21 135 84 c 0
 87 147 63 238 63 359 c 0
 63 510.01953125 103.479492188 630.135742188 189 690 c 0
 229 718 278 733 333 733 c 0
333 90 m 0
 380 90 414 111 437 153 c 0
 460 195 472 264 472 360 c 0
 472 458 460 527 437 570 c 0
 414 613 379 634 332 634 c 0
 285 634 250 613 226 570 c 0
 202 527 191 457 191 360 c 0
 191 264 202 195 226 153 c 0
 250 111 286 90 333 90 c 0
EndSplineSet
Substitution2: "<6,0> Monospaced Numbers in Latin lookup 14 subtable" zero.tf
Substitution2: "<21,0> Lower Case Numbers lookup 10 subtable" zero.osf
Substitution2: "<6,0> Monospaced Numbers lookup 9 subtable" zero.tf
Substitution2: "<11,2> Diagonal Fractions lookup 4 subtable" zero.numr
Substitution2: "<10,1> Superiors lookup 2 subtable" uni2070
Substitution2: "<10,2> Inferiors lookup 1 subtable" zero.subs
EndChar

StartChar: one
Encoding: 49 49 20
Width: 396
Flags: W
HStem: 0 21G<188 312> 557 73<54 185.571> 703 20G<226.003 312>
VStem: 188 124<0 557> 230 82<670.23 723>
LayerCount: 2
Fore
SplineSet
54 630 m 1xf0
 148.353515625 630 222.006835938 643.073242188 230 723 c 1
 312 723 l 1xe8
 312 0 l 1
 188 0 l 1
 188 557 l 1
 54 557 l 1
 54 630 l 1xf0
EndSplineSet
Substitution2: "<6,0> Monospaced Numbers in Latin lookup 14 subtable" one.tf
Substitution2: "<21,0> Lower Case Numbers lookup 10 subtable" one.osf
Substitution2: "<6,0> Monospaced Numbers lookup 9 subtable" one.tf
Substitution2: "<11,2> Diagonal Fractions lookup 4 subtable" one.numr
Substitution2: "<10,1> Superiors lookup 2 subtable" uni00B9
Substitution2: "<10,2> Inferiors lookup 1 subtable" one.subs
EndChar

StartChar: two
Encoding: 50 50 21
Width: 581
Flags: W
HStem: 1.5 102.5<223.136 535.136> 638.5 97<211.46 359.482>
VStem: 46 112.621<536.267 583.594> 402.136 118<421.46 593.579>
LayerCount: 2
Back
SplineSet
125.5 146.5 m 6
 189.5 201.833984375 240 247.333984375 277 283 c 132
 314 318.666015625 344.833984375 355.833984375 369.5 394.5 c 132
 394.166015625 433.166015625 406.5 471.833984375 406.5 510.5 c 4
 406.5 550.5 397 581.833984375 378 604.5 c 132
 359 627.166015625 329.166015625 638.5 288.5 638.5 c 4
 249.166015625 638.5 218.666015625 626 197 601 c 132
 175.333984375 576 163.833984375 542.5 162.5 500.5 c 5
 47.5 500.5 l 5
 49.5 576.5 72.333984375 634.666015625 116 675 c 132
 159.666015625 715.333984375 230.166015625 735.5 297.5 735.5 c 4
 370.166015625 735.5 422 715.5 463 675.5 c 132
 504 635.5 524.5 582.166015625 524.5 515.5 c 4
 524.5 467.5 512.333984375 421.333984375 488 377 c 132
 463.666015625 332.666015625 434.666015625 293 401 258 c 132
 367.333984375 223 324.5 182.5 272.5 136.5 c 6
 227.5 104 l 5
 539.5 104 l 5
 539.5 1.5 l 5
 53.5 1.5 l 5
 53.5 84.5 l 5
 125.5 146.5 l 6
EndSplineSet
Fore
SplineSet
293.135742188 735.5 m 0
 430.872070312 735.5 520.135742188 650.375976562 520.135742188 515.5 c 0
 520.135742188 467.5 507.969726562 421.333984375 483.635742188 377 c 0
 459.301757812 332.666015625 430.301757812 293 396.635742188 258 c 0
 362.969726562 223 320.135742188 182.5 268.135742188 136.5 c 1
 223.135742188 104 l 1
 535.135742188 104 l 1
 535.135742188 1.5 l 1
 49.1357421875 1.5 l 1
 49.1357421875 84.5 l 1
 121.135742188 146.5 l 2
 185.135742188 201.833984375 235.635742188 247.333984375 272.635742188 283 c 0
 309.635742188 318.666015625 340.469726562 355.833984375 365.135742188 394.5 c 0
 389.801757812 433.166015625 402.135742188 471.833984375 402.135742188 510.5 c 0
 402.135742188 590.83203125 365.084960938 638.5 284.135742188 638.5 c 0
 205.807617188 638.5 163.944335938 584.946289062 158.62109375 510 c 1
 46 538.0078125 l 1
 53.5751953125 595.916015625 75.4541015625 641.579101562 111.635742188 675 c 0
 155.301757812 715.333984375 225.801757812 735.5 293.135742188 735.5 c 0
EndSplineSet
Substitution2: "<6,0> Monospaced Numbers in Latin lookup 14 subtable" two.tf
Substitution2: "<21,0> Lower Case Numbers lookup 10 subtable" two.osf
Substitution2: "<6,0> Monospaced Numbers lookup 9 subtable" two.tf
Substitution2: "<11,2> Diagonal Fractions lookup 4 subtable" two.numr
Substitution2: "<10,1> Superiors lookup 2 subtable" uni00B2
Substitution2: "<10,2> Inferiors lookup 1 subtable" two.subs
EndChar

StartChar: three
Encoding: 51 51 22
Width: 642
Flags: W
HStem: -11 100<233.297 402.452> 323 103<242 383.753> 636 97<228.756 394.736>
VStem: 52 117<157.591 188.735 533.336 569.763> 439 131<476.939 595.09> 457 131<138.675 270.257>
LayerCount: 2
Fore
SplineSet
309 89 m 0xf4
 389.790039062 89 457 126.641601562 457 205 c 0xf4
 457 254.46875 424.517578125 293.555664062 386 308 c 0
 362 317 339 322 309 323 c 2
 242 325 l 1
 242 424 l 1
 304 426 l 2
 333 427 353 433 375 443 c 0
 397 453 409 466 421 482 c 0
 433 498 439 518 439 538 c 0
 439 577.854492188 410.748046875 610.905273438 379 623 c 0
 358 631 338 636 309 636 c 0
 227.924804688 636 176.58984375 586.275390625 174 506 c 1
 58 535 l 1
 67.365234375 621.629882812 118.891601562 678.053710938 187 707 c 0
 227 724 261 733 310 733 c 0
 409.393554688 733 490.162109375 702.584960938 535 648 c 0
 558 620 570 584 570 542 c 0xf8
 570 506 559 475 537 447 c 0
 515 419 482 397 435 381 c 1
 493.1875 364.948242188 539.512695312 333.120117188 567 286 c 0
 581 262 588 234 588 202 c 0
 588 127.543945312 549.510742188 76.2001953125 503 44 c 0
 444 3.154296875 411 -11 307 -11 c 0
 202.98828125 -11 125.3984375 31.021484375 84 95 c 0
 67 122 56 153 52 187 c 1
 169 216 l 1
 186.87109375 144.515625 224.990234375 89 309 89 c 0xf4
EndSplineSet
Substitution2: "<6,0> Monospaced Numbers in Latin lookup 14 subtable" three.tf
Substitution2: "<21,0> Lower Case Numbers lookup 10 subtable" three.osf
Substitution2: "<6,0> Monospaced Numbers lookup 9 subtable" three.tf
Substitution2: "<11,2> Diagonal Fractions lookup 4 subtable" three.numr
Substitution2: "<10,1> Superiors lookup 2 subtable" uni00B3
Substitution2: "<10,2> Inferiors lookup 1 subtable" three.subs
EndChar

StartChar: four
Encoding: 52 52 23
Width: 668
Flags: W
HStem: 0 21G<392 510> 172 103<180 392 510 616> 703 20G<375.536 510>
VStem: 392 118<0 172 275 572>
LayerCount: 2
Fore
SplineSet
390 723 m 1
 510 723 l 1
 510 275 l 1
 616 275 l 1
 616 172 l 1
 510 172 l 1
 510 0 l 1
 392 0 l 1
 393 172 l 1
 66 172 l 1
 66 275 l 1
 390 723 l 1
180 275 m 1
 392 275 l 1
 392 572 l 1
 180 275 l 1
EndSplineSet
Substitution2: "<6,0> Monospaced Numbers in Latin lookup 14 subtable" four.tf
Substitution2: "<21,0> Lower Case Numbers lookup 10 subtable" four.osf
Substitution2: "<6,0> Monospaced Numbers lookup 9 subtable" four.tf
Substitution2: "<11,2> Diagonal Fractions lookup 4 subtable" four.numr
Substitution2: "<10,1> Superiors lookup 2 subtable" uni2074
Substitution2: "<10,2> Inferiors lookup 1 subtable" four.subs
EndChar

StartChar: five
Encoding: 53 53 24
Width: 631
Flags: W
HStem: -11 99<227.154 384.964> 372 100<237.262 386.763> 622 101<202 518>
VStem: 449 129<153.679 306.976>
LayerCount: 2
Fore
SplineSet
102 723 m 1
 522 723 l 1
 518 622 l 1
 202 622 l 1
 185 421 l 1
 211 439 237 452 263 460 c 0
 289 468 308 472 339 472 c 0
 433.180664062 472 505.724609375 425.892578125 544 365 c 0
 566 330 578 288 578 237 c 0
 578 128.622070312 524.799804688 55.9755859375 449 19 c 0
 408 -1 380 -11 324 -11 c 0
 234.291992188 -11 147.630859375 24.255859375 101 67 c 0
 77 89 59 117 45 151 c 1
 144 203 l 1
 154 182 167 162 185 144 c 0
 219.545898438 109.454101562 251.56640625 88 313 88 c 0
 360 88 378 102 406 128 c 0
 434 154 449 188 449 232 c 0
 449 259 442 283 429 304 c 0
 416 325 398 346 376 358 c 0
 354 370 344 372 315 372 c 0
 278.145507812 372 252.354492188 364.055664062 226 350 c 0
 218 346 202 334 178 314 c 0
 176 312 173 311 171 311 c 0
 170 311 167 312 163 314 c 2
 70 352 l 1
 102 723 l 1
EndSplineSet
Substitution2: "<6,0> Monospaced Numbers in Latin lookup 14 subtable" five.tf
Substitution2: "<21,0> Lower Case Numbers lookup 10 subtable" five.osf
Substitution2: "<6,0> Monospaced Numbers lookup 9 subtable" five.tf
Substitution2: "<11,2> Diagonal Fractions lookup 4 subtable" five.numr
Substitution2: "<10,1> Superiors lookup 2 subtable" uni2075
Substitution2: "<10,2> Inferiors lookup 1 subtable" five.subs
EndChar

StartChar: six
Encoding: 54 54 25
Width: 645
Flags: W
HStem: -11 95<273.502 404.153> 367 94<267.909 414.042> 635 98<270.408 420.419>
VStem: 61 144<195.064 430.801> 61 134<364 512.603> 463 130<148.395 317.598>
LayerCount: 2
Fore
SplineSet
468 543 m 1xf4
 448.6953125 597.051757812 416.797851562 635 347 635 c 0
 262.181640625 635 225.500976562 579.912109375 206 509 c 0
 195 469 195 420 195 364 c 1xec
 222.985351562 419.971679688 277.83984375 461 360 461 c 0
 459.596679688 461 524.127929688 419.381835938 562 355 c 0
 582 321 593 282 593 236 c 0
 593 133.3828125 538.038085938 58.294921875 467 21 c 0
 427 0 391 -11 338 -11 c 0
 207.803710938 -11 137.237304688 61.181640625 96 158 c 0
 73 212 61 275 61 349 c 0
 61 503.22265625 106.4375 622.899414062 196 686 c 0
 240 717 283 733 345 733 c 0
 468.233398438 733 551.3984375 668.807617188 578 570 c 1
 468 543 l 1xf4
463 230 m 0
 463 317.6328125 421.392578125 367 334 367 c 0
 284.004882812 367 248.836914062 338.9453125 225 310 c 0
 211 293 205 274 205 255 c 0xf4
 205 185.856445312 229.487304688 133.67578125 271 106 c 0
 292 92 307 84 335 84 c 0
 391.168945312 84 423.916015625 115.346679688 445 154 c 0
 457 176 463 201 463 230 c 0
EndSplineSet
Substitution2: "<6,0> Monospaced Numbers in Latin lookup 14 subtable" six.tf
Substitution2: "<21,0> Lower Case Numbers lookup 10 subtable" six.osf
Substitution2: "<6,0> Monospaced Numbers lookup 9 subtable" six.tf
Substitution2: "<11,2> Diagonal Fractions lookup 4 subtable" six.numr
Substitution2: "<10,1> Superiors lookup 2 subtable" uni2076
Substitution2: "<10,2> Inferiors lookup 1 subtable" six.subs
EndChar

StartChar: seven
Encoding: 55 55 26
Width: 598
Flags: W
HStem: 0 21G<158 291.599> 622 101<26 422>
VStem: 158 131<0 106.419>
LayerCount: 2
Fore
SplineSet
26 723 m 1
 552 723 l 1
 552 621 l 1
 472.778320312 515.372070312 402.194335938 377.821289062 352 242 c 0
 324.60546875 167.873046875 294.198242188 83.173828125 289 0 c 1
 158 0 l 1
 169.77734375 91.2724609375 198.782226562 181.419921875 232 270 c 0
 278.359375 393.624023438 346.2578125 517.403320312 422 622 c 1
 26 622 l 1
 26 723 l 1
EndSplineSet
Substitution2: "<6,0> Monospaced Numbers in Latin lookup 14 subtable" seven.tf
Substitution2: "<21,0> Lower Case Numbers lookup 10 subtable" seven.osf
Substitution2: "<6,0> Monospaced Numbers lookup 9 subtable" seven.tf
Substitution2: "<11,2> Diagonal Fractions lookup 4 subtable" seven.numr
Substitution2: "<10,1> Superiors lookup 2 subtable" uni2077
Substitution2: "<10,2> Inferiors lookup 1 subtable" seven.subs
EndChar

StartChar: eight
Encoding: 56 56 27
Width: 660
Flags: W
HStem: -10 94<243.05 426.726> 322 102<257.493 410.95> 648 85<256.87 410.506>
VStem: 60 130<131.904 272.768> 92 122<464.713 606.452> 454 122<464.469 605.991> 478 130<132.338 268.803>
LayerCount: 2
Fore
SplineSet
201 376 m 1xf2
 143.698242188 401.877929688 92 451.28125 92 532 c 0
 92 627.420898438 144.796875 680.440429688 215 710 c 0
 253 726 286 733 334 733 c 0
 432.61328125 733 500.689453125 699.696289062 543 642 c 0
 565 612 576 575 576 532 c 0xec
 576 450.254882812 525.799804688 401.724609375 467 376 c 1
 518.548828125 364.793945312 563.994140625 320.868164062 588 278 c 0
 602 253 608 226 608 198 c 0
 608 102.79296875 547.607421875 44.1005859375 474 15 c 0
 431 -2 391 -10 334 -10 c 0
 220.09765625 -10 145.1796875 24.4765625 96 88 c 0
 72 119 60 156 60 198 c 0
 60 260.950195312 96.724609375 311.501953125 134 342 c 0
 156 360 178 371 201 376 c 1xf2
214 535 m 0
 214 463.401367188 260.974609375 424 334 424 c 0
 407.04296875 424 454 463.393554688 454 535 c 0
 454 606.768554688 407.0390625 648 334 648 c 0
 260.942382812 648 214 606.778320312 214 535 c 0
190 201 m 0xf2
 190 122.416015625 250.892578125 84 334 84 c 0
 418.387695312 84 478 121.475585938 478 201 c 0
 478 256.013671875 446.793945312 288.263671875 406 306 c 0
 383 316 366 322 334 322 c 0
 250.33203125 322 190 282.418945312 190 201 c 0xf2
EndSplineSet
Substitution2: "<6,0> Monospaced Numbers in Latin lookup 14 subtable" eight.tf
Substitution2: "<21,0> Lower Case Numbers lookup 10 subtable" eight.osf
Substitution2: "<6,0> Monospaced Numbers lookup 9 subtable" eight.tf
Substitution2: "<11,2> Diagonal Fractions lookup 4 subtable" eight.numr
Substitution2: "<10,1> Superiors lookup 2 subtable" uni2078
Substitution2: "<10,2> Inferiors lookup 1 subtable" eight.subs
EndChar

StartChar: nine
Encoding: 57 57 28
Width: 632
Flags: W
HStem: -11 98<188.493 358.183> 257 99<229.282 381.483> 638 95<235.351 373.773>
VStem: 50 131<405.021 575.79> 435 144<289.725 529.33> 455 124<205.451 344>
LayerCount: 2
Fore
SplineSet
455 344 m 1xf4
 427.920898438 280.81640625 357.032226562 257 287 257 c 0
 186.120117188 257 120.692382812 299.736328125 81 364 c 0
 60 398 50 440 50 487 c 0
 50 590.940429688 102.329101562 663.946289062 173 702 c 0
 212 723 248 733 301 733 c 0
 431.83203125 733 502.641601562 663.103515625 544 566 c 0
 567 512 579 448 579 374 c 0xf8
 579 214.068359375 534.8671875 92.1279296875 437 33 c 0
 389 4 344 -11 281 -11 c 0
 177.544921875 -11 116.3359375 27.8251953125 63 83 c 1
 149 148 l 1
 175.22265625 108.665039062 211.822265625 87 277 87 c 0
 315 87 340 97 372 116 c 0
 441.407226562 157.2109375 454.290039062 225.541992188 455 344 c 1xf4
181 493 m 0
 181 408.250976562 220.723632812 356 305 356 c 0
 367.953125 356 435 397.428710938 435 468 c 0
 435 547.703125 415.63671875 589.2421875 374 617 c 0
 353 631 333 638 305 638 c 0
 248.365234375 638 218.860351562 608.719726562 199 569 c 0
 188 547 181 522 181 493 c 0
EndSplineSet
Substitution2: "<6,0> Monospaced Numbers in Latin lookup 14 subtable" nine.tf
Substitution2: "<21,0> Lower Case Numbers lookup 10 subtable" nine.osf
Substitution2: "<6,0> Monospaced Numbers lookup 9 subtable" nine.tf
Substitution2: "<11,2> Diagonal Fractions lookup 4 subtable" nine.numr
Substitution2: "<10,1> Superiors lookup 2 subtable" uni2079
Substitution2: "<10,2> Inferiors lookup 1 subtable" nine.subs
EndChar

StartChar: colon
Encoding: 58 58 29
Width: 249
Flags: W
HStem: -8 163<69.7239 175.366> 349 163<69.944 175.208>
VStem: 40 162<19.3366 124.832 375.985 481.442>
LayerCount: 2
Fore
SplineSet
121 -8 m 0
 76.8607130446 -8 40 29.8953287726 40 74 c 0
 40 92 48 110 64 128 c 0
 80 146 99 155 122 155 c 0
 165.112982141 155 202 117.069202411 202 74 c 0
 202 29.9008277621 165.62363933 -8 121 -8 c 0
121 349 m 0
 77.3907849884 349 40 386.392160326 40 430 c 0
 40 448 48 467 64 485 c 0
 80 503 99 512 122 512 c 0
 165.636974887 512 202 473.559919638 202 430 c 0
 202 386.390784988 165.093790415 349 121 349 c 0
EndSplineSet
EndChar

StartChar: semicolon
Encoding: 59 59 30
Width: 261
Flags: W
HStem: 349 163<79.944 185.208>
VStem: 50 165.424<19.3281 124.625 380.468 480.764>
LayerCount: 2
Fore
SplineSet
198 499 m 1024
50 74 m 0
 50 92 58 110 74 128 c 0
 90 146 109 155 132 155 c 0
 154 155 172 147 188 131 c 0
 206.282608696 112.717391304 215.423913043 94.0373345936 215.423913043 74.7092648147 c 0
 215.423913043 63.3790170132 212.282608696 51.8260869565 206 40 c 2
 103 -149 l 1
 42 -149 l 1
 100 2 l 1
 92 2 83 7 74 16 c 0
 58 32 50 52 50 74 c 0
131 349 m 0
 87.3907849884 349 50 386.392160326 50 430 c 0
 50 448 58 467 74 485 c 0
 90 503 109 512 132 512 c 0
 175.636974887 512 212 473.559919638 212 430 c 0
 212 386.390784988 175.093790415 349 131 349 c 0
EndSplineSet
EndChar

StartChar: less
Encoding: 60 60 31
Width: 563
Flags: W
LayerCount: 2
Fore
SplineSet
502 227 m 1
 502 120 l 1
 60 292 l 1
 60 396 l 1
 503 570 l 1
 503 462 l 1
 198 344 l 1
 502 227 l 1
EndSplineSet
Substitution2: "'rtla' Right to Left Alternates lookup 0 subtable" greater
EndChar

StartChar: equal
Encoding: 61 61 32
Width: 573
Flags: W
HStem: 188 91<60 514> 414 90<60 514>
LayerCount: 2
Fore
SplineSet
514 505 m 1
 514 414 l 1
 60 414 l 1
 60 504 l 1
 514 505 l 1
514 280 m 1
 514 188 l 1
 60 188 l 1
 60 279 l 1
 514 280 l 1
EndSplineSet
EndChar

StartChar: greater
Encoding: 62 62 33
Width: 563
Flags: W
LayerCount: 2
Fore
SplineSet
60 227 m 1
 366 344 l 1
 60 462 l 1
 60 570 l 1
 504 396 l 1
 504 292 l 1
 60 120 l 1
 60 227 l 1
EndSplineSet
Substitution2: "'rtla' Right to Left Alternates lookup 0 subtable" less
EndChar

StartChar: question
Encoding: 63 63 34
Width: 524
Flags: W
HStem: -6 163<200.84 305.016> 646 87<186.911 336.718>
VStem: 170 162<21.5506 126.518> 198 100<208 291.243> 372 122<487.963 613.424>
LayerCount: 2
Fore
SplineSet
250 -6 m 0xe8
 206.363025113 -6 170 32.4400803619 170 76 c 0
 170 114.608981331 210.092551889 157 251 157 c 0
 294.609215012 157 332 119.607839674 332 76 c 0
 332 31.3647061584 295.12930061 -6 250 -6 c 0xe8
372 556 m 0
 372 614.657661441 322.377070346 646 262 646 c 0
 216.033685394 646 179.711032439 623.99696361 154 600 c 0
 139 586 129 569 122 550 c 1
 16 578 l 1
 54.4171664098 669.469443833 139.50918943 733 264 733 c 0
 354.415104875 733 427.021387254 700.970733231 465 649 c 0
 484 623 494 594 494 562 c 0
 494 492.071393151 461.056144774 447.056144774 425 411 c 0
 406 392 387 373 367 354 c 0
 347 335 331 313 318 290 c 0
 305 267 298 240 298 208 c 1
 198 208 l 1xd8
 198 353.617335757 298.207911752 403.662526941 354 492 c 0
 366 511 372 533 372 556 c 0
EndSplineSet
EndChar

StartChar: at
Encoding: 64 64 35
Width: 824
Flags: W
HStem: -110 68<299.735 545.925> 79 74<568.193 655.62> 386 77<355.873 465.58> 573 71<304.914 557.948>
VStem: 39 81<130.209 383.917> 214 91<168.786 328.17> 494.451 71.0149<205.496 332.406> 705 80<214.346 438.08>
LayerCount: 2
Fore
SplineSet
434 -42 m 0
 521.388079769 -42 564.125332516 -14.5659613131 616 19 c 1
 656 -34 l 1
 601.347724708 -76.5073252269 516.325773049 -110 418 -110 c 0
 235.627223288 -110 116.052017194 -18.1346327367 65 114 c 0
 48 158 39 205 39 255 c 0
 39 372.372099121 85.3722913785 464.611499704 147 528 c 0
 212.384293444 595.252416114 307.937892967 644 436 644 c 0
 533.058580132 644 616.392978691 614.399258568 675 570 c 0
 739.485352023 521.147460589 785 443.3448113 785 331 c 0
 785 233.343701607 749.733540519 152.082908652 693 111 c 0
 664 90 631 79 594 79 c 0
 546.214367181 79 513.572948366 95.5957445764 502 128 c 0
 500 132 499 134 497 134 c 0
 495 134 493 132 490 128 c 0
 463.020156034 93.311629186 418.701888725 65 358 65 c 0
 296.074799226 65 256.357664533 102.284670934 234 147 c 0
 221 173 214 203 214 238 c 0
 214 324.039732429 253.692642687 394.122258498 306 432 c 0
 335 453 369 463 408 463 c 0
 462.17017344 463 493.981508087 441.026897328 516 409 c 0
 518 407 519 407 521 407 c 0
 523 407 524 409 524 412 c 2
 531 438 l 1
 605 438 l 1
 568 220 l 2
 566.391714089 209.948213054 565.465782888 200.887658891 565.465782888 192.91547272 c 0
 565.465782888 167.370391505 574.972672034 153 602 153 c 0
 648.784817543 153 675.758774027 191.372812471 691 231 c 0
 701 257 705 288 705 325 c 0
 705 458.072804585 636.746192672 531.102633311 534 560 c 0
 502 569 468 573 435 573 c 0
 276.714731516 573 179.200690541 494.509710814 139 377 c 0
 126 339 120 298 120 255 c 0
 120 158.766025143 151.14529138 88.9712008934 202 40 c 0
 254.985167989 -11.0227543595 331.090089789 -42 434 -42 c 0
305 246 m 0
 305 191.700324192 326.975785932 143 379 143 c 0
 424.334397582 143 457.113824342 174.91626625 474 207 c 0
 485.484046951 228.819689206 494.450916594 258.735113104 494.450916594 288.263710762 c 0
 494.450916594 302.952942535 492.231936643 317.546448631 487 331 c 0
 475.543749605 360.458929587 451.113368431 386 414 386 c 0
 365.988420051 386 336.79535318 351.270241678 320 316 c 0
 310 295 305 272 305 246 c 0
EndSplineSet
EndChar

StartChar: A
Encoding: 65 65 36
Width: 719
Flags: W
HStem: 0 21G<34 163.253 555.857 685> 182 108<250 468> 703 20G<286.808 433.165>
LayerCount: 2
Fore
SplineSet
34 0 m 1
 294 723 l 1
 426 723 l 1
 685 0 l 1
 563 0 l 1
 498 182 l 1
 222 182 l 1
 156 0 l 1
 34 0 l 1
250 290 m 1
 468 290 l 1
 360 604 l 1
 250 290 l 1
EndSplineSet
EndChar

StartChar: B
Encoding: 66 66 37
Width: 678
Flags: W
HStem: 0 97<209 453.374> 316 99<209 449.591> 626 97<209 438.373>
VStem: 88 121<97 316 415 626> 492 118<454.52 579.516> 504 124<142.76 270.596>
LayerCount: 2
Fore
SplineSet
628 195 m 0xf4
 628 43.916864603 511.528011838 0 346 0 c 2
 88 0 l 1
 88 723 l 1
 336 723 l 2
 491.945673556 723 610 675.62295423 610 534 c 0xf8
 610 439.692006731 559.489832822 401.068892159 481 370 c 1
 568.04583971 348.988935242 628 298.790096934 628 195 c 0xf4
504 205 m 0xf4
 504 284.849541996 436.774315351 316 356 316 c 2
 209 316 l 1
 209 97 l 1
 348 97 l 2
 435.373502647 97 504 125.173951823 504 205 c 0xf4
492 518 m 0xf8
 492 595.39243575 425.965186457 626 346 626 c 2
 209 626 l 1
 209 415 l 1
 356 415 l 2
 430.486983129 415 492 443.094644761 492 518 c 0xf8
EndSplineSet
EndChar

StartChar: C
Encoding: 67 67 38
Width: 694
Flags: W
HStem: -10 102<280.571 444.549> 631 102<276.91 448.743>
VStem: 50 135<210.304 520.35>
LayerCount: 2
Fore
SplineSet
366 631 m 0
 223.129922731 631 185 514.984150762 185 364 c 0
 185 269 201 200 232 157 c 0
 263 114 308 92 366 92 c 0
 453.687879278 92 502.595685943 151.063606584 521 221 c 1
 644 190 l 1
 611.661028261 68.7288559793 524.522351444 -10 369 -10 c 0
 225.410296393 -10 136.750816275 63.1520880235 89 166 c 0
 63 222 50 289 50 366 c 0
 50 520.045763409 102.008657675 631.005230679 198 689 c 0
 246 718 302 733 369 733 c 0
 480.511038235 733 562.669608673 682.568979164 609 614 c 0
 624 592 636 568 644 542 c 1
 521 510 l 1
 503.055239288 578.190090705 450.998536797 631 366 631 c 0
EndSplineSet
EndChar

StartChar: D
Encoding: 68 68 39
Width: 708
Flags: W
HStem: 0 101<211 392.108> 623 100<211 397.128>
VStem: 88 123<101 623> 530 127<239.529 492.224>
LayerCount: 2
Fore
SplineSet
657 366 m 0
 657 120.178075212 523.01469065 0 274 0 c 2
 88 0 l 1
 88 723 l 1
 228 723 l 2
 249 723 267 722 282 722 c 0
 524.364809488 716.491708875 657 608.327004135 657 366 c 0
530 365 m 0
 530 538.435463574 449.378929754 623 280 623 c 2
 211 623 l 1
 211 101 l 1
 276 101 l 2
 445.713327531 101 530 190.685319306 530 365 c 0
EndSplineSet
EndChar

StartChar: E
Encoding: 69 69 40
Width: 628
Flags: W
HStem: 0 106<209 572> 313 103<210 524> 618 105<210 565>
VStem: 88 121<106 313 416 618>
LayerCount: 2
Fore
SplineSet
88 0 m 1
 88 723 l 1
 566 723 l 1
 565 618 l 1
 210 618 l 1
 210 416 l 1
 524 416 l 1
 524 313 l 1
 209 313 l 1
 209 106 l 1
 572 106 l 1
 572 0 l 1
 88 0 l 1
EndSplineSet
EndChar

StartChar: F
Encoding: 70 70 41
Width: 604
Flags: W
HStem: 0 21G<88 211> 310 102<211 519> 620 103<211 560>
VStem: 88 123<0 310 412 620>
LayerCount: 2
Fore
SplineSet
88 723 m 1
 560 723 l 1
 560 620 l 1
 211 620 l 1
 211 412 l 1
 519 412 l 1
 519 310 l 1
 211 310 l 1
 211 0 l 1
 88 0 l 1
 88 723 l 1
EndSplineSet
EndChar

StartChar: G
Encoding: 71 71 42
Width: 747
Flags: W
HStem: -10 108<287.42 458.501> 0 21G<582 668> 290 86<380 542> 628 105<282.82 452.133>
VStem: 50 133<218.169 507.153> 582 86<0 102>
LayerCount: 2
Fore
SplineSet
582 102 m 1x7c
 539.278628395 37.9179425921 477.399261167 -10 368 -10 c 0
 227.321911337 -10 136.318657415 61.9028400827 89 162 c 0
 63 217 50 283 50 360 c 0
 50 515.786346661 107.130984086 628.081865054 203 688 c 0
 251 718 309 733 374 733 c 0
 459.762458529 733 526.493979662 701.024556453 574 659 c 0
 609.965375828 627.184475229 633.966267026 591.859632165 649 543 c 1
 525 512 l 1
 512.208252705 555.491940803 482.847090563 588.817628304 447 610 c 0
 425 623 400 628 372 628 c 0
 285.81286211 628 234.601849174 582.279507362 207 515 c 0
 191 476 183 424 183 362 c 0
 183 237.625028157 215.853521331 145.709491653 302 112 c 0
 325 103 350 98 376 98 c 0xbc
 451.660586278 98 498.85357627 139.707152539 524 190 c 0
 532 206 536 223 537 238 c 2
 542 290 l 1
 380 290 l 1
 380 376 l 1
 668 376 l 1
 668 0 l 1
 582 0 l 1
 582 102 l 1x7c
EndSplineSet
EndChar

StartChar: H
Encoding: 72 72 43
Width: 768
Flags: W
HStem: 0 21G<88 209 559 680> 321 103<209 559> 703 20G<88 209 559 680>
VStem: 88 121<0 321 424 723> 559 121<0 321 424 723>
LayerCount: 2
Fore
SplineSet
559 321 m 1
 209 321 l 1
 209 0 l 1
 88 0 l 1
 88 723 l 1
 209 723 l 1
 209 424 l 1
 559 424 l 1
 559 723 l 1
 680 723 l 1
 680 0 l 1
 559 0 l 1
 559 321 l 1
EndSplineSet
EndChar

StartChar: I
Encoding: 73 73 44
Width: 296
Flags: W
HStem: 0 21G<88 209> 703 20G<88 209>
VStem: 88 121<0 723>
LayerCount: 2
Fore
SplineSet
88 723 m 1
 209 723 l 1
 209 0 l 1
 88 0 l 1
 88 723 l 1
EndSplineSet
EndChar

StartChar: J
Encoding: 74 74 45
Width: 395
Flags: W
HStem: -10 115<38.4348 179.954> 703 20G<204 326>
VStem: 204 122<131.241 723>
LayerCount: 2
Fore
SplineSet
118 105 m 0
 189.45478662 105 204 144.555751889 204 220 c 2
 204 723 l 1
 326 723 l 1
 326 188 l 2
 326 56.8442606788 287.028881 -10 155 -10 c 0
 117.231429139 -10 59.5227896498 1.34316310506 34 9 c 1
 38 122 l 1
 60.870011634 115.13899651 86.0396550996 105 118 105 c 0
EndSplineSet
EndChar

StartChar: K
Encoding: 75 75 46
Width: 701
Flags: W
HStem: 0 21G<88 214 524.295 670> 703 20G<88 214 488.419 646>
VStem: 88 126<0 217 372 723>
LayerCount: 2
Fore
SplineSet
670 0 m 1
 536 0 l 1
 330 352 l 1
 214 217 l 1
 214 0 l 1
 88 0 l 1
 88 723 l 1
 214 723 l 1
 214 372 l 1
 505 723 l 1
 646 723 l 1
 417 441 l 1
 670 0 l 1
EndSplineSet
EndChar

StartChar: L
Encoding: 76 76 47
Width: 577
Flags: W
HStem: 0 105<211 538> 703 20G<88 211>
VStem: 88 123<105 723>
LayerCount: 2
Fore
SplineSet
88 723 m 5
 211 723 l 5
 211 105 l 5
 538 105 l 5
 538 0 l 5
 88 0 l 5
 88 723 l 5
EndSplineSet
EndChar

StartChar: M
Encoding: 77 77 48
Width: 903
Flags: W
HStem: 0 21G<88 211 393.298 508.702 692 816> 703 20G<88 268.835 635.092 816>
VStem: 88 123<0 564> 692 124<0 567>
LayerCount: 2
Fore
SplineSet
88 0 m 1
 88 723 l 1
 262 723 l 1
 451 170 l 1
 642 723 l 1
 816 723 l 1
 816 0 l 1
 692 0 l 1
 692 567 l 1
 502 0 l 1
 400 0 l 1
 211 564 l 1
 211 0 l 1
 88 0 l 1
EndSplineSet
EndChar

StartChar: N
Encoding: 78 78 49
Width: 769
Flags: W
HStem: 0 21G<88 209 558.302 682> 703 20G<88 219.694 560 682>
VStem: 88 121<0 530> 560 122<206 723>
LayerCount: 2
Fore
SplineSet
560 723 m 1
 682 723 l 1
 682 0 l 1
 572 0 l 1
 209 530 l 1
 209 0 l 1
 88 0 l 1
 88 723 l 1
 206 723 l 1
 560 206 l 1
 560 723 l 1
EndSplineSet
EndChar

StartChar: O
Encoding: 79 79 50
Width: 748
Flags: W
HStem: -10 102<286.775 467.142> 631 102<285.536 462.911>
VStem: 50 134<212.851 506.324> 565 133<209.058 510.437>
LayerCount: 2
Fore
SplineSet
376 -10 m 0
 232.185905998 -10 138.154675123 59.1343410864 90 161 c 0
 64 216 50 283 50 360 c 0
 50 516.657846819 106.754668976 628.46204223 204 688 c 0
 253 718 310 733 376 733 c 0
 517.378748527 733 610.974635405 661.285400667 658 560 c 0
 684 504 698 438 698 360 c 0
 698 205.699504562 642.182562917 93.489101823 547 34 c 0
 499 4 442 -10 376 -10 c 0
376 92 m 0
 519.414818498 92 565 207.433822663 565 358 c 0
 565 472.782137302 540.20462665 558.432574773 476 602 c 0
 448 621 415 631 376 631 c 0
 285.575257515 631 236.099751558 583.249378895 208 513 c 0
 192 473 184 421 184 358 c 0
 184 246.812946625 210.568050764 160.777681652 274 120 c 0
 302 102 337 92 376 92 c 0
EndSplineSet
EndChar

StartChar: P
Encoding: 80 80 51
Width: 645
Flags: W
HStem: 0 21G<88 211> 262 98<211 438.977> 627 96<210 437.705>
VStem: 88 122<0 262 360 627> 501 115<419.634 569.296>
LayerCount: 2
Fore
SplineSet
88 0 m 1
 88 723 l 1
 344 723 l 2
 451.905174289 723 535.928845304 683.728767265 581 618 c 0
 605 583 616 541 616 490 c 0
 616 387.816189894 565.428050292 322.834339612 494 289 c 0
 456 271 411 262 360 262 c 2
 211 262 l 1
 211 0 l 1
 88 0 l 1
501 496 m 0
 501 579.265568753 437.450975544 627 354 627 c 2
 210 627 l 1
 210 360 l 1
 357 359 l 2
 439.863266997 359 501 413.254553918 501 496 c 0
EndSplineSet
EndChar

StartChar: Q
Encoding: 81 81 52
Width: 761
Flags: W
HStem: -122 100<617.114 762> -10 102<283.39 461.527> 631 102<285.61 463.104>
VStem: 50 135<208.36 511.078> 566 132<208.493 511.088>
LayerCount: 2
Fore
SplineSet
458 -2 m 1
 428.100633309 -7.27635882789 406.327992478 -10 375 -10 c 0
 231.861339857 -10 139.44359832 59.2815589781 90 160 c 0
 63 215 50 282 50 360 c 0
 50 516.839431932 106.73105631 628.831910194 203 689 c 0
 251 719 309 733 375 733 c 0
 517.403923354 733 611.712530043 662.849935293 659 561 c 0
 685 505 698 438 698 360 c 0
 698 213.84537729 654.383434127 114.347851693 568 51 c 1
 586.839840524 7.66836679558 632.503885251 -19.8334772315 691 -22 c 2
 762 -22 l 1
 762 -122 l 1
 692 -122 l 2
 573.730162632 -122 508.700610952 -79.1531036225 458 -2 c 1
185 358 m 0
 185 265 202 197 235 155 c 0
 268 113 315 92 375 92 c 0
 435 92 483 113 516 155 c 0
 549 197 566 265 566 359 c 0
 566 453 549 521 516 565 c 0
 483 609 436 631 375 631 c 0
 315 631 268 609 235 565 c 0
 202 521 185 452 185 358 c 0
EndSplineSet
EndChar

StartChar: R
Encoding: 82 82 53
Width: 687
Flags: W
HStem: -0 21G<87 209 492.536 628> 293 97<209 377> 628 95<209 446.036>
VStem: 87 122<0 293 390 628> 500 124<442.142 579.239>
LayerCount: 2
Fore
SplineSet
624 516 m 0
 624 405.842978341 565.464925762 346.810837288 490 314 c 1
 628 0 l 1
 501 -0 l 1
 377 293 l 1
 209 293 l 1
 209 -0 l 1
 87 -0 l 1
 87 723 l 1
 381 723 l 2
 528.111476773 723 624 658.960856267 624 516 c 0
500 511 m 0
 500 586.477329235 444.946786547 628 369 628 c 2
 209 628 l 1
 209 390 l 1
 353 390 l 2
 437.976216289 390 500 429.422434607 500 511 c 0
EndSplineSet
EndChar

StartChar: S
Encoding: 83 83 54
Width: 684
Flags: W
HStem: -10 98<244.227 449.787> 537 21G<489.067 575.333> 633 99<252.539 442.902>
VStem: 75 128<474.686 587.223> 507 123<134.766 248.493>
LayerCount: 2
Fore
SplineSet
496 537 m 1
 482.134507408 602.861089811 424.617972051 633 346 633 c 0
 285.076570821 633 235.396921054 612.737139099 214 573 c 0
 207 560 203 545 203 529 c 0
 203 506 210 486 226 472 c 0
 242 457 272 445 314 436 c 2
 444 406 l 2
 516.960972636 390.365505864 566.824650767 363.962075743 598 316 c 0
 620.164443439 281.900856247 630 241.917615448 630 192 c 0
 630 102.609270557 566.124839171 46.354583839 496 17 c 0
 453 -1 403 -10 345 -10 c 0
 222.52751304 -10 132.915408214 34.4555214689 82 108 c 0
 71 124 63 141 57 160 c 1
 177 191 l 1
 196.283241203 123.508655789 257.878224561 88 344 88 c 0
 403.418474061 88 457.593505014 104.564469658 486 135 c 0
 500 150 507 169 507 191 c 0
 507 236.49388645 480.424067477 258.787966262 448 275 c 0
 430 284 409 291 384 296 c 2
 250 325 l 2
 149.412985125 346.946257791 77.1457621954 402.274603643 75 516 c 0
 75 613.309832384 134.169355907 673.464595276 206 705 c 0
 247 723 293 732 344 732 c 0
 458.916581872 732 545.468139075 693.407210025 589 625 c 0
 601 607 610 587 615 567 c 1
 496 537 l 1
EndSplineSet
EndChar

StartChar: T
Encoding: 84 84 55
Width: 606
Flags: W
HStem: 0 21G<246 368> 614 109<21 246 368 585>
VStem: 246 122<0 614>
LayerCount: 2
Fore
SplineSet
21 614 m 1
 21 723 l 1
 585 723 l 1
 585 614 l 1
 368 614 l 1
 368 0 l 1
 246 0 l 1
 246 614 l 1
 21 614 l 1
EndSplineSet
EndChar

StartChar: U
Encoding: 85 85 56
Width: 713
Flags: W
HStem: -10 105<277.147 454.849> 703 20G<88 212 520 644>
VStem: 88 124<161.155 723> 520 124<163.581 723>
LayerCount: 2
Fore
SplineSet
365 95 m 0
 469.124115198 95 520 151.822904203 520 258 c 2
 520 723 l 1
 644 723 l 1
 644 264 l 2
 644 80.2688688884 551.835888503 -10 365 -10 c 0
 174.170766632 -10 88 82.7828093548 88 271 c 2
 88 723 l 1
 212 723 l 1
 212 259 l 2
 212 153.811130566 264.390706249 95 365 95 c 0
EndSplineSet
EndChar

StartChar: V
Encoding: 86 86 57
Width: 685
Flags: W
HStem: 0 21G<263.112 418.971> 703 20G<21 144.964 538.967 664>
LayerCount: 2
Fore
SplineSet
664 723 m 1
 412 0 l 1
 270 0 l 1
 21 723 l 1
 138 723 l 1
 341 140 l 1
 546 723 l 1
 664 723 l 1
EndSplineSet
EndChar

StartChar: W
Encoding: 87 87 58
Width: 961
Flags: W
HStem: 0 21G<226.163 337.781 620.297 733.892> 703 20G<21 146.632 428.406 531.67 814.406 941>
LayerCount: 2
Fore
SplineSet
941 723 m 1
 728 0 l 1
 626 0 l 1
 480 512 l 1
 332 0 l 1
 232 0 l 1
 21 723 l 1
 141 723 l 1
 288 201 l 1
 434 723 l 1
 526 723 l 1
 674 201 l 1
 820 723 l 1
 941 723 l 1
EndSplineSet
EndChar

StartChar: X
Encoding: 88 88 59
Width: 704
Flags: W
HStem: 0 21G<34 178.59 506.194 670> 703 20G<42 204.648 499.352 643>
LayerCount: 2
Fore
SplineSet
670 0 m 1
 519 0 l 1
 341 278 l 1
 166 0 l 1
 34 0 l 1
 276 368 l 1
 42 723 l 1
 192 723 l 1
 352 470 l 1
 512 723 l 1
 643 723 l 1
 416 382 l 1
 670 0 l 1
EndSplineSet
EndChar

StartChar: Y
Encoding: 89 89 60
Width: 640
Flags: W
HStem: 0 21G<260 381> 703 20G<10 153.511 484.746 630>
VStem: 260 121<0 306>
LayerCount: 2
Fore
SplineSet
630 723 m 1
 381 306 l 1
 381 0 l 1
 260 0 l 1
 260 306 l 1
 10 723 l 1
 142 723 l 1
 321 412 l 1
 496 723 l 1
 630 723 l 1
EndSplineSet
EndChar

StartChar: Z
Encoding: 90 90 61
Width: 654
Flags: W
HStem: 0 104<226 608> 620 103<80 438>
LayerCount: 2
Fore
SplineSet
58 0 m 1
 58 62 l 1
 438 620 l 1
 80 620 l 1
 80 723 l 1
 611 723 l 1
 611 664 l 1
 226 104 l 1
 608 104 l 1
 608 0 l 1
 58 0 l 1
EndSplineSet
EndChar

StartChar: bracketleft
Encoding: 91 91 62
Width: 321
Flags: W
HStem: -161 72<183 290> 651 72<184 291>
VStem: 82 208<-161 -89 651 723> 82 101<-89 651>
LayerCount: 2
Fore
SplineSet
81 723 m 1xe0
 291 723 l 1
 291 651 l 1
 184 651 l 1
 183 -89 l 1xd0
 290 -89 l 1
 290 -161 l 1
 82 -161 l 1
 81 723 l 1xe0
EndSplineSet
Substitution2: "'rtla' Right to Left Alternates lookup 0 subtable" bracketright
EndChar

StartChar: backslash
Encoding: 92 92 63
Width: 367
Flags: W
HStem: 703 20G<10 104.711>
LayerCount: 2
Fore
SplineSet
261 -28 m 1
 10 723 l 1
 98 723 l 1
 350 -28 l 1
 261 -28 l 1
EndSplineSet
EndChar

StartChar: bracketright
Encoding: 93 93 64
Width: 331
Flags: W
LayerCount: 2
Fore
SplineSet
228 723 m 1
 18 723 l 1
 18 651 l 1
 125 651 l 1
 126 -89 l 1
 18 -89 l 1
 18 -161 l 1
 227 -161 l 1
 228 723 l 1
EndSplineSet
Substitution2: "'rtla' Right to Left Alternates lookup 0 subtable" bracketleft
EndChar

StartChar: asciicircum
Encoding: 94 94 65
Width: 479
Flags: W
HStem: 506.653 20G<224.26 237.598>
LayerCount: 2
Fore
SplineSet
344 125 m 1
 236 397 l 1
 126 126 l 1
 39 126 l 1
 192 491 l 2
 198.89372688 508.2343172 213.560101273 526.652503373 234.959623705 526.652503373 c 0
 240.235657699 526.652503373 245.920976074 525.532926636 252 523 c 0
 264 518 273 508 280 492 c 2
 432 125 l 1
 344 125 l 1
EndSplineSet
EndChar

StartChar: underscore
Encoding: 95 95 66
Width: 536
Flags: W
HStem: -130 92<60 474>
LayerCount: 2
Fore
SplineSet
474 -38 m 1
 474 -129 l 1
 60 -130 l 1
 60 -38 l 1
 474 -38 l 1
EndSplineSet
EndChar

StartChar: grave
Encoding: 96 96 67
Width: 243
Flags: W
HStem: 578 145
LayerCount: 2
Fore
SplineSet
135 723 m 1
 5 723 l 1
 148 578 l 1
 238 578 l 1
 135 723 l 1
EndSplineSet
EndChar

StartChar: a
Encoding: 97 97 68
Width: 577
Flags: W
HStem: -10 83<187.205 309.115> -10 70<498.211 546.964> 257 67<214.019 316> 453 84<209.306 351.87>
VStem: 43 116<100.411 212.329> 379 117<64.9526 93 119.776 263 330 427.299>
LayerCount: 2
Fore
SplineSet
384 93 m 1x7c
 356.70603408 31.58857668 303.627056145 -10 216 -10 c 2
 215 -10 l 2xbc
 127.016773926 -10 68.6262972841 30.3079595056 49 99 c 0
 45 113 43 128 43 144 c 0
 43 242.129326155 98.961130594 283.490282649 181 304 c 0
 214 312 254 320 302 324 c 2
 379 330 l 1
 379 366 l 2
 379 424.782565402 342.091423269 453 284 453 c 0
 283 453 281 452 280 452 c 0
 238.402035272 452 206.802038107 437.630900694 187 415 c 0
 183 410 181 405 178 400 c 0
 176 396 173 392 172 387 c 1
 72 412 l 1
 89.7462402988 500.731201494 178.550739799 537 285 537 c 2
 287 537 l 2
 354.643023969 537 408.950881161 524.874265699 446 494 c 0
 461 481 471 469 474 461 c 0
 485 435 490 422 490 421 c 0
 494 412 496 395 496 372 c 2
 496 93 l 2
 496 72 514 61 548 60 c 1
 548 0 l 1
 526 -7 498 -10 462 -10 c 0
 410 -10 384 14 384 61 c 2
 384 93 l 1x7c
159 157 m 0
 159 103.236488391 200.930522151 73 255 73 c 0
 307.064173633 73 348.498674364 101.569156053 368 135 c 0
 375 147 379 159 379 172 c 2
 379 263 l 1
 316 257 l 2
 244.391057951 249.043450883 159 236.466332663 159 157 c 0
EndSplineSet
EndChar

StartChar: b
Encoding: 98 98 69
Width: 600
Flags: W
HStem: -10 90<247.967 383.269> 0 21G<69 160.642> 446 91<258.571 385.492> 728 20G<69 191>
VStem: 69 122<135.514 385.991 452 748> 69 89<0 53> 441 121<145.162 378.459>
LayerCount: 2
Fore
SplineSet
353 537 m 0x7a
 498.618550741 537 562 417.986220836 562 261 c 0
 562 151.968132823 527.617957558 68.424845821 463 24 c 0
 431 2 390 -10 342 -10 c 0xba
 288.534335495 -10 249.128693968 4.95812864493 222 30 c 0
 209 42 198 53 190 67 c 0
 182 81 176 94 172 106 c 1
 158 0 l 1
 69 0 l 1x76
 69 748 l 1
 191 748 l 1
 191 452 l 1
 215.966515468 501.933030937 278.215128413 537 353 537 c 0x7a
191 264 m 0
 191 150.365523406 214.644626998 80 317 80 c 0
 353 80 383 94 406 123 c 0
 429 152 441 199 441 264 c 0
 441 365.977500909 407.816562522 446 315 446 c 0
 251.126397227 446 221.786505984 416.359517951 205 366 c 0
 196 339 191 305 191 264 c 0
EndSplineSet
EndChar

StartChar: c
Encoding: 99 99 70
Width: 516
Flags: W
HStem: -10 88<215.133 351.15> 442 95<214.103 353.8>
VStem: 39 115<147.204 374.182>
LayerCount: 2
Fore
SplineSet
286 78 m 0
 343.296691027 78 379.773762977 117.17046425 392 162 c 1
 490 137 l 1
 474.072346667 78.598604447 437.807043209 39.0304230447 389 13 c 0
 359 -3 324 -10 284 -10 c 0
 179.68675068 -10 107.914263033 39.7823561278 70 112 c 0
 49 152 39 200 39 256 c 0
 39 372.526974166 80.529282274 457.950634927 153 503 c 0
 190 526 234 537 284 537 c 0
 379.741855549 537 447.983710817 488.536650662 478 421 c 1
 376 396 l 1
 358.359067213 423.441451001 328.284954936 442 284 442 c 0
 245 442 214 427 190 397 c 0
 166 367 154 320 154 257 c 0
 154 158.784760362 193.127067108 78 286 78 c 0
EndSplineSet
EndChar

StartChar: d
Encoding: 100 100 71
Width: 600
Flags: W
HStem: -10 89<216.388 353.529> 0 21G<438.547 531> 446 91<214.277 340.556> 728 20G<409 531>
VStem: 39 120<145.884 386.709> 409.08 121.92<137.127 389.872 452 748> 441 90<0 57.0769>
LayerCount: 2
Fore
SplineSet
428 106 m 1x7a
 404.973509508 36.9205285248 352.536907699 -10 258 -10 c 0
 105.951771721 -10 39 103.949938126 39 266 c 0
 39 376.731439602 69.3207343354 458.808263077 133 504 c 0
 164 526 201 537 247 537 c 0
 309.037012251 537 356.126412693 512.873587307 387 482 c 0
 397 472 404 462 409 452 c 1
 409 748 l 1
 531 748 l 1xbc
 531 0 l 1
 441 0 l 1
 428 106 l 1x7a
409 269 m 0
 409 371.443411013 383.563692578 446 285 446 c 0
 248 446 218 433 194 406 c 0
 170 379 159 333 159 269 c 0
 159 205 169 157 191 126 c 0
 213 95 243 79 283 79 c 0
 383.149833118 79 409.080152164 149.833197068 409.080152164 258.327814385 c 0
 409.080152164 261.845984896 409.052885925 265.403757128 409 269 c 0
EndSplineSet
EndChar

StartChar: e
Encoding: 101 101 72
Width: 566
Flags: W
HStem: -10 90<218.846 370.477> 236 75<164 407> 450 87<218.13 356.897>
VStem: 43 121<138.794 236 311 380.652> 407 115<311 397.174>
LayerCount: 2
Fore
SplineSet
288 537 m 0
 444.517581287 537 522 428.649305801 522 272 c 2
 522 236 l 1
 164 236 l 1
 164 146.413041298 202.537955075 80 292 80 c 0
 344.873625721 80 387.935087673 102.493567129 402 140 c 1
 507 113 l 1
 486.935800363 64.2726580243 443.046246979 29.5187878351 395 10 c 0
 363 -3 330 -10 295 -10 c 0
 186.848368931 -10 113.410602473 40.0078713619 75 115 c 0
 54 156 43 204 43 258 c 0
 43 369.810937131 87.2292768362 456.152851224 156 502 c 0
 192 526 237 537 288 537 c 0
407 311 m 1
 407 391.334119425 368.032267261 450 287 450 c 0
 231.115717983 450 194.697905725 417.817102882 178 377 c 0
 169 355 164 333 164 311 c 1
 407 311 l 1
EndSplineSet
EndChar

StartChar: f
Encoding: 102 102 73
Width: 403
Flags: W
HStem: -0 21G<136 257> 441 86<34 136 257 374> 670 83<265.03 378>
VStem: 136 121<0 441 527 663.981>
LayerCount: 2
Fore
SplineSet
306 670 m 2
 264.948317387 670 255 648.845376355 255 607 c 2
 255 527 l 1
 374 527 l 1
 374 441 l 1
 257 441 l 1
 257 -0 l 1
 136 -0 l 1
 136 441 l 1
 34 441 l 1
 34 527 l 1
 136 527 l 1
 136 624 l 2
 136 708.438821527 183.727525622 753 269 753 c 2
 378 753 l 1
 378 670 l 1
 306 670 l 2
EndSplineSet
EndChar

StartChar: g
Encoding: 103 103 74
Width: 624
Flags: W
HStem: -171 71<184.913 418.037> 196 70<223.056 369.188> 440 100<555.062 594> 457 68<224.662 367.54>
VStem: 28 120<-69.1604 14.9507> 67 122<299.359 421.484> 69 112<128.5 181.967> 404 115<299.505 421.897> 448 116<-74.6545 14.4927>
LayerCount: 2
Fore
SplineSet
505 424 m 1xe4
 511.776765039 407.058087402 519 383.439118766 519 362 c 0
 519 289.842222329 473.773389007 242.605906915 418 218 c 0
 384 203 343 195 293 195 c 0
 288 195 281 196 272 196 c 2
 252 196 l 2
 225 195 206 192 196 187 c 0
 186 182 181 176 181 170 c 0xe3
 181 161 189 155 204 152 c 0
 248.954172002 143.0091656 328.00156953 141.956385258 385 137 c 0
 485.646458234 130.176511306 564 89.3041017566 564 -8 c 0
 564 -56 542 -94 498 -125 c 0
 454 -156 387 -171 298 -171 c 0
 211 -171 145 -159 98 -136 c 0
 51 -113 28 -81 28 -40 c 0xe880
 28 -2.15485916383 50.8847540055 20.5898360037 74 36 c 0
 86 44 98 51 108 55 c 0
 118 59 125 62 128 64 c 1
 111.437624033 72.2811879837 93.276653275 85.0637650656 80 100 c 0
 72 109 69 121 69 136 c 0xe2
 69 153 77 169 93 184 c 0
 109 199 135 210 168 216 c 1
 115.310066342 242.344966829 67 291.01049608 67 362 c 0
 67 438.639824329 118.923276099 482.944516369 180 505 c 0
 216 518 256 525 303 525 c 0xd4
 371.576041742 525 410.975791945 508.665735236 452 482 c 1
 485.019803462 496.151344341 528.045988893 511.32891795 562 527 c 0
 575 533 587 536 596 540 c 1
 594 440 l 1
 505 424 l 1xe4
228 44 m 0
 187.83722153 44 148 16.3097334935 148 -26 c 0
 148 -50 162 -69 190 -81 c 0
 218 -93 261 -100 319 -100 c 0
 363 -100 395 -94 416 -82 c 0
 437 -70 448 -52 448 -29 c 0xc880
 448 14.7226478917 407.14721517 31.7751989164 362 35 c 2
 232 43 l 2
 231 43 229 44 228 44 c 0
189 359 m 0xd5
 189 298.400774573 234.009218217 266 297 266 c 0
 357.990133126 266 404 299.503816603 404 360 c 0
 404 421.405109479 358.547334823 457 297 457 c 0
 234.410984378 457 189 420.949535485 189 359 c 0xd5
EndSplineSet
EndChar

StartChar: h
Encoding: 104 104 75
Width: 585
Flags: W
HStem: -0 21G<69 190 402 524> 441 95<250.223 373.018> 733 20G<69 189>
VStem: 69 121<0 407.942 457 753> 402 122<0 412.58>
LayerCount: 2
Fore
SplineSet
302 441 m 0
 242.753638443 441 190 411.312673399 190 352 c 2
 190 0 l 1
 69 0 l 1
 69 753 l 1
 189 753 l 1
 189 457 l 1
 217.604793316 503.482789138 266.771260847 536 344 536 c 0
 415.370230306 536 470.409507324 507.385739013 500 463 c 0
 516 439 524 411 524 378 c 2
 524 -0 l 1
 402 -0 l 1
 402 357 l 2
 402 412.18577006 357.789110955 441 302 441 c 0
EndSplineSet
EndChar

StartChar: i
Encoding: 105 105 76
Width: 300
Flags: W
HStem: 0 21G<116 233> 441 86<14 116> 608 135<129.048 224.125>
VStem: 108 135<627.069 722.264> 116 117<0 441>
LayerCount: 2
Fore
SplineSet
175 608 m 0xf0
 138.705485167 608 108 639.249326991 108 676 c 0
 108 691 115 706 128 721 c 0
 141 736 157 743 176 743 c 0
 212.83224453 743 243 713.102106244 243 676 c 0
 243 638.708431909 212.28616474 608 175 608 c 0xf0
233 527 m 1xe8
 233 0 l 1
 116 0 l 1
 116 441 l 1
 14 441 l 1
 14 527 l 1
 87 527 160 527 233 527 c 1xe8
EndSplineSet
EndChar

StartChar: j
Encoding: 106 106 77
Width: 276
Flags: W
HStem: -166 98<-28.7344 71.0852> -158 90<-12 44.6018> 608 135<98.0586 194.437>
VStem: 78 135<628.611 722.264> 84 122<-59.1548 517>
LayerCount: 2
Fore
SplineSet
147 608 m 0x30
 111.662875018 608 78 640.294804001 78 676 c 0
 78 691 85 706 98 721 c 0
 111 736 127 743 146 743 c 0
 182.83224453 743 213 713.102106244 213 676 c 0
 213 639.781227763 182.784701096 608 147 608 c 0x30
28 -68 m 2xa8
 66.3969971283 -68 84 -48.730911716 84 -6 c 2
 84 517 l 1
 206 517 l 1
 206 -8 l 2
 206 -117.602811939 157.997306906 -166 46 -166 c 0xa8
 16 -166 -3 -163 -12 -158 c 2
 -29 -152 l 1
 -30 -68 l 1x68
 28 -68 l 2xa8
EndSplineSet
EndChar

StartChar: k
Encoding: 107 107 78
Width: 573
Flags: W
HStem: 0 21G<69 190 415.885 552> 507 20G<385.787 538> 733 20G<69 190>
VStem: 69 121<0 162 292 753>
LayerCount: 2
Fore
SplineSet
552 0 m 1
 429 0 l 1
 269 244 l 1
 190 162 l 1
 190 0 l 1
 69 0 l 1
 69 753 l 1
 190 753 l 1
 190 292 l 1
 404 527 l 1
 538 527 l 1
 346 320 l 1
 552 0 l 1
EndSplineSet
EndChar

StartChar: l
Encoding: 108 108 79
Width: 312
Flags: W
HStem: -8 88<203.023 271.578> 2 77<218.422 272> 729 20G<69 188>
VStem: 69 119<93.8221 749>
LayerCount: 2
Fore
SplineSet
218 -8 m 0xb0
 136.181134023 -8 85.2080282064 18.7518307616 74 86 c 0
 71 104 69 122 69 140 c 2
 69 749 l 1
 188 749 l 1
 188 154 l 2
 188 110.652323322 206.434969233 81.9782515384 246 80 c 2xb0
 272 79 l 1
 272 2 l 1x70
 263 -1 254 -2 245 -4 c 0
 236 -6 227 -8 218 -8 c 0xb0
EndSplineSet
EndChar

StartChar: m
Encoding: 109 109 80
Width: 881
Flags: W
HStem: 0 21G<69 190 383 504 698 820> 436 101<255.527 354.974 562.825 669.649> 507 20G<69 188>
VStem: 69 121<0 405.404 453 527> 383 121<0 406.04> 698 122<0 406.968>
LayerCount: 2
Fore
SplineSet
290 436 m 0xdc
 235.761456671 436 190 403.867649044 190 348 c 2
 190 0 l 1
 69 0 l 1
 69 527 l 1
 188 527 l 1xbc
 188 453 l 1
 218.38651952 499.592663263 269.660800049 537 348 537 c 0
 417.633769504 537 468.060419381 500.691245115 494 454 c 1
 523.774202459 498.661303688 579.584195428 537 652 537 c 0
 728.429671437 537 780.258306617 497.980064119 804 441 c 0
 814 417 820 387 820 350 c 2
 820 0 l 1
 698 0 l 1
 698 336 l 2
 698 400.627335984 666.139074651 436 605 436 c 0
 549.528605921 436 504 405.37158743 504 348 c 2
 504 0 l 1
 383 0 l 1
 383 355 l 2
 383 406.476358126 340.603190801 436 290 436 c 0xdc
EndSplineSet
EndChar

StartChar: n
Encoding: 110 110 81
Width: 585
Flags: W
HStem: -0 21G<69 190 403 525> 436 97<249.546 370.717>
VStem: 69 121<0 401.92 453 527> 403 122<0 403.095>
LayerCount: 2
Fore
SplineSet
304 436 m 0
 245.04987349 436 190 407.337282364 190 348 c 2
 190 0 l 1
 69 0 l 1
 69 527 l 1
 188 527 l 1
 188 453 l 1
 216.991135173 500.110594656 266.032965166 533 344 533 c 0
 416.936152495 533 468.915175065 501.78178078 499 454 c 0
 516 427 525 393 525 350 c 2
 525 -0 l 1
 403 -0 l 1
 403 336 l 2
 403 399.652857749 364.280319574 436 304 436 c 0
EndSplineSet
EndChar

StartChar: o
Encoding: 111 111 82
Width: 565
Flags: W
HStem: -10 93<214.945 351.651> 446 91<215.911 351.921>
VStem: 39 119<146.962 377.444> 407 119<147.652 381.084>
LayerCount: 2
Fore
SplineSet
284 -10 m 0
 178.443973097 -10 105.759173279 39.4816534412 69 113 c 0
 49 153 39 202 39 261 c 0
 39 376.855900186 79.9549478236 458.215237836 152 503 c 0
 189 526 233 537 284 537 c 0
 388.69287634 537 460.571169843 484.857660315 497 412 c 0
 517 372 526 321 526 261 c 0
 526 147.238390775 486.126453371 68.8030118759 416 24 c 0
 380 1 336 -10 284 -10 c 0
284 83 m 0
 377.945122675 83 407 168.363923589 407 265 c 0
 407 333.655323565 392.132058082 388.882615038 356 421 c 0
 338 437 314 446 284 446 c 0
 223.421193929 446 188.349267796 408.231218079 172 361 c 0
 163 335 158 303 158 265 c 0
 158 167.51289079 187.19193802 83 284 83 c 0
EndSplineSet
EndChar

StartChar: p
Encoding: 112 112 83
Width: 599
Flags: W
HStem: -10 91<261.555 385.719> 446 91<265.579 386.285> 507 20G<69 190.494>
VStem: 69 122<-181 85 152.359 380.124 446 527> 445 115<147.883 378.568>
LayerCount: 2
Fore
SplineSet
192 446 m 1xd8
 223.272570305 495.142610479 275.711474311 537 356 537 c 0xd8
 447.365600686 537 502.746604536 489.715690171 534 422 c 0
 552 383 560 332 560 269 c 0
 560 149.093014233 527.501605015 64.0635031344 457 20 c 0
 425 0 388 -10 345 -10 c 0
 283.00187957 -10 244.672231699 17.3605451307 215 50 c 0
 205 61 197 73 191 85 c 1
 191 -181 l 1
 69 -181 l 1
 69 527 l 1
 190 527 l 1xb8
 192 446 l 1xd8
318 446 m 0
 225.1246874 446 190 364.084111896 190 267 c 0
 190 196.097763767 208.865912241 138.112916008 247 106 c 0
 266 90 289 81 318 81 c 0
 355 81 385 96 409 125 c 0
 433 154 445 201 445 267 c 0
 445 365.601750789 409.199005019 446 318 446 c 0
EndSplineSet
EndChar

StartChar: q
Encoding: 113 113 84
Width: 599
Flags: W
HStem: -180 70<538.246 599> -168 58<573 599> -10 91<212.969 340.274> 447 90<214.246 333.859> 507 20G<408 530.199>
VStem: 39 115<148.478 379.026> 408 122<-104.753 85 149.761 380.183 446 527>
LayerCount: 2
Fore
SplineSet
243 537 m 0x36
 323.360244876 537 376.71922606 495.155501906 408 446 c 1
 408 527 l 1
 530 527 l 1
 536 -76 l 2
 537 -97 549 -109 573 -110 c 2
 599 -110 l 1xae
 600 -168 l 1x66
 573 -175 l 2
 561 -178 531 -180 484 -180 c 0
 434 -180 410 -156 410 -108 c 2
 408 85 l 1
 382.054207327 33.1084146537 331.307970705 -10 254 -10 c 0
 159.688035673 -10 101.09591204 37.3243957044 68 107 c 0
 49 147 39 201 39 269 c 0
 39 381.328270029 69.1568215417 463.771214361 134 507 c 0xae
 164 527 201 537 243 537 c 0x36
154 267 m 0
 154 163.474615142 188.237672321 81 282 81 c 0
 342.448515913 81 379.33074212 123.251197706 395 172 c 0
 404 200 409 231 409 267 c 0
 409 363.247877024 373.78757234 447 282 447 c 0x36
 246 447 215 432 191 403 c 0
 167 374 154 329 154 267 c 0
EndSplineSet
EndChar

StartChar: r
Encoding: 114 114 85
Width: 398
Flags: W
HStem: 0 21G<69 190> 420 117<264.004 373.713> 507 20G<69 186>
VStem: 69 121<0 378.7 415 527>
LayerCount: 2
Fore
SplineSet
344 537 m 0xd0
 354.616297286 537 367.99133994 536.005773373 374 532 c 1
 374 416 l 1
 369 418 365 420 360 420 c 2
 345 420 l 2xd0
 336.178596615 420.705712271 327.711259992 421.063236255 319.599945727 421.063236255 c 0
 260.731707251 421.063236255 220.615870484 402.231740968 200 361 c 0
 193 347 190 329 190 310 c 2
 190 0 l 1
 69 0 l 1
 69 527 l 1
 186 527 l 1xb0
 186 415 l 1
 201.597246388 465.69105076 232.084280713 501.08775272 276 522 c 0
 297 532 319 537 344 537 c 0xd0
EndSplineSet
EndChar

StartChar: s
Encoding: 115 115 86
Width: 518
Flags: W
HStem: -10 86<185.701 346.693> 453 84<185.551 331.755>
VStem: 56 108<346.143 431.956> 367 106<97.5683 190.537>
LayerCount: 2
Fore
SplineSet
262 453 m 0
 211.175907253 453 164 434.284886859 164 386 c 0
 164 370 172 357 186 346 c 0
 199 336 219 328 248 321 c 2
 342 298 l 2
 404.77490221 283.513484105 452.076509699 249.693961204 467 190 c 0
 471 174 473 160 473 148 c 0
 473 74.091059099 429.46066518 32.2576983014 374 9 c 0
 343 -4 307 -10 264 -10 c 0
 163.164810932 -10 87.1490490285 30.9663235103 54 102 c 1
 47 120 l 1
 47 122 l 1
 149 148 l 1
 164.265235898 102.204292305 204.37003765 76 263 76 c 0
 316.711118922 76 367 92.1757088146 367 142 c 0
 367 186.384771142 341.306896373 199.394396589 300 208 c 2
 202 230 l 2
 123.33272411 247.878926339 56 287.124806442 56 378 c 0
 56 449.792604355 95.4231937482 491.804022983 149 516 c 0
 180 530 218 537 264 537 c 0
 322 537 366 526 396 505 c 0
 431 481 453 452 460 420 c 2
 461 417 l 1
 360 392 l 1
 357 407 347 421 330 435 c 0
 315 447 291 453 262 453 c 0
EndSplineSet
EndChar

StartChar: t
Encoding: 116 116 87
Width: 413
Flags: W
HStem: -4 88<253.171 365.008> 6 78<282.626 366> 441 87<42 126 248 363>
VStem: 126 122<87.9566 441 528 690>
LayerCount: 2
Fore
SplineSet
281 -4 m 0xb0
 177.109834007 -4 126 30.3586375232 126 130 c 2
 126 441 l 1
 42 441 l 1
 42 527 l 1
 130 527 l 1
 128 690 l 1
 248 690 l 1
 248 528 l 1
 363 528 l 1
 363 441 l 1
 248 441 l 1
 248 134 l 2
 248 92.0614476911 260.91921778 84 302 84 c 2xb0
 366 84 l 1
 366 6 l 1x70
 344.958293517 -3.01787420687 315.779007082 -4 281 -4 c 0xb0
EndSplineSet
EndChar

StartChar: u
Encoding: 117 117 88
Width: 581
Flags: W
HStem: -10 90<219.431 351.561> -0 21G<423.426 520> 507 20G<62 184 399 520>
VStem: 62 122<113.192 527> 399 121<114.13 527> 426 94<0 54.3846>
LayerCount: 2
Fore
SplineSet
413 101 m 1x74
 397.495781992 28.64698263 343.069271274 -10 259 -10 c 0
 172.80128834 -10 108.190062728 30.3644257011 78 88 c 0
 67 109 62 134 62 162 c 2
 62 527 l 1
 184 527 l 1
 184 176 l 2
 184 114.613915302 226.151843322 80 291 80 c 0
 355.999010527 80 399 115.00486531 399 180 c 2
 399 527 l 1
 520 527 l 1xb8
 520 -0 l 1
 426 -0 l 1
 413 101 l 1x74
EndSplineSet
EndChar

StartChar: v
Encoding: 118 118 89
Width: 512
Flags: W
HStem: 0 21G<200.789 311.249> 507 20G<18 135.667 376.387 495>
LayerCount: 2
Fore
SplineSet
495 527 m 1
 304 0 l 1
 208 0 l 1
 18 527 l 1
 129 527 l 1
 253 155 l 1
 260 155 l 1
 383 527 l 1
 495 527 l 1
EndSplineSet
EndChar

StartChar: w
Encoding: 119 119 90
Width: 789
Flags: W
HStem: 0 21G<179.776 293.876 492.011 609.224> 507 20G<22 137.918 344.247 443.918 650.301 767>
LayerCount: 2
Fore
SplineSet
767 527 m 1
 603 0 l 1
 498 0 l 1
 392 354 l 1
 288 0 l 1
 186 0 l 1
 22 527 l 1
 132 527 l 1
 240 162 l 1
 245 162 l 1
 350 527 l 1
 438 527 l 1
 546 162 l 1
 552 162 l 1
 656 527 l 1
 767 527 l 1
EndSplineSet
EndChar

StartChar: x
Encoding: 120 120 91
Width: 576
Flags: W
HStem: 0 21G<24 166.783 409.217 553> 507 20G<40 183.783 393.093 538>
LayerCount: 2
Fore
SplineSet
553 0 m 1
 424 0 l 1
 288 184 l 1
 152 0 l 1
 24 0 l 1
 222 274 l 1
 40 527 l 1
 169 527 l 1
 288 366 l 1
 408 527 l 1
 538 527 l 1
 354 274 l 1
 553 0 l 1
EndSplineSet
EndChar

StartChar: y
Encoding: 121 121 92
Width: 549
Flags: W
HStem: -165 91.6698<47.3125 182.561> -157 85<67 134.46> 507 20G<18 146.385 405.615 532>
LayerCount: 2
Fore
SplineSet
136 -165 m 0xa0
 103 -165 80 -162 67 -157 c 2
 47 -150 l 1
 47 -72 l 1x60
 99 -73 l 2
 103.826588155 -73.2193903707 108.421797145 -73.3301921939 112.801668734 -73.3301921939 c 0
 166.157089635 -73.3301921939 187.556407583 -56.8871848344 206 -20 c 1
 219 18 l 1
 18 527 l 1
 139 527 l 1
 276 156 l 1
 413 527 l 1
 532 527 l 1
 319 -19 l 2
 304 -57 287 -87 267 -109 c 0
 235.726066086 -145.486256233 197.111132992 -165 136 -165 c 0xa0
EndSplineSet
EndChar

StartChar: z
Encoding: 122 122 93
Width: 485
Flags: W
HStem: 0 86<181 455> 440 87<47 306>
LayerCount: 2
Fore
SplineSet
34 0 m 1
 34 70 l 1
 306 440 l 1
 47 440 l 1
 47 527 l 1
 452 527 l 1
 452 456 l 1
 181 86 l 1
 455 86 l 1
 455 0 l 1
 34 0 l 1
EndSplineSet
EndChar

StartChar: braceleft
Encoding: 123 123 94
Width: 358
Flags: W
HStem: -161 72<232.69 328> 252 65<10 88.9752> 651 72<235.043 328>
VStem: 124 102<-81.1598 218.241 350.696 641.253>
LayerCount: 2
Fore
SplineSet
10 317 m 1
 79.6568688327 317 124 347.383156672 124 412 c 2
 124 612 l 2
 124 686.737347043 191.144220524 723 266 723 c 2
 328 723 l 1
 328 651 l 1
 288 651 l 2
 245.891406074 651 226 638.925841396 226 599 c 2
 226 394 l 2
 223.272083721 328.530009304 182.872478941 294.359059868 124 287 c 0
 120 287 117 286 117 284 c 0
 117 282 120 282 124 281 c 0
 159.787010362 278.763311852 193.764442695 260.976891688 210 235 c 0
 220 219 225 198 226 171 c 2
 226 -36 l 2
 226 -76.4213876641 244.5505246 -89 288 -89 c 2
 328 -89 l 1
 328 -161 l 1
 268 -161 l 2
 190.500791542 -161 124 -125.14963962 124 -48 c 2
 124 161 l 2
 124 221.741535809 73.7939543463 252 10 252 c 1
 10 317 l 1
EndSplineSet
Substitution2: "'rtla' Right to Left Alternates lookup 0 subtable" braceright
EndChar

StartChar: bar
Encoding: 124 124 95
Width: 266
Flags: W
VStem: 88 90<-161 826>
LayerCount: 2
Fore
SplineSet
178 -161 m 1
 88 -161 l 1
 88 826 l 1
 178 826 l 1
 178 -161 l 1
EndSplineSet
EndChar

StartChar: braceright
Encoding: 125 125 96
Width: 360
Flags: W
HStem: -161 72<56 111.96> 252 65<255.52 334> 651 72<56 109.957>
VStem: 118 103<-81.1598 -36 161 218.266 348.209 412 599 643.85>
LayerCount: 2
Fore
SplineSet
334 317 m 1
 264.021988676 317 221 346.860828807 221 412 c 2
 221 612 l 2
 221 686.737347043 153.855779476 723 79 723 c 2
 16 723 l 1
 16 651 l 1
 56 651 l 2
 98.2579733201 651 119 638.538959446 119 599 c 2
 119 394 l 2
 121.744378664 328.134912053 161.635763378 294.420529578 221 287 c 0
 225 287 227 286 227 284 c 0
 227 282 225 282 221 281 c 0
 158.579889007 277.098743063 120.493631814 238.328058982 118 171 c 2
 118 -36 l 2
 118 -77.375857686 100.259622012 -89 56 -89 c 2
 16 -89 l 1
 16 -161 l 1
 77 -161 l 2
 154.499208458 -161 221 -125.14963962 221 -48 c 2
 221 161 l 2
 221 221.798446813 270.253901266 252 334 252 c 1
 334 317 l 1
EndSplineSet
Substitution2: "'rtla' Right to Left Alternates lookup 0 subtable" braceleft
EndChar

StartChar: asciitilde
Encoding: 126 126 97
Width: 592
Flags: W
HStem: 296 80<316.61 454.691> 354 79<138.564 279.468>
LayerCount: 2
Fore
SplineSet
390 376 m 0x80
 440.205140167 376 473.779237803 407.74973115 494 439 c 1
 530 376 l 1
 503.583069978 331.971783297 456.862726763 296 391 296 c 0x80
 351.071700203 296 319.299820655 309.971531054 293 325 c 0
 268.168382138 339.189495921 241.024492992 354 205 354 c 0
 151.875018095 354 118.773288283 317.558174169 92 289 c 1
 58 353 l 1
 80 375 101 393 124 409 c 0
 147 425 174 433 205 433 c 0x40
 264.891958027 433 301.554893563 402.190759902 344 384 c 0
 358 378 374 376 390 376 c 0x80
EndSplineSet
EndChar

StartChar: exclamdown
Encoding: 161 161 99
Width: 265
Flags: W
HStem: 379 138<62 198>
VStem: 62 136<379 517> 92 78<213.824 311>
LayerCount: 2
Fore
SplineSet
198 379 m 1xc0
 62 379 l 1
 62 517 l 1
 198 517 l 1
 198 379 l 1xc0
202 -161 m 1
 58 -161 l 1
 92 311 l 1
 170 311 l 1xa0
 202 -161 l 1
EndSplineSet
EndChar

StartChar: cent
Encoding: 162 162 100
Width: 553
Flags: W
HStem: 0 189<257.069 336.967> 543 180<255.727 334.759>
VStem: 50 114<259.878 477.209> 254 83<0 106.805 632.034 723> 405 101<232.855 282 451 499.462>
LayerCount: 2
Fore
SplineSet
164 368 m 0
 164 269.169708678 203.493434632 189 297 189 c 0
 339.922345372 189 370.967941381 212.505686593 388 239 c 0
 397 253 403 268 405 282 c 1
 506 282 l 1
 499.455186905 205.64384723 456.998324406 153.418490016 400 124 c 0
 380.641084501 114.008301678 359.7222622 107.526393662 337 104.067209758 c 1
 337 0 l 1
 254 0 l 1
 254 103.597216248 l 1
 171.817651644 114.677301808 114.339298546 159.496574199 81 223 c 0
 60 263 50 312 50 368 c 0
 50 481.052907573 93.9117874909 559.221419786 164 604 c 0
 190.060591689 620.649822468 220.313494732 631.011177907 254 635.46342088 c 1
 254 723 l 1
 337 723 l 1
 337 634.615654151 l 1
 433.484111743 618.683470759 495.932047015 550.611576866 507 451 c 1
 404 451 l 1
 394.267841805 502.904843708 357.672471841 543 295 543 c 0
 203.069886089 543 164 469.229279878 164 368 c 0
EndSplineSet
Substitution2: "<6,0> Monospaced Numbers in Latin lookup 14 subtable" cent.tf
EndChar

StartChar: sterling
Encoding: 163 163 101
Width: 632
Flags: W
HStem: 0 104<18 112.159 212 444.869> 342 70<29 116 268 412> 634 99<271.922 401.593>
VStem: 100.622 139.378<413.597 603.407> 141 132<159.031 339.852>
LayerCount: 2
Fore
SplineSet
588 160 m 1xe8
 558.393907222 61.9298176718 494.899996182 0 373 0 c 2
 18 0 l 1
 18 102 l 1
 54 102 l 2
 79 102 100 112 116 130 c 0
 132 148 141 178 141 220 c 0xe8
 141 266.934809314 136.811751546 293.317739179 130 341 c 1
 29 341 l 1
 29 412 l 1
 116 412 l 1
 104 498 l 2
 101.706367386 512.526339886 100.622463486 526.274635916 100.622463486 539.27449908 c 0xf0
 100.622463486 597.77157484 122.569785222 641.114081164 155 672 c 0
 193.314558465 708.490055681 248.603712874 733 320 733 c 0
 392.816003121 733 451.037944509 706.329141355 491 670 c 0
 513 650 529 628 540 601 c 1
 434 566 l 1
 414.732267429 606.287077193 392.444584128 634 338 634 c 0
 277.755617846 634 240 598.169088668 240 537 c 0
 240 494.380025788 249.142430985 451.43027606 259 412 c 1
 412 412 l 1
 412 342 l 1
 268 342 l 1
 271 319 273 298 273 282 c 0
 273 200.030585326 253.939524907 141.279577695 212 104 c 1
 364 104 l 2
 436.049305604 104 463.199883384 129.163328923 484 184 c 1
 588 160 l 1xe8
EndSplineSet
Substitution2: "<6,0> Monospaced Numbers in Latin lookup 14 subtable" sterling.tf
EndChar

StartChar: currency
Encoding: 164 164 102
Width: 560
Flags: W
HStem: 158 85<208.839 346.834> 485 83<209.561 345.64>
VStem: 72 84<296.257 431.017> 398 83<294.812 432.486>
LayerCount: 2
Fore
SplineSet
393 196 m 1
 362.077129303 175.991083667 326.048064969 158 278 158 c 0
 238 158 202 169 169 190 c 0
 163 194 158 193 154 188 c 2
 98 130 l 1
 44 186 l 1
 107 249 l 1
 85.685311019 280.972033472 72 314.118079016 72 363 c 0
 72 403 82 439 102 470 c 0
 105 476 104 481 100 485 c 2
 44 542 l 1
 98 597 l 1
 162 532 l 1
 190.875811006 551.852120067 229.643038688 568 276 568 c 0
 316 568 353 557 386 536 c 0
 391 533 395 535 398 538 c 2
 452 592 l 1
 506 538 l 1
 446 478 l 1
 465.849860087 447.322943502 481 411.468087985 481 364 c 0
 481 320.990892951 468.460160255 281.536582166 449 255 c 0
 447 251 447 248 450 246 c 2
 506 191 l 1
 452 136 l 1
 393 196 l 1
278 243 m 0
 327.512529579 243 363.605152752 270.889274954 382 304 c 0
 392 322 398 343 398 364 c 0
 398 411.323074963 370.780906266 447.479395822 340 468 c 0
 322 480 301 485 278 485 c 0
 227.350831106 485 191.986222644 455.704727962 172 423 c 0
 161 405 156 385 156 364 c 0
 156 315.32996694 183.939449333 279.592558741 216 260 c 0
 234 249 255 243 278 243 c 0
EndSplineSet
EndChar

StartChar: yen
Encoding: 165 165 103
Width: 637
Flags: W
HStem: 0 21G<252 391> 122 69<102 252 391 542> 274 70<102 226.76 406.285 542> 703 20G<-1 168.494 498.571 638>
VStem: 252 139<0 122 191.657 274>
LayerCount: 2
Fore
SplineSet
542 192 m 1
 542 122 l 1
 391 122 l 1
 391 0 l 1
 252 0 l 1
 252 122 l 1
 102 122 l 1
 102 191 l 1
 252 191.340909091 l 1
 252 274 l 1
 102 274 l 1
 102 344 l 1
 226.760095012 344 l 1
 -1 723 l 1
 157 723 l 1
 334 415 l 1
 510 723 l 1
 638 723 l 1
 406.284653465 344 l 1
 542 344 l 1
 542 274 l 1
 391 274 l 1
 391 191.656818182 l 1
 542 192 l 1
EndSplineSet
Substitution2: "<6,0> Monospaced Numbers in Latin lookup 14 subtable" yen.tf
EndChar

StartChar: brokenbar
Encoding: 166 166 104
Width: 266
Flags: W
VStem: 88 90<-161 244 422 826>
LayerCount: 2
Fore
SplineSet
178 422 m 1
 88 422 l 1
 88 826 l 1
 178 826 l 1
 178 422 l 1
178 -161 m 1
 88 -161 l 1
 88 244 l 1
 178 244 l 1
 178 -161 l 1
EndSplineSet
EndChar

StartChar: section
Encoding: 167 167 105
Width: 502
Flags: W
HStem: -75 78<168.379 333.331> 655 78<174.488 320.134>
VStem: 43 101<304.001 393.221> 48 110<555.941 637.145> 353 110<23.0439 109.589 267.516 366.175>
LayerCount: 2
Fore
SplineSet
248 655 m 0xd8
 201.396739423 655 158 638.164666681 158 596 c 0xd8
 158 583 164 571 175 560 c 0
 186 549 202 540 224 531 c 2
 304 500 l 2
 358 479 398 456 422 430 c 0
 446 404 458 373 458 336 c 0
 458 304 450 277 434 257 c 0
 418 237 398 219 374 206 c 1
 404 189 426 171 441 151 c 0
 456 131 463 108 463 80 c 0
 463 11.9119374654 420.444488951 -33.0071497947 368 -55 c 0
 337 -68 299 -75 255 -75 c 0
 181.595418299 -75 120.214189693 -52.4693054509 80 -18 c 0
 59 0 42 19 31 41 c 1
 108 80 l 1
 135.808220732 38.2876689015 184.218563503 3 254 3 c 0
 302.711415102 3 353 19.6692759166 353 65 c 0
 353 80 347 93 335 106 c 0
 323 119 300 133 266 146 c 2
 185 176 l 2
 135 195 99 216 77 240 c 0
 55 264 43 295 43 330 c 0xe8
 43 396.378048693 86.7965953331 438.576264593 135 460 c 1
 88.1713939515 486.468342549 48 519.003443155 48 585 c 0
 48 649.715954923 91.1480439915 692.100847307 140 714 c 0
 169 727 203 733 243 733 c 0
 309.055174013 733 364.586698573 709.66383278 401 679 c 0
 420 663 436 645 446 627 c 1
 369 588 l 1
 341.899536599 620.520556081 305.585208588 655 248 655 c 0xd8
280 248 m 2
 281.952261193 247.869849254 283.886458804 247.805618769 285.800009273 247.805618769 c 0
 324.78387736 247.805618769 355.198354245 274.463843117 355.198354245 313.49253364 c 0
 355.198354245 315.302233644 355.132962103 317.138530564 355 319 c 0
 354 336 348 351 337 364 c 0
 326 377 305 388 275 400 c 2
 226 420 l 1
 193.263661552 418.074333032 167.540928844 401.278602469 154 380 c 0
 147 369 144 358 144 346 c 0xe8
 144 330 149 317 160 306 c 0
 171 295 193 283 226 270 c 2
 280 248 l 2
EndSplineSet
EndChar

StartChar: dieresis
Encoding: 168 168 106
Width: 342
Flags: W
HStem: 586 129<19.7999 111.118 235.999 326.31>
VStem: 0 128<602.99 695.051> 216 127<603.086 695.051>
LayerCount: 2
Fore
SplineSet
64 586 m 0
 29.9168240722 586 0 615.42767052 0 650 c 0
 0 680.387578856 31.4663753899 715 64 715 c 0
 98.6155016414 715 128 685.068808089 128 650 c 0
 128 615.692558128 99.1648364259 586 64 586 c 0
279 586 m 0
 245.41082767 586 216 615.966654526 216 650 c 0
 216 680.387578856 247.46637539 715 280 715 c 0
 314.113783495 715 343 684.522100047 343 650 c 0
 343 615.692558128 314.164836426 586 279 586 c 0
EndSplineSet
EndChar

StartChar: copyright
Encoding: 169 169 107
Width: 824
Flags: W
HStem: -10 73<292.374 526.368> 156 68<359.328 481.382> 504 68<357.596 466.203> 662 71<296.132 522.638>
VStem: 38 78<241.079 481.957> 216 101<269.805 458.714> 702 79<239.173 483.882>
LayerCount: 2
Fore
SplineSet
410 -10 m 0
 297.101897521 -10 206.153274724 37.8467252758 146 98 c 0
 85.6447164847 158.355283515 38 248.476156538 38 362 c 0
 38 474.569471751 86.0560505429 564.056050543 146 624 c 0
 206.628750734 684.628750734 296.041161893 733 410 733 c 0
 522.756045537 733 611.914762581 684.085237419 672 624 c 0
 732.419291945 563.580708055 781 475.625263995 781 362 c 0
 781 247.582547586 732.709503953 158.709503953 672 98 c 0
 612.262896709 38.2628967091 521.870332067 -10 410 -10 c 0
410 63 m 0
 500.31717779 63 569.524496288 97.3198853144 618 144 c 0
 668.466846928 192.59770445 702 265.799450255 702 362 c 0
 702 456.375530789 667.80548372 531.039163825 618 579 c 0
 569.393562599 625.806198979 500.372177107 662 410 662 c 0
 319.054207377 662 247.640562354 626.640562354 200 579 c 0
 151.078421278 530.078421278 116 457.088218605 116 362 c 0
 116 265.127744485 150.476172761 193.523827239 200 144 c 0
 247.590141467 96.4098585329 318.993343788 63 410 63 c 0
420 224 m 0
 473.216889508 224 500.646002237 259.051458816 520 296 c 1
 583 278 l 1
 564.161358916 229.019533182 526.108313746 188.677184735 477 168 c 0
 458 160 436 156 412 156 c 0
 327.820471008 156 273.180632269 198.14119998 242 255 c 0
 225 286 216 322 216 363 c 0
 216 448.448289388 255.773945067 512.86436704 311 546 c 0
 341 564 374 572 412 572 c 0
 475.314564298 572 518.842755843 542.988692989 548 508 c 0
 563 490 575 470 583 450 c 1
 496 437 l 1
 488 455 477 471 465 484 c 0
 453 497 437 504 416 504 c 0
 346.900721068 504 317 441.316692168 317 365 c 0
 317 285.911695447 347.830210347 224 420 224 c 0
EndSplineSet
EndChar

StartChar: ordfeminine
Encoding: 170 170 108
Width: 417
Flags: W
HStem: 396 53<129.816 223.35> 552 46<142.832 255> 678 54<137.203 245.421>
VStem: 43 80<456.869 532.744> 255 78<468.077 555 601 666.755>
LayerCount: 2
Fore
SplineSet
198 732 m 0
 281.369703244 732 333 702.004687447 333 626 c 2
 333 485 l 2
 333 477 335 468 335 459 c 0
 335 450 336 442 337 435 c 2
 343 402 l 1
 263 402 l 1
 255 441 l 1
 237 426 221 415 205 408 c 0
 189 401 171 396 150 396 c 0
 87.8037756202 396 43 427.835711369 43 487 c 0
 43 519 58 545 87 565 c 0
 116 585 156 596 209 598 c 2
 255 601 l 1
 255 623 l 2
 255 661.394492756 230.687740611 678 194 678 c 0
 157.009181711 678 135.426598279 661.853196559 121 633 c 1
 51 650 l 1
 63 677 81 696 103 710 c 0
 125 724 157 732 198 732 c 0
123 492 m 0
 123 462.950601515 149.29455718 449 180 449 c 0
 202 449 220 456 236 470 c 0
 245.708768965 478.090640804 255 488.096947726 255 504 c 2
 255 555 l 1
 217 552 l 2
 169.549162466 548.836610831 123 535.780126833 123 492 c 0
EndSplineSet
EndChar

StartChar: guillemotleft
Encoding: 171 171 109
Width: 479
Flags: W
LayerCount: 2
Fore
SplineSet
330 251 m 1
 420 67 l 1
 354 67 l 1
 230 251 l 1
 354 443 l 1
 421 443 l 1
 330 251 l 1
146 251 m 1
 236 67 l 1
 170 67 l 1
 46 251 l 1
 170 443 l 1
 236 443 l 1
 146 251 l 1
EndSplineSet
EndChar

StartChar: logicalnot
Encoding: 172 172 110
Width: 573
Flags: W
HStem: 318 90<60 413.297>
VStem: 414 100<171 318>
LayerCount: 2
Fore
SplineSet
413.296650718 318 m 1
 60 318 l 1
 60 408 l 1
 514 409 l 1
 514 380 l 1
 514 318 l 1
 514 171 l 1
 414 171 l 1
 413.296650718 318 l 1
EndSplineSet
EndChar

StartChar: uni00AD
Encoding: 173 173 111
Width: 386
Flags: W
HStem: 212 91<61 325>
VStem: 61 264<212 303>
LayerCount: 2
Fore
SplineSet
325 304 m 1
 325 212 l 1
 61 212 l 1
 61 303 l 1
 325 304 l 1
EndSplineSet
EndChar

StartChar: registered
Encoding: 174 174 112
Width: 546
Flags: W
HStem: 268 52<181.31 359.55> 486 38<230 276> 577 37<230 315.254> 681 52<180.204 359.45>
VStem: 38 57<406.364 594.991> 179 51<384 486 524 577> 317 53<525.411 574.83> 446 57<406.552 593.126>
LayerCount: 2
Fore
SplineSet
271 268 m 0
 175.524046311 268 106.677176357 320.204706071 69 383 c 0
 48 418 38 457 38 500 c 0
 38 595.475953689 90.2047060713 664.322823643 153 702 c 0
 188 723 228 733 271 733 c 0
 365.890102476 733 434.52765982 680.4539003 472 618 c 0
 493 583 503 543 503 500 c 0
 503 405.109897524 450.4539003 336.47234018 388 299 c 0
 353 278 314 268 271 268 c 0
271 320 m 0
 344.123080024 320 396.809264046 356.056675282 424 405 c 0
 439 432 446 464 446 500 c 0
 446 576.472544085 411.676743652 629.340340201 362 658 c 0
 336 673 306 681 271 681 c 0
 162.271038998 681 95 608.855092251 95 500 c 0
 95 423.956948236 128.401226501 371.614677019 178 343 c 0
 204 328 236 320 271 320 c 0
370 554 m 0
 370 520.091134489 345.708169947 501.878404145 322 492 c 1
 368 384 l 1
 312 384 l 1
 276 486 l 1
 230 486 l 1
 230 384 l 1
 179 384 l 1
 179 614 l 1
 286 614 l 2
 333.320030774 614 370 598.326212081 370 554 c 0
317 550 m 0
 317 570.418530179 301.433634694 577 278 577 c 2
 230 577 l 1
 230 524 l 1
 282 524 l 2
 301.157311725 524 317 531.010243448 317 550 c 0
EndSplineSet
EndChar

StartChar: macron
Encoding: 175 175 113
Width: 363
Flags: W
HStem: 610 80<16 342>
VStem: 16 326<610 690>
LayerCount: 2
Fore
SplineSet
342 690 m 1
 342 610 l 1
 16 610 l 1
 16 690 l 1
 342 690 l 1
EndSplineSet
EndChar

StartChar: degree
Encoding: 176 176 114
Width: 469
Flags: W
HStem: 510 72<171.878 289.667> 762 74<171.124 289.161>
VStem: 70 74<610.369 734.738> 316 78<609.203 735.071>
LayerCount: 2
Fore
SplineSet
394 673 m 0
 394 604.473502144 359.817680036 557.143646687 315 531 c 0
 291 517 263 510 232 510 c 0
 163.999245654 510 116.077783317 544.2952286 90 589 c 0
 76 613 70 641 70 673 c 0
 70 742.527993013 102.703870623 789.577257863 148 816 c 0
 172 830 201 836 232 836 c 0
 299.819288259 836 347.527576838 803.486469932 373 758 c 0
 387 733 394 705 394 673 c 0
231 582 m 0
 284.312611788 582 316 618.811810396 316 672 c 0
 316 724.635293842 283.44302887 762 230 762 c 0
 177.364706158 762 144 724.643349868 144 672 c 0
 146.00358285 619.90684589 176.570552393 582 231 582 c 0
EndSplineSet
EndChar

StartChar: plusminus
Encoding: 177 177 115
Width: 573
Flags: W
HStem: 46 90<60 514> 400 90<60 242 332 514>
VStem: 242 90<218 400 490 672>
LayerCount: 2
Fore
SplineSet
514 136 m 1
 514 46 l 1
 60 46 l 1
 60 136 l 1
 514 136 l 1
332 218 m 1
 242 218 l 1
 242 400 l 1
 60 400 l 1
 60 490 l 1
 242 490 l 1
 242 672 l 1
 332 672 l 1
 332 490 l 1
 514 490 l 1
 514 400 l 1
 332 400 l 1
 332 218 l 1
EndSplineSet
EndChar

StartChar: uni00B2
Encoding: 178 178 116
Width: 380
Flags: W
HStem: 374.29 64.5752<147.45 344.01> 775.6 61.1104<130.422 241.483>
VStem: 260.22 74.3398<624.098 755.721>
LayerCount: 2
Back
SplineSet
83.189453125 465.639648438 m 6
 123.509765625 500.5 155.325195312 529.165039062 178.634765625 551.634765625 c 4
 201.9453125 574.104492188 221.370117188 597.520507812 236.91015625 621.879882812 c 4
 252.44921875 646.239257812 260.219726562 670.600585938 260.219726562 694.959960938 c 4
 260.219726562 720.16015625 254.235351562 739.900390625 242.264648438 754.1796875 c 4
 230.294921875 768.459960938 211.499023438 775.599609375 185.879882812 775.599609375 c 4
 161.099609375 775.599609375 141.884765625 767.724609375 128.235351562 751.974609375 c 4
 115.630859375 737.431640625 108.487304688 718.321289062 106.805664062 694.64453125 c 4
 35.8544921875 712.290039062 l 4
 40.626953125 748.772460938 54.41015625 777.540039062 77.205078125 798.594726562 c 4
 104.71484375 824.005859375 149.129882812 836.709960938 191.549804688 836.709960938 c 4
 237.329101562 836.709960938 269.985351562 824.110351562 295.814453125 798.91015625 c 4
 321.64453125 773.709960938 334.559570312 740.109375 334.559570312 698.110351562 c 4
 334.559570312 667.870117188 326.895507812 638.78515625 311.564453125 610.85546875 c 4
 296.234375 582.924804688 277.96484375 557.934570312 256.754882812 535.884765625 c 4
 235.544921875 513.834960938 208.559570312 488.3203125 175.799804688 459.33984375 c 6
 147.450195312 438.865234375 l 5
 344.009765625 438.865234375 l 5
 344.009765625 374.290039062 l 5
 37.830078125 374.290039062 l 5
 37.830078125 426.580078125 l 5
 83.189453125 465.639648438 l 6
EndSplineSet
Fore
SplineSet
83.189453125 465.639648438 m 2
 123.509765625 500.5 155.325195312 529.165039062 178.634765625 551.634765625 c 0
 201.9453125 574.104492188 221.370117188 597.520507812 236.91015625 621.879882812 c 0
 252.44921875 646.239257812 260.219726562 670.600585938 260.219726562 694.959960938 c 0
 260.219726562 720.16015625 254.235351562 739.900390625 242.264648438 754.1796875 c 0
 230.294921875 768.459960938 211.499023438 775.599609375 185.879882812 775.599609375 c 0
 161.099609375 775.599609375 141.884765625 767.724609375 128.235351562 751.974609375 c 0
 115.630859375 737.431640625 108.487304688 718.321289062 106.805664062 694.64453125 c 1
 35.8544921875 712.290039062 l 1
 40.626953125 748.772460938 54.41015625 777.540039062 77.205078125 798.594726562 c 0
 104.71484375 824.005859375 149.129882812 836.709960938 191.549804688 836.709960938 c 0
 237.329101562 836.709960938 269.985351562 824.110351562 295.814453125 798.91015625 c 0
 321.64453125 773.709960938 334.559570312 740.109375 334.559570312 698.110351562 c 0
 334.559570312 667.870117188 326.895507812 638.78515625 311.564453125 610.85546875 c 0
 296.234375 582.924804688 277.96484375 557.934570312 256.754882812 535.884765625 c 0
 235.544921875 513.834960938 208.559570312 488.3203125 175.799804688 459.33984375 c 1
 147.450195312 438.865234375 l 1
 344.009765625 438.865234375 l 1
 344.009765625 374.290039062 l 1
 37.830078125 374.290039062 l 1
 37.830078125 426.580078125 l 1
 83.189453125 465.639648438 l 2
EndSplineSet
EndChar

StartChar: uni00B3
Encoding: 179 179 117
Width: 414
Flags: W
HStem: 367.812 62.6846<142.383 269.611> 578.434 62.0586<158.106 257.217> 773.384 60.8047<139.512 263.753>
VStem: 39.0039 73.3418<462.113 493.663 708.408 745.156> 281.595 82.1182<664.877 756.013> 292.878 82.1182<453.179 553.303>
LayerCount: 2
Back
SplineSet
200.104492188 430.49609375 m 4xf4
 250.748046875 430.49609375 292.877929688 454.092773438 292.877929688 503.2109375 c 4xf4
 292.877929688 534.221679688 272.516601562 558.72265625 248.372070312 567.77734375 c 4
 233.328125 573.418945312 218.91015625 576.552734375 200.104492188 577.1796875 c 6
 158.106445312 578.43359375 l 5
 158.106445312 640.4921875 l 5
 196.970703125 641.745117188 l 6
 215.149414062 642.372070312 227.686523438 646.133789062 241.477539062 652.401367188 c 4
 255.267578125 658.669921875 262.790039062 666.819335938 270.311523438 676.849609375 c 4
 277.834960938 686.877929688 281.594726562 699.416015625 281.594726562 711.952148438 c 4
 281.594726562 736.935546875 263.884765625 757.653320312 243.984375 765.234375 c 4
 230.8203125 770.249023438 218.283203125 773.383789062 200.104492188 773.383789062 c 4
 149.282226562 773.383789062 117.103515625 742.213867188 115.479492188 691.892578125 c 5
 42.765625 710.072265625 l 5
 48.6357421875 764.375976562 80.935546875 799.745117188 123.62890625 817.890625 c 4
 148.703125 828.546875 170.015625 834.188476562 200.731445312 834.188476562 c 4
 263.037109375 834.188476562 313.666015625 815.122070312 341.772460938 780.905273438 c 4
 356.190429688 763.354492188 363.712890625 740.788085938 363.712890625 714.459960938 c 4xf8
 363.712890625 691.892578125 356.817382812 672.4609375 343.026367188 654.909179688 c 4
 329.235351562 637.357421875 308.548828125 623.56640625 279.087890625 613.536132812 c 5
 315.5625 603.474609375 344.6015625 583.5234375 361.83203125 553.986328125 c 4
 370.607421875 538.94140625 374.99609375 521.390625 374.99609375 501.331054688 c 4
 374.99609375 454.658203125 350.869140625 422.473632812 321.713867188 402.2890625 c 4
 284.729492188 376.684570312 264.04296875 367.811523438 198.850585938 367.811523438 c 4
 133.650390625 367.811523438 85.0146484375 394.15234375 59.0634765625 434.2578125 c 4
 48.4072265625 451.182617188 41.51171875 470.615234375 39.00390625 491.927734375 c 5
 112.345703125 510.107421875 l 5
 123.547851562 465.296875 147.442382812 430.49609375 200.104492188 430.49609375 c 4xf4
EndSplineSet
Fore
SplineSet
200.104492188 430.49609375 m 0xf4
 250.748046875 430.49609375 292.877929688 454.092773438 292.877929688 503.2109375 c 0xf4
 292.877929688 534.221679688 272.516601562 558.72265625 248.372070312 567.77734375 c 0
 233.328125 573.418945312 218.91015625 576.552734375 200.104492188 577.1796875 c 2
 158.106445312 578.43359375 l 1
 158.106445312 640.4921875 l 1
 196.970703125 641.745117188 l 2
 215.149414062 642.372070312 227.686523438 646.133789062 241.477539062 652.401367188 c 0
 255.267578125 658.669921875 262.790039062 666.819335938 270.311523438 676.849609375 c 0
 277.834960938 686.877929688 281.594726562 699.416015625 281.594726562 711.952148438 c 0
 281.594726562 736.935546875 263.884765625 757.653320312 243.984375 765.234375 c 0
 230.8203125 770.249023438 218.283203125 773.383789062 200.104492188 773.383789062 c 0
 149.282226562 773.383789062 117.103515625 742.213867188 115.479492188 691.892578125 c 1
 42.765625 710.072265625 l 1
 48.6357421875 764.375976562 80.935546875 799.745117188 123.62890625 817.890625 c 0
 148.703125 828.546875 170.015625 834.188476562 200.731445312 834.188476562 c 0
 263.037109375 834.188476562 313.666015625 815.122070312 341.772460938 780.905273438 c 0
 356.190429688 763.354492188 363.712890625 740.788085938 363.712890625 714.459960938 c 0xf8
 363.712890625 691.892578125 356.817382812 672.4609375 343.026367188 654.909179688 c 0
 329.235351562 637.357421875 308.548828125 623.56640625 279.087890625 613.536132812 c 1
 315.5625 603.474609375 344.6015625 583.5234375 361.83203125 553.986328125 c 0
 370.607421875 538.94140625 374.99609375 521.390625 374.99609375 501.331054688 c 0
 374.99609375 454.658203125 350.869140625 422.473632812 321.713867188 402.2890625 c 0
 284.729492188 376.684570312 264.04296875 367.811523438 198.850585938 367.811523438 c 0
 133.650390625 367.811523438 85.0146484375 394.15234375 59.0634765625 434.2578125 c 0
 48.4072265625 451.182617188 41.51171875 470.615234375 39.00390625 491.927734375 c 1
 112.345703125 510.107421875 l 1
 123.547851562 465.296875 147.442382812 430.49609375 200.104492188 430.49609375 c 0xf4
EndSplineSet
EndChar

StartChar: acute
Encoding: 180 180 118
Width: 243
Flags: W
HStem: 578 145
VStem: 5 233
LayerCount: 2
Fore
SplineSet
108 723 m 1
 238 723 l 1
 95 578 l 1
 5 578 l 1
 108 723 l 1
EndSplineSet
EndChar

StartChar: uni00B5
Encoding: 181 181 119
Width: 588
Flags: W
HStem: -165 21G<62 186> 0 21G<404 525.075> 15.9517 90.0483<213.345 346.574> 510 20G<62 186 400 527>
VStem: 62 124<-165 36 133.177 530> 400 125<0 82 155.68 530>
LayerCount: 2
Fore
SplineSet
278 106 m 0xbc
 334.726455325 106 374.506283263 145.759424894 400 184 c 1
 400 530 l 1
 527 530 l 1
 525 0 l 1
 404 0 l 1xdc
 404 82 l 1
 381 61 360 45 342 35 c 0
 319.413845084 22.4521361578 291.703625062 15.9516515114 264.01462704 15.9516515114 c 0
 236.261365595 15.9516515114 208.529424775 22.4823451353 186 36 c 1
 186 -165 l 1
 62 -165 l 1
 62 530 l 1
 186 530 l 1
 186 186 l 2
 186 137.155689365 228.460853203 106 278 106 c 0xbc
EndSplineSet
EndChar

StartChar: paragraph
Encoding: 182 182 120
Width: 578
Flags: W
HStem: 652 71<324 378 455 517>
VStem: 39 285<410.318 604.878> 246 78<-83 298> 378 77<-83 652>
LayerCount: 2
Fore
SplineSet
517 652 m 1xd0
 455 652 l 1
 455 -83 l 1
 378 -83 l 1
 378 652 l 1
 324 652 l 1
 324 -83 l 1
 246 -83 l 1
 246 298 l 1xb0
 163.083293576 302.145835321 99.0531702102 343.075095749 66 400 c 0
 48 431 39 466 39 507 c 0
 39 595.212038262 83.4267432469 657.956907792 143 693 c 0
 177 713 219 723 270 723 c 2
 517 723 l 1
 517 652 l 1xd0
EndSplineSet
EndChar

StartChar: periodcentered
Encoding: 183 183 121
Width: 246
Flags: W
HStem: 300 128<52 186>
VStem: 52 134<300 428>
LayerCount: 2
Fore
SplineSet
186 428 m 1
 186 300 l 1
 52 300 l 1
 52 428 l 1
 186 428 l 1
EndSplineSet
EndChar

StartChar: cedilla
Encoding: 184 184 122
Width: 254
Flags: W
HStem: -209 46<27.8675 153.568> -87 92<103 136.43>
VStem: 156 78<-158.157 -97.4233>
LayerCount: 2
Fore
SplineSet
104 -163 m 0
 132.280969696 -163 156 -154.616485526 156 -129 c 0
 156 -115 149 -105 137 -98 c 0
 125 -91 103 -87 73 -87 c 0
 65.8253871748 -87 63.5311108141 -86.4066675577 66 -79 c 2
 103 5 l 1
 160 5 l 1
 138 -54 l 1
 180.428815492 -55.7678673122 209.65833858 -69.7069540638 224 -96 c 0
 230 -107 234 -119 234 -130 c 0
 234 -185.92638891 176.382668757 -209 119 -209 c 0
 76.5334173953 -209 40.7827650077 -199.669659005 13 -183 c 1
 31 -139 l 1
 50.640978364 -150.784587018 72.6379128562 -163 104 -163 c 0
EndSplineSet
EndChar

StartChar: uni00B9
Encoding: 185 185 123
Width: 249
Flags: W
HStem: 720 48<22 105.568>
VStem: 106 80<372 720> 132 54<785.706 827>
LayerCount: 2
Fore
SplineSet
22 768 m 1xc0
 84.9852324094 768 127.100943964 778.009439637 132 827 c 1
 186 827 l 1xa0
 186 372 l 1
 106 372 l 1
 106 720 l 1
 22 720 l 1
 22 768 l 1xc0
EndSplineSet
EndChar

StartChar: ordmasculine
Encoding: 186 186 124
Width: 399
Flags: W
HStem: 398 56<147.754 251.274> 676 56<147.066 250.83>
VStem: 39 84<480.376 651.279> 276 84<479.887 651.192>
LayerCount: 2
Fore
SplineSet
199 732 m 0
 268.745636941 732 315.900062319 699.199875361 340 651 c 0
 353 625 360 597 360 564 c 0
 360 496.591369109 329.183233402 444.773552818 285 419 c 0
 261 405 232 398 199 398 c 0
 99.0680219858 398 39 464.34920298 39 564 c 0
 39 633.422340316 71.1493460182 684.837118511 116 711 c 0
 140 725 168 732 199 732 c 0
276 566 m 0
 276 628.333641966 257.356413562 676 199 676 c 0
 141.759878613 676 123 627.667292678 123 566 c 0
 123 503.629577789 141.807686092 454 199 454 c 0
 257.26952457 454 276 503.022443678 276 566 c 0
EndSplineSet
EndChar

StartChar: guillemotright
Encoding: 187 187 125
Width: 496
Flags: W
LayerCount: 2
Fore
SplineSet
152 251 m 1
 62 443 l 1
 128 443 l 1
 252 251 l 1
 128 67 l 1
 62 67 l 1
 152 251 l 1
336 251 m 1
 246 443 l 1
 312 443 l 1
 436 251 l 1
 312 67 l 1
 246 67 l 1
 336 251 l 1
EndSplineSet
EndChar

StartChar: onequarter
Encoding: 188 188 126
Width: 809
Flags: W
HStem: -0.245117 17.2451G<110 197.224 639.13 713.47> 108.115 64.8896<505.57 639.13 713.47 780.25> 616 48<22 105.568> 703 28G<129.55 186 583.73 670>
VStem: 106 80<268 616> 132 54<681.706 723> 639.13 74.3398<-0.245117 108.115 173.005 360.115>
LayerCount: 2
Fore
SplineSet
22 664 m 1xfa
 84.9852324094 664 127.100943964 674.009439637 132 723 c 1
 186 723 l 1xf6
 186 268 l 1
 106 268 l 1
 106 616 l 1
 22 616 l 1
 22 664 l 1xfa
670 731 m 1
 184 -4 l 1
 110 -3 l 1
 597 731 l 1
 670 731 l 1
637.870117188 455.245117188 m 1
 713.469726562 455.245117188 l 1
 713.469726562 173.004882812 l 1
 780.25 173.004882812 l 1
 780.25 108.115234375 l 1
 713.469726562 108.115234375 l 1
 713.469726562 -0.2451171875 l 1
 639.129882812 -0.2451171875 l 1
 639.759765625 108.115234375 l 1
 433.75 108.115234375 l 1
 433.75 173.004882812 l 1
 637.870117188 455.245117188 l 1
505.5703125 173.004882812 m 1
 639.129882812 173.004882812 l 1
 639.129882812 360.115234375 l 1
 505.5703125 173.004882812 l 1
EndSplineSet
EndChar

StartChar: onehalf
Encoding: 189 189 127
Width: 885
Flags: W
HStem: -0.709961 64.5752<643.45 840.01> 400.6 61.1104<626.5 737.303> 616 48<22 105.568> 703 28G<129.55 186 583.73 670>
VStem: 106 80<268 616> 132 54<681.706 723> 756.22 74.3398<249.094 381.797>
LayerCount: 2
Back
SplineSet
579.189453125 90.6396484375 m 6
 619.509765625 125.5 651.325195312 154.165039062 674.634765625 176.634765625 c 4
 697.9453125 199.104492188 717.370117188 222.520507812 732.91015625 246.879882812 c 4
 748.44921875 271.239257812 756.219726562 295.600585938 756.219726562 319.959960938 c 4
 756.219726562 345.16015625 750.235351562 364.900390625 738.264648438 379.1796875 c 4
 726.294921875 393.459960938 707.499023438 400.599609375 681.879882812 400.599609375 c 4
 657.099609375 400.599609375 637.884765625 392.724609375 624.235351562 376.974609375 c 4
 611.630859375 362.431640625 604.487304688 343.321289062 602.805664062 319.64453125 c 4
 531.854492188 337.290039062 l 4
 536.626953125 373.772460938 550.41015625 402.540039062 573.205078125 423.594726562 c 4
 600.71484375 449.005859375 645.129882812 461.709960938 687.549804688 461.709960938 c 4
 733.329101562 461.709960938 765.985351562 449.110351562 791.814453125 423.91015625 c 4
 817.64453125 398.709960938 830.559570312 365.109375 830.559570312 323.110351562 c 4
 830.559570312 292.870117188 822.895507812 263.78515625 807.564453125 235.85546875 c 4
 792.234375 207.924804688 773.96484375 182.934570312 752.754882812 160.884765625 c 4
 731.544921875 138.834960938 704.559570312 113.3203125 671.799804688 84.33984375 c 6
 643.450195312 63.865234375 l 5
 840.009765625 63.865234375 l 5
 840.009765625 -0.7099609375 l 5
 533.830078125 -0.7099609375 l 5
 533.830078125 51.580078125 l 5
 579.189453125 90.6396484375 l 6
EndSplineSet
Fore
SplineSet
687.549804688 461.709960938 m 0xf2
 774.324202106 461.709960938 830.559570312 408.081476198 830.559570312 323.110351562 c 0
 830.559570312 255.157433447 788.643265469 198.1942086 752.754882812 160.884765625 c 0
 731.544921875 138.834960938 704.559570312 113.3203125 671.799804688 84.33984375 c 1
 643.450195312 63.865234375 l 1
 840.009765625 63.865234375 l 1
 840.009765625 -0.7099609375 l 1
 533.830078125 -0.7099609375 l 1
 533.830078125 51.580078125 l 1
 579.189453125 90.6396484375 l 2
 619.509765625 125.5 651.325195312 154.165039062 674.634765625 176.634765625 c 0
 697.9453125 199.104492188 717.370117188 222.520507812 732.91015625 246.879882812 c 0
 748.44921875 271.239257812 756.219726562 295.600585938 756.219726562 319.959960938 c 0
 756.219726562 370.569169101 732.878005638 400.599609375 681.879882812 400.599609375 c 0
 632.534110761 400.599609375 606.159213211 366.86102316 602.805664062 319.64453125 c 1
 531.854492188 337.290039062 l 1
 536.626953125 373.772460938 550.41015625 402.540039062 573.205078125 423.594726562 c 0
 600.71484375 449.005859375 645.129882812 461.709960938 687.549804688 461.709960938 c 0xf2
22 664 m 1
 84.9852324094 664 127.100943964 674.009439637 132 723 c 1
 186 723 l 1xf6
 186 268 l 1
 106 268 l 1
 106 616 l 1xfa
 22 616 l 1
 22 664 l 1
670 731 m 1
 184 -4 l 1
 110 -3 l 1
 597 731 l 1
 670 731 l 1
EndSplineSet
EndChar

StartChar: threequarters
Encoding: 190 190 128
Width: 938
Flags: W
HStem: -0.245117 17.2451G<237 325.224 768.13 842.47> 108.115 64.8896<634.57 768.13 842.47 909.25> 262.64 63<151.059 278.926> 474.32 62.3701<166.86 266.197> 670.25 61.1104<148.173 273.039>
VStem: 47.1602 73.71<357.415 389.115 604.956 641.881> 290.97 82.5303<561.198 652.283> 302.31 82.5303<348.436 449.063> 768.13 74.3398<-0.245117 108.115 173.005 360.115>
LayerCount: 2
Fore
SplineSet
798 731 m 1xfc80
 312 -4 l 1
 237 -3 l 1
 724 731 l 1
 798 731 l 1xfc80
209.0703125 325.639648438 m 0
 259.967773438 325.639648438 302.309570312 349.354492188 302.309570312 398.719726562 c 0xfd80
 302.309570312 429.885742188 281.845703125 454.509765625 257.580078125 463.610351562 c 0
 242.459960938 469.280273438 227.969726562 472.4296875 209.0703125 473.059570312 c 2
 166.860351562 474.3203125 l 1
 166.860351562 536.690429688 l 1
 205.919921875 537.950195312 l 2
 224.190429688 538.580078125 236.790039062 542.360351562 250.650390625 548.66015625 c 0
 264.509765625 554.959960938 272.0703125 563.150390625 279.629882812 573.23046875 c 0
 287.190429688 583.309570312 290.969726562 595.91015625 290.969726562 608.509765625 c 0
 290.969726562 633.618164062 273.170898438 654.440429688 253.169921875 662.059570312 c 0
 239.940429688 667.099609375 227.33984375 670.25 209.0703125 670.25 c 0
 157.9921875 670.25 125.651367188 638.923828125 124.01953125 588.349609375 c 1
 50.9404296875 606.620117188 l 1
 56.83984375 661.197265625 89.3017578125 696.744140625 132.209960938 714.98046875 c 0
 157.41015625 725.690429688 178.830078125 731.360351562 209.700195312 731.360351562 c 0
 272.318359375 731.360351562 323.202148438 712.198242188 351.450195312 677.809570312 c 0
 365.940429688 660.169921875 373.5 637.490234375 373.5 611.030273438 c 0xfe80
 373.5 588.349609375 366.5703125 568.8203125 352.709960938 551.1796875 c 0
 338.849609375 533.540039062 318.059570312 519.6796875 288.450195312 509.599609375 c 1
 325.108398438 499.487304688 354.29296875 479.435546875 371.610351562 449.75 c 0
 380.4296875 434.629882812 384.83984375 416.990234375 384.83984375 396.830078125 c 0xfd80
 384.83984375 349.922851562 360.591796875 317.576171875 331.290039062 297.290039062 c 0
 294.120117188 271.557617188 273.330078125 262.639648438 207.809570312 262.639648438 c 0
 142.282226562 262.639648438 93.4013671875 289.11328125 67.3203125 329.419921875 c 0
 56.6103515625 346.4296875 49.6796875 365.959960938 47.16015625 387.379882812 c 1
 120.870117188 405.650390625 l 1
 132.12890625 360.615234375 156.143554688 325.639648438 209.0703125 325.639648438 c 0
766.870117188 455.245117188 m 1
 842.469726562 455.245117188 l 1
 842.469726562 173.004882812 l 1
 909.25 173.004882812 l 1
 909.25 108.115234375 l 1
 842.469726562 108.115234375 l 1
 842.469726562 -0.2451171875 l 1
 768.129882812 -0.2451171875 l 1
 768.759765625 108.115234375 l 1
 562.75 108.115234375 l 1
 562.75 173.004882812 l 1
 766.870117188 455.245117188 l 1
634.5703125 173.004882812 m 1
 768.129882812 173.004882812 l 1
 768.129882812 360.115234375 l 1
 634.5703125 173.004882812 l 1
EndSplineSet
EndChar

StartChar: questiondown
Encoding: 191 191 129
Width: 532
Flags: W
HStem: -171 89<189.792 339.51> 366 163<226.339 332.016>
VStem: 33 121<-47.8632 69.0947> 197 162<393.551 499.055> 228 101<237.51 314>
LayerCount: 2
Fore
SplineSet
277 366 m 0xf0
 233.363025113 366 197 404.440080362 197 448 c 0
 197 466 205 484 221 502 c 0
 237 520 255 529 278 529 c 0
 321.609215012 529 359 491.607839674 359 448 c 0
 359 403.364706158 322.12930061 366 277 366 c 0xf0
154 8 m 0
 154 -49.2192359992 204.774001721 -82 264 -82 c 0
 310.752901575 -82 346.009628417 -60.2576801446 372 -36 c 0
 387 -22 398 -6 405 12 c 1
 510 -15 l 1
 471.166845341 -105.610694205 387.33858545 -171 263 -171 c 0
 168.63998923 -171 96.5406036949 -141.225316448 59 -87 c 0
 41 -61 33 -32 33 1 c 0
 33 113.457181723 119.592482317 148.486316829 178 203 c 0
 205.304528128 228.484226253 228 263.242239062 228 314 c 1
 329 314 l 1xe8
 329 256.512526389 309.775859035 213.724134197 284 182 c 0
 271 166 257 150 242 137 c 0
 214.859958643 113.478630824 184.474963287 87.5811857523 167 57 c 0
 159 43 154 27 154 8 c 0
EndSplineSet
EndChar

StartChar: Agrave
Encoding: 192 192 130
Width: 719
Flags: W
HStem: 0 21G<34 163.253 555.857 685> 182 108<250 468> 703 20G<286.808 433.165>
LayerCount: 2
Fore
SplineSet
34 0 m 1
 294 723 l 1
 426 723 l 1
 685 0 l 1
 563 0 l 1
 498 182 l 1
 222 182 l 1
 156 0 l 1
 34 0 l 1
250 290 m 1
 468 290 l 1
 360 604 l 1
 250 290 l 1
300 929 m 1
 170 929 l 1
 312 784 l 1
 402 784 l 1
 300 929 l 1
EndSplineSet
EndChar

StartChar: Aacute
Encoding: 193 193 131
Width: 719
Flags: W
HStem: 0 21G<34 163.253 555.857 685> 182 108<250 468> 703 20G<286.808 433.165>
LayerCount: 2
Fore
SplineSet
34 0 m 1
 294 723 l 1
 426 723 l 1
 685 0 l 1
 563 0 l 1
 498 182 l 1
 222 182 l 1
 156 0 l 1
 34 0 l 1
250 290 m 1
 468 290 l 1
 360 604 l 1
 250 290 l 1
417 929 m 1
 547 929 l 1
 404 784 l 1
 314 784 l 1
 417 929 l 1
EndSplineSet
EndChar

StartChar: Acircumflex
Encoding: 194 194 132
Width: 719
Flags: W
HStem: 0 21G<34 163.253 555.857 685> 182 108<250 468> 703 20G<286.808 433.165>
LayerCount: 2
Fore
SplineSet
34 0 m 1
 294 723 l 1
 426 723 l 1
 685 0 l 1
 563 0 l 1
 498 182 l 1
 222 182 l 1
 156 0 l 1
 34 0 l 1
250 290 m 1
 468 290 l 1
 360 604 l 1
 250 290 l 1
426 784 m 1
 358 851 l 1
 284 784 l 1
 188 784 l 1
 317 906 l 1
 402 906 l 1
 528 784 l 1
 426 784 l 1
EndSplineSet
EndChar

StartChar: Atilde
Encoding: 195 195 133
Width: 719
Flags: W
HStem: 0 21G<34 163.253 555.857 685> 182 108<250 468> 703 20G<286.808 433.165> 812 75<338.178 492.992> 838 78<230.031 382.933>
LayerCount: 2
Fore
SplineSet
34 0 m 1xe0
 294 723 l 1
 426 723 l 1
 685 0 l 1
 563 0 l 1
 498 182 l 1
 222 182 l 1
 156 0 l 1
 34 0 l 1xe0
250 290 m 1
 468 290 l 1
 360 604 l 1
 250 290 l 1
290 916 m 0xe8
 344.4949162 916 377.440450544 887 430 887 c 0
 446 887 461 890 473 897 c 0
 485 904 497 910 507 918 c 1
 524 844 l 1
 501.290074206 828.103051944 471.675174146 812 430 812 c 0xf0
 374.558832033 812 347.807481997 838 294 838 c 0
 257.224468424 838 241.202583473 824.651937605 219 808 c 1
 199 874 l 1
 222.951962928 895.955966017 244.55000016 916 290 916 c 0xe8
EndSplineSet
EndChar

StartChar: Adieresis
Encoding: 196 196 134
Width: 719
Flags: W
HStem: 0 21G<34 163.253 555.857 685> 182 108<250 468> 703 20G<286.808 433.165> 792 129<208.999 299.31 423.8 515.118>
VStem: 189 127<809.086 901.051> 404 128<808.99 901.051>
LayerCount: 2
Fore
SplineSet
34 0 m 1
 294 723 l 1
 426 723 l 1
 685 0 l 1
 563 0 l 1
 498 182 l 1
 222 182 l 1
 156 0 l 1
 34 0 l 1
250 290 m 1
 468 290 l 1
 360 604 l 1
 250 290 l 1
252 792 m 0
 218.41082767 792 189 821.966654526 189 856 c 0
 189 886.387578856 220.46637539 921 253 921 c 0
 287.113783495 921 316 890.522100047 316 856 c 0
 316 821.692558128 287.164836426 792 252 792 c 0
468 792 m 0
 433.916824072 792 404 821.42767052 404 856 c 0
 404 886.387578856 435.46637539 921 468 921 c 0
 502.615501641 921 532 891.068808089 532 856 c 0
 532 821.692558128 503.164836426 792 468 792 c 0
EndSplineSet
EndChar

StartChar: Aring
Encoding: 197 197 135
Width: 719
Flags: W
HStem: 0 21G<34 163.253 555.857 685> 182 108<250 468> 703 20G<286.808 433.165> 778 52<317.886 398.16> 934 55<316.068 400.983>
VStem: 254 52<841.446 924.105> 410 56<841.152 925.244>
LayerCount: 2
Fore
SplineSet
34 0 m 1
 294 723 l 1
 426 723 l 1
 685 0 l 1
 563 0 l 1
 498 182 l 1
 222 182 l 1
 156 0 l 1
 34 0 l 1
250 290 m 1
 468 290 l 1
 360 604 l 1
 250 290 l 1
254 886 m 0
 254 943.081904702 302.613359609 989 360 989 c 0
 404.336351059 989 433.983407489 965.826548017 452 937 c 0
 462 921 466 903 466 884 c 0
 466 823.364706158 420.329621608 778 360 778 c 0
 300.213662835 778 254 826.58947237 254 886 c 0
359 830 m 0
 387.282835242 830 410 855.911961859 410 884 c 0
 410 912.613167723 387.305022555 934 359 934 c 0
 330.530327117 934 306 912.614927023 306 884 c 0
 306 855.906969547 330.548569827 830 359 830 c 0
EndSplineSet
EndChar

StartChar: AE
Encoding: 198 198 136
Width: 1010
Flags: W
HStem: 0 104<600 954> 183 107<268 461> 314 102<600 902> 620 103<600 943>
VStem: 461 139<104 183 290 314 416 620>
LayerCount: 2
Fore
SplineSet
954 104 m 1
 954 0 l 1
 461 0 l 1
 461 183 l 1
 222 183 l 1
 123 0 l 1
 0 0 l 1
 393 723 l 1
 944 723 l 1
 943 620 l 1
 600 620 l 1
 600 416 l 1
 902 416 l 1
 902 314 l 1
 600 314 l 1
 600 104 l 1
 954 104 l 1
461 290 m 1
 461 640 l 1
 268 290 l 1
 461 290 l 1
EndSplineSet
EndChar

StartChar: Ccedilla
Encoding: 199 199 137
Width: 694
Flags: W
HStem: -209 46<269.867 395.568> 631 102<276.91 448.743>
VStem: 50 135<210.304 520.35> 398 78<-158.157 -97.4233>
LayerCount: 2
Fore
SplineSet
346 -163 m 0
 374.280969696 -163 398 -154.616485526 398 -129 c 0
 398 -115 391 -105 379 -98 c 0
 367 -91 345 -87 315 -87 c 0
 307.825387175 -87 305.531110814 -86.4066675577 308 -79 c 2
 338.885106283 -8.88246141093 l 1
 212.877054536 0.668825346215 133.318788638 70.5441475486 89 166 c 0
 63 222 50 289 50 366 c 0
 50 520.045763409 102.008657675 631.005230679 198 689 c 0
 246 718 302 733 369 733 c 0
 480.511038235 733 562.669608673 682.568979164 609 614 c 0
 624 592 636 568 644 542 c 1
 521 510 l 1
 503.055239288 578.190090705 450.998536797 631 366 631 c 0
 223.129922731 631 185 514.984150762 185 364 c 0
 185 269 201 200 232 157 c 0
 263 114 308 92 366 92 c 0
 453.687879278 92 502.595685943 151.063606584 521 221 c 1
 644 190 l 1
 613.636039922 76.1351497084 534.961457622 -0.225038776907 396.732188963 -9.12731141677 c 1
 380 -54 l 1
 422.428815492 -55.7678673122 451.65833858 -69.7069540638 466 -96 c 0
 472 -107 476 -119 476 -130 c 0
 476 -185.92638891 418.382668757 -209 361 -209 c 0
 318.533417395 -209 282.782765008 -199.669659005 255 -183 c 1
 273 -139 l 1
 292.640978364 -150.784587018 314.637912856 -163 346 -163 c 0
EndSplineSet
EndChar

StartChar: Egrave
Encoding: 200 200 138
Width: 628
Flags: W
HStem: 0 106<209 572> 313 103<210 524> 618 105<210 565>
VStem: 88 121<106 313 416 618>
LayerCount: 2
Fore
SplineSet
88 0 m 1
 88 723 l 1
 566 723 l 1
 565 618 l 1
 210 618 l 1
 210 416 l 1
 524 416 l 1
 524 313 l 1
 209 313 l 1
 209 106 l 1
 572 106 l 1
 572 0 l 1
 88 0 l 1
268 929 m 1
 138 929 l 1
 280 784 l 1
 370 784 l 1
 268 929 l 1
EndSplineSet
EndChar

StartChar: Eacute
Encoding: 201 201 139
Width: 628
Flags: W
HStem: 0 106<209 572> 313 103<210 524> 618 105<210 565>
VStem: 88 121<106 313 416 618>
LayerCount: 2
Fore
SplineSet
88 0 m 1
 88 723 l 1
 566 723 l 1
 565 618 l 1
 210 618 l 1
 210 416 l 1
 524 416 l 1
 524 313 l 1
 209 313 l 1
 209 106 l 1
 572 106 l 1
 572 0 l 1
 88 0 l 1
385 929 m 1
 515 929 l 1
 372 784 l 1
 282 784 l 1
 385 929 l 1
EndSplineSet
EndChar

StartChar: Ecircumflex
Encoding: 202 202 140
Width: 628
Flags: W
HStem: 0 106<209 572> 313 103<210 524> 618 105<210 565>
VStem: 88 121<106 313 416 618>
LayerCount: 2
Fore
SplineSet
88 0 m 1
 88 723 l 1
 566 723 l 1
 565 618 l 1
 210 618 l 1
 210 416 l 1
 524 416 l 1
 524 313 l 1
 209 313 l 1
 209 106 l 1
 572 106 l 1
 572 0 l 1
 88 0 l 1
394 784 m 1
 327 851 l 1
 252 784 l 1
 156 784 l 1
 286 906 l 1
 370 906 l 1
 496 784 l 1
 394 784 l 1
EndSplineSet
EndChar

StartChar: Edieresis
Encoding: 203 203 141
Width: 628
Flags: W
HStem: 0 106<209 572> 313 103<210 524> 618 105<210 565> 792 129<176.999 267.31 391.8 483.118>
VStem: 88 121<106 313 416 618> 157 127<809.086 901.051> 372 128<808.99 901.051>
LayerCount: 2
Fore
SplineSet
88 0 m 1xfa
 88 723 l 1
 566 723 l 1
 565 618 l 1
 210 618 l 1
 210 416 l 1
 524 416 l 1
 524 313 l 1
 209 313 l 1
 209 106 l 1
 572 106 l 1
 572 0 l 1
 88 0 l 1xfa
220 792 m 0
 186.41082767 792 157 821.966654526 157 856 c 0
 157 886.387578856 188.46637539 921 221 921 c 0
 255.113783495 921 284 890.522100047 284 856 c 0xf6
 284 821.692558128 255.164836426 792 220 792 c 0
436 792 m 0
 401.916824072 792 372 821.42767052 372 856 c 0
 372 886.387578856 403.46637539 921 436 921 c 0
 470.615501641 921 500 891.068808089 500 856 c 0
 500 821.692558128 471.164836426 792 436 792 c 0
EndSplineSet
EndChar

StartChar: Igrave
Encoding: 204 204 142
Width: 296
Flags: W
HStem: 0 21G<88 209> 703 20G<88 209>
VStem: 88 121<0 723>
LayerCount: 2
Fore
SplineSet
88 723 m 1
 209 723 l 1
 209 0 l 1
 88 0 l 1
 88 723 l 1
88 929 m 1
 -42 929 l 1
 102 784 l 1
 192 784 l 1
 88 929 l 1
EndSplineSet
EndChar

StartChar: Iacute
Encoding: 205 205 143
Width: 296
Flags: W
HStem: 0 21G<88 209> 703 20G<88 209>
VStem: 88 121<0 723>
LayerCount: 2
Fore
SplineSet
88 723 m 1
 209 723 l 1
 209 0 l 1
 88 0 l 1
 88 723 l 1
206 929 m 1
 336 929 l 1
 193 784 l 1
 103 784 l 1
 206 929 l 1
EndSplineSet
EndChar

StartChar: Icircumflex
Encoding: 206 206 144
Width: 296
Flags: W
HStem: 0 21G<88 209> 703 20G<88 209>
VStem: 88 121<0 723>
LayerCount: 2
Fore
SplineSet
88 723 m 1
 209 723 l 1
 209 0 l 1
 88 0 l 1
 88 723 l 1
216 784 m 1
 148 851 l 1
 74 784 l 1
 -22 784 l 1
 107 906 l 1
 192 906 l 1
 318 784 l 1
 216 784 l 1
EndSplineSet
EndChar

StartChar: Idieresis
Encoding: 207 207 145
Width: 296
Flags: W
HStem: 0 21G<88 209> 703 20G<88 209> 792 129<-2.0008 88.3104 212.8 304.118>
VStem: -22 127<809.086 901.051> 88 121<0 723> 193 128<808.99 901.051>
LayerCount: 2
Fore
SplineSet
88 723 m 1xe8
 209 723 l 1
 209 0 l 1
 88 0 l 1
 88 723 l 1xe8
41 792 m 0
 7.4108276702 792 -22 821.966654526 -22 856 c 0
 -22 886.387578856 9.46637538989 921 42 921 c 0
 76.1137834951 921 105 890.522100047 105 856 c 0xf0
 105 821.692558128 76.1648364259 792 41 792 c 0
257 792 m 0
 222.916824072 792 193 821.42767052 193 856 c 0
 193 886.387578856 224.46637539 921 257 921 c 0
 291.615501641 921 321 891.068808089 321 856 c 0xe4
 321 821.692558128 292.164836426 792 257 792 c 0
EndSplineSet
EndChar

StartChar: Eth
Encoding: 208 208 146
Width: 730
Flags: W
HStem: 0 101<233 414.108> 314 92<35 110 233 386> 623 100<233 419.128>
VStem: 110 123<101 314 406 623> 552 127<239.529 492.35>
LayerCount: 2
Fore
SplineSet
679 366 m 0
 679 120.178075212 545.01469065 0 296 0 c 2
 110 0 l 1
 110 314 l 1
 35 314 l 1
 35 406 l 1
 110 406 l 1
 110 723 l 1
 250 723 l 2
 271 723 289 722 304 722 c 0
 546.364809488 716.491708875 679 608.327004135 679 366 c 0
552 365 m 0
 552 539.008545661 471.025554508 623 301 623 c 2
 233 623 l 1
 233 406 l 1
 386 406 l 1
 386 314 l 1
 233 314 l 1
 233 101 l 1
 298 101 l 2
 467.713327531 101 552 190.685319306 552 365 c 0
EndSplineSet
EndChar

StartChar: Ntilde
Encoding: 209 209 147
Width: 769
Flags: W
HStem: 0 21G<88 209 558.302 682> 703 20G<88 219.694 560 682> 812 75<362.902 517.992> 838 78<254.879 407.809>
VStem: 88 121<0 530> 560 122<206 723>
LayerCount: 2
Fore
SplineSet
560 723 m 1xcc
 682 723 l 1
 682 0 l 1
 572 0 l 1
 209 530 l 1
 209 0 l 1
 88 0 l 1
 88 723 l 1
 206 723 l 1
 560 206 l 1
 560 723 l 1xcc
314 916 m 0xdc
 369.068064599 916 402.171012808 887 455 887 c 0
 471 887 486 890 498 897 c 0
 510 904 522 910 532 918 c 1
 549 844 l 1
 526.290074206 828.103051944 496.675174146 812 455 812 c 0xec
 399.558832033 812 372.807481997 838 319 838 c 0
 282.224468424 838 266.202583473 824.651937605 244 808 c 1
 224 874 l 1
 247.697539261 895.722744323 269.156458291 916 314 916 c 0xdc
EndSplineSet
EndChar

StartChar: Ograve
Encoding: 210 210 148
Width: 748
Flags: W
HStem: -10 102<286.775 467.142> 631 102<285.536 462.911>
VStem: 50 134<212.851 506.324> 565 133<209.058 510.437>
LayerCount: 2
Fore
SplineSet
376 -10 m 0
 232.185905998 -10 138.154675123 59.1343410864 90 161 c 0
 64 216 50 283 50 360 c 0
 50 516.657846819 106.754668976 628.46204223 204 688 c 0
 253 718 310 733 376 733 c 0
 517.378748527 733 610.974635405 661.285400667 658 560 c 0
 684 504 698 438 698 360 c 0
 698 205.699504562 642.182562917 93.489101823 547 34 c 0
 499 4 442 -10 376 -10 c 0
376 92 m 0
 519.414818498 92 565 207.433822663 565 358 c 0
 565 472.782137302 540.20462665 558.432574773 476 602 c 0
 448 621 415 631 376 631 c 0
 285.575257515 631 236.099751558 583.249378895 208 513 c 0
 192 473 184 421 184 358 c 0
 184 246.812946625 210.568050764 160.777681652 274 120 c 0
 302 102 337 92 376 92 c 0
315 929 m 1
 185 929 l 1
 328 783 l 1
 418 783 l 1
 315 929 l 1
EndSplineSet
EndChar

StartChar: Oacute
Encoding: 211 211 149
Width: 748
Flags: W
HStem: -10 102<286.775 467.142> 631 102<285.536 462.911>
VStem: 50 134<212.851 506.324> 565 133<209.058 510.437>
LayerCount: 2
Fore
SplineSet
376 -10 m 0
 232.185905998 -10 138.154675123 59.1343410864 90 161 c 0
 64 216 50 283 50 360 c 0
 50 516.657846819 106.754668976 628.46204223 204 688 c 0
 253 718 310 733 376 733 c 0
 517.378748527 733 610.974635405 661.285400667 658 560 c 0
 684 504 698 438 698 360 c 0
 698 205.699504562 642.182562917 93.489101823 547 34 c 0
 499 4 442 -10 376 -10 c 0
376 92 m 0
 519.414818498 92 565 207.433822663 565 358 c 0
 565 472.782137302 540.20462665 558.432574773 476 602 c 0
 448 621 415 631 376 631 c 0
 285.575257515 631 236.099751558 583.249378895 208 513 c 0
 192 473 184 421 184 358 c 0
 184 246.812946625 210.568050764 160.777681652 274 120 c 0
 302 102 337 92 376 92 c 0
432 929 m 1
 562 929 l 1
 420 783 l 1
 330 783 l 1
 432 929 l 1
EndSplineSet
EndChar

StartChar: Ocircumflex
Encoding: 212 212 150
Width: 748
Flags: W
HStem: -10 102<286.775 467.142> 631 102<285.536 462.911>
VStem: 50 134<212.851 506.324> 565 133<209.058 510.437>
LayerCount: 2
Fore
SplineSet
376 -10 m 0
 232.185905998 -10 138.154675123 59.1343410864 90 161 c 0
 64 216 50 283 50 360 c 0
 50 516.657846819 106.754668976 628.46204223 204 688 c 0
 253 718 310 733 376 733 c 0
 517.378748527 733 610.974635405 661.285400667 658 560 c 0
 684 504 698 438 698 360 c 0
 698 205.699504562 642.182562917 93.489101823 547 34 c 0
 499 4 442 -10 376 -10 c 0
376 92 m 0
 519.414818498 92 565 207.433822663 565 358 c 0
 565 472.782137302 540.20462665 558.432574773 476 602 c 0
 448 621 415 631 376 631 c 0
 285.575257515 631 236.099751558 583.249378895 208 513 c 0
 192 473 184 421 184 358 c 0
 184 246.812946625 210.568050764 160.777681652 274 120 c 0
 302 102 337 92 376 92 c 0
442 783 m 1
 375 851 l 1
 300 783 l 1
 204 783 l 1
 334 905 l 1
 418 905 l 1
 544 783 l 1
 442 783 l 1
EndSplineSet
EndChar

StartChar: Otilde
Encoding: 213 213 151
Width: 748
Flags: W
HStem: -10 102<286.775 467.142> 631 102<285.536 462.911> 811 76<354.321 509.541> 838 78<246.031 399.146>
VStem: 50 134<212.851 506.324> 565 133<209.058 510.437>
LayerCount: 2
Fore
SplineSet
376 -10 m 0xcc
 232.185905998 -10 138.154675123 59.1343410864 90 161 c 0
 64 216 50 283 50 360 c 0
 50 516.657846819 106.754668976 628.46204223 204 688 c 0
 253 718 310 733 376 733 c 0
 517.378748527 733 610.974635405 661.285400667 658 560 c 0
 684 504 698 438 698 360 c 0
 698 205.699504562 642.182562917 93.489101823 547 34 c 0
 499 4 442 -10 376 -10 c 0xcc
376 92 m 0
 519.414818498 92 565 207.433822663 565 358 c 0
 565 472.782137302 540.20462665 558.432574773 476 602 c 0
 448 621 415 631 376 631 c 0
 285.575257515 631 236.099751558 583.249378895 208 513 c 0
 192 473 184 421 184 358 c 0
 184 246.812946625 210.568050764 160.777681652 274 120 c 0
 302 102 337 92 376 92 c 0
306 916 m 0xdc
 360.959731134 916 393.291199261 887 446 887 c 0
 462 887 477 890 489 897 c 0
 501 904 513 910 523 918 c 1
 540 843 l 1
 517.887702467 827.521391727 485.797572318 811 446 811 c 0xec
 391.536638875 811 363.613529031 838 310 838 c 0
 273.224468424 838 257.202583473 824.651937605 235 808 c 1
 215 874 l 1
 238.951962928 895.955966017 260.55000016 916 306 916 c 0xdc
EndSplineSet
EndChar

StartChar: Odieresis
Encoding: 214 214 152
Width: 748
Flags: W
HStem: -10 102<286.775 467.142> 631 102<285.536 462.911> 792 129<224.999 315.31 439.8 531.118>
VStem: 50 134<212.851 506.324> 205 127<809.086 901.051> 420 128<808.99 901.051> 565 133<209.058 510.437>
LayerCount: 2
Fore
SplineSet
376 -10 m 0
 232.185905998 -10 138.154675123 59.1343410864 90 161 c 0
 64 216 50 283 50 360 c 0
 50 516.657846819 106.754668976 628.46204223 204 688 c 0
 253 718 310 733 376 733 c 0
 517.378748527 733 610.974635405 661.285400667 658 560 c 0
 684 504 698 438 698 360 c 0
 698 205.699504562 642.182562917 93.489101823 547 34 c 0
 499 4 442 -10 376 -10 c 0
376 92 m 0
 519.414818498 92 565 207.433822663 565 358 c 0
 565 472.782137302 540.20462665 558.432574773 476 602 c 0
 448 621 415 631 376 631 c 0
 285.575257515 631 236.099751558 583.249378895 208 513 c 0
 192 473 184 421 184 358 c 0
 184 246.812946625 210.568050764 160.777681652 274 120 c 0
 302 102 337 92 376 92 c 0
268 792 m 0
 234.41082767 792 205 821.966654526 205 856 c 0
 205 886.387578856 236.46637539 921 269 921 c 0
 303.113783495 921 332 890.522100047 332 856 c 0
 332 821.692558128 303.164836426 792 268 792 c 0
484 792 m 0
 449.916824072 792 420 821.42767052 420 856 c 0
 420 886.387578856 451.46637539 921 484 921 c 0
 518.615501641 921 548 891.068808089 548 856 c 0
 548 821.692558128 519.164836426 792 484 792 c 0
EndSplineSet
EndChar

StartChar: multiply
Encoding: 215 215 153
Width: 560
Flags: W
LayerCount: 2
Fore
SplineSet
124 144 m 1
 60 209 l 1
 214.79305741 363.79305741 l 1
 60 519 l 1
 124 583 l 1
 279.20694259 428.20694259 l 1
 435 584 l 1
 500 520 l 1
 343.79305741 363.79305741 l 1
 499 209 l 1
 434 144 l 1
 279.20694259 299.20694259 l 1
 124 144 l 1
EndSplineSet
EndChar

StartChar: Oslash
Encoding: 216 216 154
Width: 764
Flags: W
HStem: -10 101<291.942 467.844> 634 99<295.635 467.53>
VStem: 56 149.438<245.916 510.654> 551.69 151.31<208.186 473.958>
LayerCount: 2
Fore
SplineSet
380 -10 m 0
 283.258251303 -10 212.781725964 21.0990787018 162 70 c 1
 82 -14 l 1
 24 45 l 1
 108 134 l 1
 74.3467340932 191.408512429 56 268.173586859 56 359 c 0
 56 516.222823445 110.331999896 628.203265243 208 688 c 0
 257 718 314 733 380 733 c 0
 475.873771017 733 549.106907515 700.893092485 599 651 c 1
 680 736 l 1
 738 679 l 1
 650 585 l 1
 683.957857122 527.071890791 703 452.357196632 703 360 c 0
 703 205.146037978 648.424110024 92.2562331395 552 34 c 0
 504 5 446 -10 380 -10 c 0
380 91 m 0
 501.737614994 91 543.010256862 176.184623519 550 302 c 0
 551.12820409 318.923061349 551.690135129 335.301960981 551.690135129 351.239567322 c 0
 551.690135129 395.122895311 547.42987672 435.660575304 539 475 c 1
 246 155 l 1
 275 112 319 91 380 91 c 0
514 565 m 1
 488.517910956 608.683581219 445.271145309 634 380 634 c 0
 326 634 285 615 256 578 c 0
 227 541 210 484 206 406 c 0
 205.628942994 395.239346827 205.437645788 384.767454981 205.437645788 374.543907689 c 0
 205.437645788 327.015571723 209.572028019 284.854545252 219 244 c 1
 514 565 l 1
EndSplineSet
EndChar

StartChar: Ugrave
Encoding: 217 217 155
Width: 713
Flags: W
HStem: -10 105<277.147 454.849> 703 20G<88 212 520 644>
VStem: 88 124<161.155 723> 520 124<163.581 723>
LayerCount: 2
Fore
SplineSet
365 95 m 0
 469.124115198 95 520 151.822904203 520 258 c 2
 520 723 l 1
 644 723 l 1
 644 264 l 2
 644 80.2688688884 551.835888503 -10 365 -10 c 0
 174.170766632 -10 88 82.7828093548 88 271 c 2
 88 723 l 1
 212 723 l 1
 212 259 l 2
 212 153.811130566 264.390706249 95 365 95 c 0
306 929 m 1
 176 929 l 1
 319 784 l 1
 409 784 l 1
 306 929 l 1
EndSplineSet
EndChar

StartChar: Uacute
Encoding: 218 218 156
Width: 713
Flags: W
HStem: -10 105<277.147 454.849> 703 20G<88 212 520 644>
VStem: 88 124<161.155 723> 520 124<163.581 723>
LayerCount: 2
Fore
SplineSet
365 95 m 0
 469.124115198 95 520 151.822904203 520 258 c 2
 520 723 l 1
 644 723 l 1
 644 264 l 2
 644 80.2688688884 551.835888503 -10 365 -10 c 0
 174.170766632 -10 88 82.7828093548 88 271 c 2
 88 723 l 1
 212 723 l 1
 212 259 l 2
 212 153.811130566 264.390706249 95 365 95 c 0
423 929 m 1
 553 929 l 1
 410 784 l 1
 320 784 l 1
 423 929 l 1
EndSplineSet
EndChar

StartChar: Ucircumflex
Encoding: 219 219 157
Width: 713
Flags: W
HStem: -10 105<277.147 454.849> 703 20G<88 212 520 644>
VStem: 88 124<161.155 723> 520 124<163.581 723>
LayerCount: 2
Fore
SplineSet
365 95 m 0
 469.124115198 95 520 151.822904203 520 258 c 2
 520 723 l 1
 644 723 l 1
 644 264 l 2
 644 80.2688688884 551.835888503 -10 365 -10 c 0
 174.170766632 -10 88 82.7828093548 88 271 c 2
 88 723 l 1
 212 723 l 1
 212 259 l 2
 212 153.811130566 264.390706249 95 365 95 c 0
433 784 m 1
 366 851 l 1
 291 784 l 1
 195 784 l 1
 324 906 l 1
 409 906 l 1
 535 784 l 1
 433 784 l 1
EndSplineSet
EndChar

StartChar: Udieresis
Encoding: 220 220 158
Width: 713
Flags: W
HStem: -10 105<277.147 454.849> 703 20G<88 212 520 644> 792 129<214.019 305.932 430.797 521.212>
VStem: 88 124<161.155 723> 195 128<809.271 901.349> 411 127<809.368 901.349> 520 124<163.581 723>
LayerCount: 2
Fore
SplineSet
365 95 m 0xf2
 469.124115198 95 520 151.822904203 520 258 c 2
 520 723 l 1
 644 723 l 1
 644 264 l 2
 644 80.2688688884 551.835888503 -10 365 -10 c 0
 174.170766632 -10 88 82.7828093548 88 271 c 2
 88 723 l 1
 212 723 l 1
 212 259 l 2
 212 153.811130566 264.390706249 95 365 95 c 0xf2
259 792 m 0
 224.384498359 792 195 821.931191911 195 857 c 0
 195 886.894027294 227.015026594 921 259 921 c 0
 293.083175928 921 323 891.57232948 323 857 c 0xe8
 323 822.20093934 294.693309862 792 259 792 c 0
474 792 m 0
 439.886216505 792 411 822.477899953 411 857 c 0
 411 886.894027294 443.015026594 921 475 921 c 0
 508.58917233 921 538 891.033345474 538 857 c 0xe4
 538 822.20093934 509.693309862 792 474 792 c 0
EndSplineSet
EndChar

StartChar: Yacute
Encoding: 221 221 159
Width: 640
Flags: W
HStem: 0 21G<260 381> 703 20G<10 153.511 484.746 630>
VStem: 260 121<0 306>
LayerCount: 2
Fore
SplineSet
630 723 m 1
 381 306 l 1
 381 0 l 1
 260 0 l 1
 260 306 l 1
 10 723 l 1
 142 723 l 1
 321 412 l 1
 496 723 l 1
 630 723 l 1
390 930 m 1
 520 930 l 1
 378 784 l 1
 288 784 l 1
 390 930 l 1
EndSplineSet
EndChar

StartChar: Thorn
Encoding: 222 222 160
Width: 667
Flags: W
HStem: 0 21G<88 211> 156 103<211 461.713> 478 102<211 462.156> 703 20G<88 211>
VStem: 88 123<0 156 259 478 580 723> 511 127<306.001 434.183>
LayerCount: 2
Fore
SplineSet
638 371 m 0
 638 220.664380169 519.309918909 156 368 156 c 2
 211 156 l 1
 211 0 l 1
 88 0 l 1
 88 723 l 1
 211 723 l 1
 211 580 l 1
 366 580 l 2
 471.307189627 580 557.877449003 548.817351344 603 488 c 0
 626 457 638 418 638 371 c 0
368 259 m 2
 447.446865756 259 511 291.927297764 511 371 c 0
 511 448.59339374 443.085749616 478 365 478 c 2
 211 478 l 1
 211 259 l 1
 368 259 l 2
EndSplineSet
EndChar

StartChar: germandbls
Encoding: 223 223 161
Width: 614
Flags: W
HStem: -10 81<266.493 428.696> 0 21G<69.96 189> 642 81<232.367 368.559>
VStem: 70 119<0 596.134> 242 92<323.433 427.167> 388 112<522.268 622.865> 458 110<99.2773 205.028>
LayerCount: 2
Fore
SplineSet
302 642 m 0xbc
 231.545173158 642 189 594.218942282 189 522 c 2
 189 0 l 1
 70 0 l 1
 69 500 l 2
 69 606.033679673 124.108939907 674.843575963 202 706 c 0
 232 718 267 723 309 723 c 0
 388.827050362 723 449.101550279 699.983278133 479 653 c 0
 493 631 500 607 500 579 c 0x7c
 500 493.314650219 435.419402387 466.347416486 374 438 c 0
 360 430 350 424 344 419 c 0
 338 414 334 407 334 398 c 0
 334 390 337 384 343 380 c 0
 349 376 359 371 374 366 c 0
 465.411230334 328.604496682 568 294.087126401 568 165 c 0
 568 46.9353765579 482.194642856 -10 364 -10 c 0
 311.571301165 -10 259.993308638 4.00418210108 228 24 c 1
 267 101 l 1
 292.883555544 85.901259266 315.580574761 71 358 71 c 0
 414.022064575 71 458 97.7547199084 458 152 c 0xba
 458 193.898300083 434.20756758 212.39621621 405 227 c 0
 340.025407231 259.487296385 242 274.866289073 242 372 c 0
 242 429.526517684 277.397248683 456.824292619 316 482 c 0
 338.077382076 498.558036557 362.756780913 514.223972733 378 536 c 0
 385 546 388 559 388 574 c 0
 388 619.617897357 350.997458752 642 302 642 c 0xbc
EndSplineSet
EndChar

StartChar: agrave
Encoding: 224 224 162
Width: 577
Flags: W
HStem: -10 83<187.205 309.115> -10 70<498.211 546.964> 257 67<214.019 316> 453 84<209.306 351.87>
VStem: 43 116<100.411 212.329> 379 117<64.9526 93 119.776 263 330 427.299>
LayerCount: 2
Fore
SplineSet
384 93 m 1x7c
 356.70603408 31.58857668 303.627056145 -10 216 -10 c 2
 215 -10 l 2xbc
 127.016773926 -10 68.6262972841 30.3079595056 49 99 c 0
 45 113 43 128 43 144 c 0
 43 242.129326155 98.961130594 283.490282649 181 304 c 0
 214 312 254 320 302 324 c 2
 379 330 l 1
 379 366 l 2
 379 424.782565402 342.091423269 453 284 453 c 0
 283 453 281 452 280 452 c 0
 238.402035272 452 206.802038107 437.630900694 187 415 c 0
 183 410 181 405 178 400 c 0
 176 396 173 392 172 387 c 1
 72 412 l 1
 89.7462402988 500.731201494 178.550739799 537 285 537 c 2
 287 537 l 2
 354.643023969 537 408.950881161 524.874265699 446 494 c 0
 461 481 471 469 474 461 c 0
 485 435 490 422 490 421 c 0
 494 412 496 395 496 372 c 2
 496 93 l 2
 496 72 514 61 548 60 c 1
 548 0 l 1
 526 -7 498 -10 462 -10 c 0
 410 -10 384 14 384 61 c 2
 384 93 l 1x7c
159 157 m 0
 159 103.236488391 200.930522151 73 255 73 c 0
 307.064173633 73 348.498674364 101.569156053 368 135 c 0
 375 147 379 159 379 172 c 2
 379 263 l 1
 316 257 l 2
 244.391057951 249.043450883 159 236.466332663 159 157 c 0
226 723 m 1
 96 723 l 1
 239 578 l 1
 329 578 l 1
 226 723 l 1
EndSplineSet
EndChar

StartChar: aacute
Encoding: 225 225 163
Width: 577
Flags: W
HStem: -10 83<187.205 309.115> -10 70<498.211 546.964> 257 67<214.019 316> 453 84<209.306 351.87> 703 20G<329.655 474>
VStem: 43 116<100.411 212.329> 379 117<64.9526 93 119.776 263 330 427.299>
LayerCount: 2
Fore
SplineSet
384 93 m 1x7e
 356.70603408 31.58857668 303.627056145 -10 216 -10 c 2
 215 -10 l 2xbe
 127.016773926 -10 68.6262972841 30.3079595056 49 99 c 0
 45 113 43 128 43 144 c 0
 43 242.129326155 98.961130594 283.490282649 181 304 c 0
 214 312 254 320 302 324 c 2
 379 330 l 1
 379 366 l 2
 379 424.782565402 342.091423269 453 284 453 c 0
 283 453 281 452 280 452 c 0
 238.402035272 452 206.802038107 437.630900694 187 415 c 0
 183 410 181 405 178 400 c 0
 176 396 173 392 172 387 c 1
 72 412 l 1
 89.7462402988 500.731201494 178.550739799 537 285 537 c 2
 287 537 l 2
 354.643023969 537 408.950881161 524.874265699 446 494 c 0
 461 481 471 469 474 461 c 0
 485 435 490 422 490 421 c 0
 494 412 496 395 496 372 c 2
 496 93 l 2
 496 72 514 61 548 60 c 1
 548 0 l 1
 526 -7 498 -10 462 -10 c 0
 410 -10 384 14 384 61 c 2
 384 93 l 1x7e
159 157 m 0
 159 103.236488391 200.930522151 73 255 73 c 0
 307.064173633 73 348.498674364 101.569156053 368 135 c 0
 375 147 379 159 379 172 c 2
 379 263 l 1
 316 257 l 2
 244.391057951 249.043450883 159 236.466332663 159 157 c 0
344 723 m 1
 474 723 l 1
 330 578 l 1
 240 578 l 1
 344 723 l 1
EndSplineSet
EndChar

StartChar: acircumflex
Encoding: 226 226 164
Width: 577
Flags: W
HStem: -10 83<187.205 309.115> -10 70<498.211 546.964> 257 67<214.019 316> 453 84<209.306 351.87>
VStem: 43 116<100.411 212.329> 379 117<64.9526 93 119.776 263 330 427.299>
LayerCount: 2
Fore
SplineSet
384 93 m 1x7c
 356.70603408 31.58857668 303.627056145 -10 216 -10 c 2
 215 -10 l 2xbc
 127.016773926 -10 68.6262972841 30.3079595056 49 99 c 0
 45 113 43 128 43 144 c 0
 43 242.129326155 98.961130594 283.490282649 181 304 c 0
 214 312 254 320 302 324 c 2
 379 330 l 1
 379 366 l 2
 379 424.782565402 342.091423269 453 284 453 c 0
 283 453 281 452 280 452 c 0
 238.402035272 452 206.802038107 437.630900694 187 415 c 0
 183 410 181 405 178 400 c 0
 176 396 173 392 172 387 c 1
 72 412 l 1
 89.7462402988 500.731201494 178.550739799 537 285 537 c 2
 287 537 l 2
 354.643023969 537 408.950881161 524.874265699 446 494 c 0
 461 481 471 469 474 461 c 0
 485 435 490 422 490 421 c 0
 494 412 496 395 496 372 c 2
 496 93 l 2
 496 72 514 61 548 60 c 1
 548 0 l 1
 526 -7 498 -10 462 -10 c 0
 410 -10 384 14 384 61 c 2
 384 93 l 1x7c
159 157 m 0
 159 103.236488391 200.930522151 73 255 73 c 0
 307.064173633 73 348.498674364 101.569156053 368 135 c 0
 375 147 379 159 379 172 c 2
 379 263 l 1
 316 257 l 2
 244.391057951 249.043450883 159 236.466332663 159 157 c 0
353 578 m 1
 286 645 l 1
 211 578 l 1
 115 578 l 1
 244 700 l 1
 329 700 l 1
 455 578 l 1
 353 578 l 1
EndSplineSet
EndChar

StartChar: atilde
Encoding: 227 227 165
Width: 577
Flags: W
HStem: -10 83<187.205 309.115> -10 70<498.211 546.964> 257 67<214.019 316> 453 84<209.306 351.87> 606 75<269.815 420.212> 633 78<158.524 311.244>
VStem: 43 116<100.411 212.329> 379 117<64.9526 93 119.776 263 330 427.299>
LayerCount: 2
Fore
SplineSet
384 93 m 1x73
 356.70603408 31.58857668 303.627056145 -10 216 -10 c 2
 215 -10 l 2xb3
 127.016773926 -10 68.6262972841 30.3079595056 49 99 c 0
 45 113 43 128 43 144 c 0
 43 242.129326155 98.961130594 283.490282649 181 304 c 0
 214 312 254 320 302 324 c 2
 379 330 l 1
 379 366 l 2
 379 424.782565402 342.091423269 453 284 453 c 0
 283 453 281 452 280 452 c 0
 238.402035272 452 206.802038107 437.630900694 187 415 c 0
 183 410 181 405 178 400 c 0
 176 396 173 392 172 387 c 1
 72 412 l 1
 89.7462402988 500.731201494 178.550739799 537 285 537 c 2
 287 537 l 2
 354.643023969 537 408.950881161 524.874265699 446 494 c 0
 461 481 471 469 474 461 c 0
 485 435 490 422 490 421 c 0
 494 412 496 395 496 372 c 2
 496 93 l 2
 496 72 514 61 548 60 c 1
 548 0 l 1
 526 -7 498 -10 462 -10 c 0
 410 -10 384 14 384 61 c 2
 384 93 l 1x73
159 157 m 0
 159 103.236488391 200.930522151 73 255 73 c 0
 307.064173633 73 348.498674364 101.569156053 368 135 c 0
 375 147 379 159 379 172 c 2
 379 263 l 1
 316 257 l 2
 244.391057951 249.043450883 159 236.466332663 159 157 c 0
356 681 m 0x3b
 390.108962619 681 414.637890103 697.510312083 434 713 c 1
 450 638 l 1
 427.290074206 622.103051944 397.675174146 606 356 606 c 0x3b
 300.229104777 606 273.380077763 633 220 633 c 0
 184.793925409 633 167.598698234 618.199023675 146 602 c 1
 126 669 l 1
 148.969802624 690.055652405 172.961641402 711 216 711 c 0x37
 251.511566572 711 283.921765489 698.359411504 312 689 c 0
 327 684 341 681 356 681 c 0x3b
EndSplineSet
EndChar

StartChar: adieresis
Encoding: 228 228 166
Width: 577
Flags: W
HStem: -10 83<187.205 309.115> -10 70<498.211 546.964> 257 67<214.019 316> 453 84<209.306 351.87> 586 129<134.019 225.932 349.707 441.212>
VStem: 43 116<100.411 212.329> 115 128<603.271 695.965> 331 127<603.368 696.742> 379 117<64.9526 93 119.776 263 330 427.299>
LayerCount: 2
Fore
SplineSet
384 93 m 1x7c80
 356.70603408 31.58857668 303.627056145 -10 216 -10 c 2
 215 -10 l 2xbc80
 127.016773926 -10 68.6262972841 30.3079595056 49 99 c 0
 45 113 43 128 43 144 c 0
 43 242.129326155 98.961130594 283.490282649 181 304 c 0
 214 312 254 320 302 324 c 2
 379 330 l 1
 379 366 l 2
 379 424.782565402 342.091423269 453 284 453 c 0
 283 453 281 452 280 452 c 0
 238.402035272 452 206.802038107 437.630900694 187 415 c 0
 183 410 181 405 178 400 c 0
 176 396 173 392 172 387 c 1
 72 412 l 1
 89.7462402988 500.731201494 178.550739799 537 285 537 c 2
 287 537 l 2
 354.643023969 537 408.950881161 524.874265699 446 494 c 0
 461 481 471 469 474 461 c 0
 485 435 490 422 490 421 c 0
 494 412 496 395 496 372 c 2
 496 93 l 2
 496 72 514 61 548 60 c 1
 548 0 l 1
 526 -7 498 -10 462 -10 c 0
 410 -10 384 14 384 61 c 2
 384 93 l 1x7c80
159 157 m 0
 159 103.236488391 200.930522151 73 255 73 c 0
 307.064173633 73 348.498674364 101.569156053 368 135 c 0
 375 147 379 159 379 172 c 2
 379 263 l 1
 316 257 l 2
 244.391057951 249.043450883 159 236.466332663 159 157 c 0
179 586 m 0
 144.384498359 586 115 615.931191911 115 651 c 0
 115 681.685984263 145.957983556 715 179 715 c 0
 213.083175928 715 243 685.57232948 243 651 c 0x3a
 243 616.20093934 214.693309862 586 179 586 c 0
394 586 m 0
 359.886216505 586 331 616.477899953 331 651 c 0
 331 681.685984263 361.957983556 715 395 715 c 0
 428.58917233 715 458 685.033345474 458 651 c 0x39
 458 616.20093934 429.693309862 586 394 586 c 0
EndSplineSet
EndChar

StartChar: aring
Encoding: 229 229 167
Width: 577
Flags: W
HStem: -10 83<187.205 309.115> -10 70<498.211 546.964> 257 67<214.019 316> 453 84<209.306 351.87> 572 53<244.789 326.015> 729 54<243.514 327.108>
VStem: 43 116<100.411 212.329> 181 52<636.813 718.371> 336 57<634.318 720.34> 379 117<64.9526 93 119.776 263 330 427.299>
LayerCount: 2
Fore
SplineSet
384 93 m 1x7f40
 356.70603408 31.58857668 303.627056145 -10 216 -10 c 2
 215 -10 l 2xbf40
 127.016773926 -10 68.6262972841 30.3079595056 49 99 c 0
 45 113 43 128 43 144 c 0
 43 242.129326155 98.961130594 283.490282649 181 304 c 0
 214 312 254 320 302 324 c 2
 379 330 l 1
 379 366 l 2
 379 424.782565402 342.091423269 453 284 453 c 0
 283 453 281 452 280 452 c 0
 238.402035272 452 206.802038107 437.630900694 187 415 c 0
 183 410 181 405 178 400 c 0
 176 396 173 392 172 387 c 1
 72 412 l 1
 89.7462402988 500.731201494 178.550739799 537 285 537 c 2
 287 537 l 2
 354.643023969 537 408.950881161 524.874265699 446 494 c 0
 461 481 471 469 474 461 c 0
 485 435 490 422 490 421 c 0
 494 412 496 395 496 372 c 2
 496 93 l 2
 496 72 514 61 548 60 c 1
 548 0 l 1
 526 -7 498 -10 462 -10 c 0
 410 -10 384 14 384 61 c 2
 384 93 l 1x7f40
159 157 m 0
 159 103.236488391 200.930522151 73 255 73 c 0
 307.064173633 73 348.498674364 101.569156053 368 135 c 0
 375 147 379 159 379 172 c 2
 379 263 l 1
 316 257 l 2
 244.391057951 249.043450883 159 236.466332663 159 157 c 0
181 680 m 0
 181 737.081904702 229.613359609 783 287 783 c 0
 330.414910481 783 361.289310181 759.33710371 379 731 c 0x3f40
 389 715 393 697 393 678 c 0x3f80
 393 619.260549823 345.41546535 572 287 572 c 0
 226.364706158 572 181 619.513514262 181 680 c 0
286 625 m 0
 314.118815752 625 336 649.835694582 336 678 c 0x3f80
 336 706.798760097 314.114297658 729 286 729 c 0
 258.078156998 729 233 706.250654546 233 678 c 0
 233 650.390784988 258.078432065 625 286 625 c 0
EndSplineSet
EndChar

StartChar: ae
Encoding: 230 230 168
Width: 905
Flags: W
HStem: -10 90<558.267 709.401> -10 82<188.148 325.506> 231 75<503 746> 253 67<204.54 379> 442 85<204.708 351.04 558.28 695.518>
VStem: 43 116<99.9665 212.69> 379 124<139.021 231 320 385.383> 746 115<306 390.772>
LayerCount: 2
Fore
SplineSet
159 156 m 0x5f
 159 103.159641629 202.059084417 72 255 72 c 0
 304.875029849 72 344.304499031 100.217648353 363 132 c 0
 373 149 379 166 379 183 c 2
 379 253 l 1
 315 252 l 2
 235.631189395 252 159 233.300303166 159 156 c 0x5f
631 80 m 0xaf
 684.264468209 80 722.872070312 101.012695312 741.022460938 139 c 1
 846.026367188 114 l 1
 824.361328125 64.44921875 782.51410768 29.708856245 734 10 c 0
 702 -3 668 -10 633 -10 c 0xaf
 532.591032545 -10 461.937472842 34.7452525173 421.475491573 100.067132089 c 1
 404.764003789 54.5035498006 363.545984189 22.3335275353 319 6 c 0
 289 -5 255 -10 216 -10 c 0
 145.92537869 -10 93.4748532224 17.3385583923 65 61 c 0
 50 84 43 111 43 144 c 0
 43 201 64 244 105 273 c 0
 146 302 212 317 302 318 c 2
 380 320 l 1x5f
 380 356 l 2
 380 413.754908571 339.04580785 442 280 442 c 0
 255 442 232 436 211 424 c 0
 195.503731551 415.144989458 184.36364153 402.478322791 176.776104814 386 c 1
 74.5935676185 411.000003429 l 1
 90.9676073563 458.1047766 128.237481937 489.815227037 173 508 c 0
 205 521 243 527 285 527 c 0
 362.541332218 527 425.71881819 509.003960826 462.109319056 466.290419857 c 1
 472.004779136 475.859019503 482.664376567 484.442917711 494 492 c 0
 530 516 574 527 626 527 c 0
 732.708537774 527 799.585657666 478.564408391 834 404 c 0
 852 365 861 320 861 268 c 2
 861 231 l 1
 503 231 l 1
 503 143.80368911 543.67506927 80 631 80 c 0xaf
746 306 m 1
 746 384.834991163 705.373528174 440 626 440 c 0
 549.491981994 440 503 380.790496596 503 306 c 1
 746 306 l 1
EndSplineSet
EndChar

StartChar: ccedilla
Encoding: 231 231 169
Width: 528
Flags: W
HStem: -210 47<751.381 877.467> -88 93<827 860.43> -10 88<215.376 351.35> 442 95<214.103 353.8>
VStem: 39 115<148.781 374.182> 880 77<-158.028 -97.4237>
LayerCount: 2
Fore
SplineSet
154 257 m 0xbc
 154 158.169708678 193.493434632 78 287 78 c 0
 343.770952336 78 379.905023883 117.651754237 392 162 c 1
 490 137 l 1
 474.072346667 78.598604447 437.807043209 39.0304230447 389 13 c 0
 359 -3 324 -10 284 -10 c 0
 179.68675068 -10 107.914263033 39.7823561278 70 112 c 0
 49 152 39 200 39 256 c 0
 39 372.526974166 80.529282274 457.950634927 153 503 c 0
 190 526 234 537 284 537 c 0
 379.741855549 537 447.983710817 488.536650662 478 421 c 1
 376 396 l 1
 358.359067213 423.441451001 328.284954936 442 284 442 c 0
 245 442 214 427 190 397 c 0
 166 367 154 320 154 257 c 0xbc
828 -163 m 0
 854.988415614 -163 880 -154.078598712 880 -130 c 0
 880 -116 873 -105 861 -98 c 0
 849 -91 827 -88 797 -88 c 0
 790.159603263 -88 787.643736432 -86.0687907036 790 -79 c 2
 827 5 l 1
 884 5 l 1xdc
 861 -54 l 1
 903.897440277 -55.7873933449 933.500764251 -69.4180677943 948 -96 c 0
 954 -107 957 -119 957 -130 c 0
 957 -185.226238677 899.423766774 -210 843 -210 c 0
 800.533417395 -210 764.782765008 -200.669659005 737 -184 c 1
 754 -139 l 1
 773.733072475 -150.839843485 796.729660298 -163 828 -163 c 0
EndSplineSet
EndChar

StartChar: egrave
Encoding: 232 232 170
Width: 566
Flags: W
HStem: -10 90<218.846 370.477> 236 75<164 407> 450 87<218.13 356.897>
VStem: 43 121<138.794 236 311 380.652> 407 115<311 397.174>
LayerCount: 2
Fore
SplineSet
288 537 m 0
 444.517581287 537 522 428.649305801 522 272 c 2
 522 236 l 1
 164 236 l 1
 164 146.413041298 202.537955075 80 292 80 c 0
 344.873625721 80 387.935087673 102.493567129 402 140 c 1
 507 113 l 1
 486.935800363 64.2726580243 443.046246979 29.5187878351 395 10 c 0
 363 -3 330 -10 295 -10 c 0
 186.848368931 -10 113.410602473 40.0078713619 75 115 c 0
 54 156 43 204 43 258 c 0
 43 369.810937131 87.2292768362 456.152851224 156 502 c 0
 192 526 237 537 288 537 c 0
407 311 m 1
 407 391.334119425 368.032267261 450 287 450 c 0
 231.115717983 450 194.697905725 417.817102882 178 377 c 0
 169 355 164 333 164 311 c 1
 407 311 l 1
228 723 m 1
 98 723 l 1
 241 578 l 1
 331 578 l 1
 228 723 l 1
EndSplineSet
EndChar

StartChar: eacute
Encoding: 233 233 171
Width: 566
Flags: W
HStem: -10 90<218.846 370.477> 236 75<164 407> 450 87<218.13 356.897> 703 20G<331.655 476>
VStem: 43 121<138.794 236 311 380.652> 407 115<311 397.174>
LayerCount: 2
Fore
SplineSet
288 537 m 0
 444.517581287 537 522 428.649305801 522 272 c 2
 522 236 l 1
 164 236 l 1
 164 146.413041298 202.537955075 80 292 80 c 0
 344.873625721 80 387.935087673 102.493567129 402 140 c 1
 507 113 l 1
 486.935800363 64.2726580243 443.046246979 29.5187878351 395 10 c 0
 363 -3 330 -10 295 -10 c 0
 186.848368931 -10 113.410602473 40.0078713619 75 115 c 0
 54 156 43 204 43 258 c 0
 43 369.810937131 87.2292768362 456.152851224 156 502 c 0
 192 526 237 537 288 537 c 0
407 311 m 1
 407 391.334119425 368.032267261 450 287 450 c 0
 231.115717983 450 194.697905725 417.817102882 178 377 c 0
 169 355 164 333 164 311 c 1
 407 311 l 1
346 723 m 1
 476 723 l 1
 332 578 l 1
 242 578 l 1
 346 723 l 1
EndSplineSet
EndChar

StartChar: ecircumflex
Encoding: 234 234 172
Width: 566
Flags: W
HStem: -10 90<218.846 370.477> 236 75<164 407> 450 87<218.13 356.897>
VStem: 43 121<138.794 236 311 380.652> 407 115<311 397.174>
LayerCount: 2
Fore
SplineSet
288 537 m 0
 444.517581287 537 522 428.649305801 522 272 c 2
 522 236 l 1
 164 236 l 1
 164 146.413041298 202.537955075 80 292 80 c 0
 344.873625721 80 387.935087673 102.493567129 402 140 c 1
 507 113 l 1
 486.935800363 64.2726580243 443.046246979 29.5187878351 395 10 c 0
 363 -3 330 -10 295 -10 c 0
 186.848368931 -10 113.410602473 40.0078713619 75 115 c 0
 54 156 43 204 43 258 c 0
 43 369.810937131 87.2292768362 456.152851224 156 502 c 0
 192 526 237 537 288 537 c 0
407 311 m 1
 407 391.334119425 368.032267261 450 287 450 c 0
 231.115717983 450 194.697905725 417.817102882 178 377 c 0
 169 355 164 333 164 311 c 1
 407 311 l 1
355 578 m 1
 288 645 l 1
 213 578 l 1
 117 578 l 1
 246 700 l 1
 331 700 l 1
 457 578 l 1
 355 578 l 1
EndSplineSet
EndChar

StartChar: edieresis
Encoding: 235 235 173
Width: 566
Flags: W
HStem: -10 90<218.846 370.477> 236 75<164 407> 450 87<218.13 356.897> 586 129<136.019 227.932 352.797 443.212>
VStem: 43 121<138.794 236 311 380.652> 117 128<603.271 695.349> 333 127<603.368 695.349> 407 115<311 397.174>
LayerCount: 2
Fore
SplineSet
288 537 m 0xf9
 444.517581287 537 522 428.649305801 522 272 c 2
 522 236 l 1
 164 236 l 1
 164 146.413041298 202.537955075 80 292 80 c 0
 344.873625721 80 387.935087673 102.493567129 402 140 c 1
 507 113 l 1
 486.935800363 64.2726580243 443.046246979 29.5187878351 395 10 c 0
 363 -3 330 -10 295 -10 c 0
 186.848368931 -10 113.410602473 40.0078713619 75 115 c 0
 54 156 43 204 43 258 c 0
 43 369.810937131 87.2292768362 456.152851224 156 502 c 0
 192 526 237 537 288 537 c 0xf9
407 311 m 1
 407 391.334119425 368.032267261 450 287 450 c 0
 231.115717983 450 194.697905725 417.817102882 178 377 c 0
 169 355 164 333 164 311 c 1
 407 311 l 1
181 586 m 0
 146.384498359 586 117 615.931191911 117 651 c 0
 117 680.894027294 149.015026594 715 181 715 c 0
 215.083175928 715 245 685.57232948 245 651 c 0xf4
 245 616.20093934 216.693309862 586 181 586 c 0
396 586 m 0
 361.886216505 586 333 616.477899953 333 651 c 0
 333 680.894027294 365.015026594 715 397 715 c 0
 430.58917233 715 460 685.033345474 460 651 c 0xf2
 460 616.20093934 431.693309862 586 396 586 c 0
EndSplineSet
EndChar

StartChar: igrave
Encoding: 236 236 174
Width: 268
Flags: W
HStem: 0 21G<76 192>
VStem: 76 116<0 517>
LayerCount: 2
Fore
SplineSet
192 517 m 1
 192 0 l 1
 76 0 l 1
 76 517 l 1
 192 517 l 1
76 723 m 1
 -54 723 l 1
 88 578 l 1
 178 578 l 1
 76 723 l 1
EndSplineSet
EndChar

StartChar: iacute
Encoding: 237 237 175
Width: 268
Flags: W
HStem: 0 21G<76 192> 703 20G<148.207 282>
VStem: 76 116<0 517>
LayerCount: 2
Fore
SplineSet
192 517 m 1
 192 0 l 1
 76 0 l 1
 76 517 l 1
 192 517 l 1
158 723 m 1
 282 723 l 1
 176 578 l 1
 87 578 l 1
 158 723 l 1
EndSplineSet
EndChar

StartChar: icircumflex
Encoding: 238 238 176
Width: 268
Flags: W
HStem: 0 21G<76 192>
VStem: 76 116<0 517>
LayerCount: 2
Fore
SplineSet
192 517 m 1
 192 0 l 1
 76 0 l 1
 76 517 l 1
 192 517 l 1
202 578 m 1
 135 645 l 1
 60 578 l 1
 -36 578 l 1
 94 700 l 1
 178 700 l 1
 304 578 l 1
 202 578 l 1
EndSplineSet
EndChar

StartChar: idieresis
Encoding: 239 239 177
Width: 268
Flags: W
HStem: 0 21G<118 236> 585 128<25.2188 116.932 240.904 332.212>
VStem: 6 128<601.99 693.965> 118 118<0 517> 222 127<602.086 694.742>
LayerCount: 2
Fore
SplineSet
236 517 m 1xd0
 236 0 l 1
 118 0 l 1
 118 517 l 1
 236 517 l 1xd0
70 585 m 0
 35.9168240722 585 6 614.42767052 6 649 c 0
 6 679.685984263 36.9579835558 713 70 713 c 0
 104.083175928 713 134 683.57232948 134 649 c 0xe0
 134 614.692558128 105.164836426 585 70 585 c 0
285 585 m 0
 251.41082767 585 222 614.966654526 222 649 c 0
 222 679.685984263 252.957983556 713 286 713 c 0
 319.58917233 713 349 683.033345474 349 649 c 0xc8
 349 614.692558128 320.164836426 585 285 585 c 0
EndSplineSet
EndChar

StartChar: eth
Encoding: 240 240 178
Width: 585
Flags: W
HStem: -10 92<221.382 356.05> 435 82<217.692 361.538> 536 21G<182 240.421> 712 20G<456.062 515> 720 20G<196 352.157>
VStem: 39 119<156.944 366.919> 416 130<153.581 371.677>
LayerCount: 2
Fore
SplineSet
289 82 m 0xe6
 380.218790984 82 416 169.089908714 416 260 c 0
 416 356.760163864 385.520151806 435 289 435 c 0
 195.514442753 435 158 353.571526579 158 260 c 0
 158 196.128135176 179.805411539 139.489894939 215 108 c 0
 234 91 259 82 289 82 c 0xe6
182 536 m 1
 182 619 l 1
 302.865992361 660.014585996 l 1
 288.508665662 671.691056785 273.519885773 682.653409485 258 693 c 0
 234 709 213 721 196 731 c 1
 340 740 l 1xee
 364.313574366 726.908075342 386.134299256 711.872508929 405.635219266 694.888227559 c 1
 515 732 l 1xf6
 515 650 l 1
 461.782630322 631.781441011 l 1
 521.959731471 544.135915864 546 423.326981819 546 269 c 0
 543.918497516 154.517363385 498.812211356 71.9866598035 426 26 c 0
 388 2 344 -10 293 -10 c 0
 184.241784457 -10 110.291205462 45.0306184277 71 118 c 0
 50 157 39 202 39 251 c 0
 39 379.468619215 98.3545569541 461.491540809 189 499 c 0
 218 511 249 517 282 517 c 0
 371.287401332 517 424.229430381 480.603711161 457 424 c 1
 437.916582559 494.461849014 406.269538812 551.54657822 365.80226839 598.923299088 c 1
 182 536 l 1
EndSplineSet
EndChar

StartChar: ntilde
Encoding: 241 241 179
Width: 585
Flags: W
HStem: -0 21G<69 190 403 525> 436 97<249.546 370.717> 605 76<279.42 434.135> 632 78<171.104 324.248>
VStem: 69 121<0 401.92 453 527> 403 122<0 403.095>
LayerCount: 2
Fore
SplineSet
304 436 m 0xcc
 245.04987349 436 190 407.337282364 190 348 c 2
 190 0 l 1
 69 0 l 1
 69 527 l 1
 188 527 l 1
 188 453 l 1
 216.991135173 500.110594656 266.032965166 533 344 533 c 0
 416.936152495 533 468.915175065 501.78178078 499 454 c 0
 516 427 525 393 525 350 c 2
 525 -0 l 1
 403 -0 l 1
 403 336 l 2
 403 399.652857749 364.280319574 436 304 436 c 0xcc
231 710 m 0xdc
 285.754662981 710 318.800599112 681 371 681 c 0
 387 681 402 684 414 691 c 0
 426 698 438 704 448 712 c 1
 466 637 l 1
 443.843111939 621.490178358 410.668398739 605 371 605 c 0xec
 316.348395926 605 289.104423177 632 235 632 c 0
 198.224468424 632 182.202583473 618.651937605 160 602 c 1
 140 668 l 1
 163.665423788 689.693305139 186.4134183 710 231 710 c 0xdc
EndSplineSet
EndChar

StartChar: ograve
Encoding: 242 242 180
Width: 565
Flags: W
HStem: -10 93<214.945 351.651> 446 91<215.911 351.921>
VStem: 39 119<146.962 377.444> 407 119<147.652 381.084>
LayerCount: 2
Fore
SplineSet
284 -10 m 0
 178.443973097 -10 105.759173279 39.4816534412 69 113 c 0
 49 153 39 202 39 261 c 0
 39 376.855900186 79.9549478236 458.215237836 152 503 c 0
 189 526 233 537 284 537 c 0
 388.69287634 537 460.571169843 484.857660315 497 412 c 0
 517 372 526 321 526 261 c 0
 526 147.238390775 486.126453371 68.8030118759 416 24 c 0
 380 1 336 -10 284 -10 c 0
284 83 m 0
 377.945122675 83 407 168.363923589 407 265 c 0
 407 333.655323565 392.132058082 388.882615038 356 421 c 0
 338 437 314 446 284 446 c 0
 223.421193929 446 188.349267796 408.231218079 172 361 c 0
 163 335 158 303 158 265 c 0
 158 167.51289079 187.19193802 83 284 83 c 0
223 723 m 1
 93 723 l 1
 236 578 l 1
 326 578 l 1
 223 723 l 1
EndSplineSet
EndChar

StartChar: oacute
Encoding: 243 243 181
Width: 565
Flags: W
HStem: -10 93<214.945 351.651> 446 91<215.911 351.921> 703 20G<325.793 470>
VStem: 39 119<146.962 377.444> 407 119<147.652 381.084>
LayerCount: 2
Fore
SplineSet
284 -10 m 0
 178.443973097 -10 105.759173279 39.4816534412 69 113 c 0
 49 153 39 202 39 261 c 0
 39 376.855900186 79.9549478236 458.215237836 152 503 c 0
 189 526 233 537 284 537 c 0
 388.69287634 537 460.571169843 484.857660315 497 412 c 0
 517 372 526 321 526 261 c 0
 526 147.238390775 486.126453371 68.8030118759 416 24 c 0
 380 1 336 -10 284 -10 c 0
284 83 m 0
 377.945122675 83 407 168.363923589 407 265 c 0
 407 333.655323565 392.132058082 388.882615038 356 421 c 0
 338 437 314 446 284 446 c 0
 223.421193929 446 188.349267796 408.231218079 172 361 c 0
 163 335 158 303 158 265 c 0
 158 167.51289079 187.19193802 83 284 83 c 0
340 723 m 1
 470 723 l 1
 327 578 l 1
 237 578 l 1
 340 723 l 1
EndSplineSet
EndChar

StartChar: ocircumflex
Encoding: 244 244 182
Width: 565
Flags: W
HStem: -10 93<214.945 351.651> 446 91<215.911 351.921>
VStem: 39 119<146.962 377.444> 407 119<147.652 381.084>
LayerCount: 2
Fore
SplineSet
284 -10 m 0
 178.443973097 -10 105.759173279 39.4816534412 69 113 c 0
 49 153 39 202 39 261 c 0
 39 376.855900186 79.9549478236 458.215237836 152 503 c 0
 189 526 233 537 284 537 c 0
 388.69287634 537 460.571169843 484.857660315 497 412 c 0
 517 372 526 321 526 261 c 0
 526 147.238390775 486.126453371 68.8030118759 416 24 c 0
 380 1 336 -10 284 -10 c 0
284 83 m 0
 377.945122675 83 407 168.363923589 407 265 c 0
 407 333.655323565 392.132058082 388.882615038 356 421 c 0
 338 437 314 446 284 446 c 0
 223.421193929 446 188.349267796 408.231218079 172 361 c 0
 163 335 158 303 158 265 c 0
 158 167.51289079 187.19193802 83 284 83 c 0
350 578 m 1
 283 645 l 1
 208 578 l 1
 112 578 l 1
 241 700 l 1
 326 700 l 1
 452 578 l 1
 350 578 l 1
EndSplineSet
EndChar

StartChar: otilde
Encoding: 245 245 183
Width: 565
Flags: W
HStem: -10 93<214.945 351.651> 446 91<215.911 351.921> 606 75<266.244 417.114> 633 78<155.599 308.732>
VStem: 39 119<146.962 377.444> 407 119<147.652 381.084>
LayerCount: 2
Fore
SplineSet
284 -10 m 0xcc
 178.443973097 -10 105.759173279 39.4816534412 69 113 c 0
 49 153 39 202 39 261 c 0
 39 376.855900186 79.9549478236 458.215237836 152 503 c 0
 189 526 233 537 284 537 c 0
 388.69287634 537 460.571169843 484.857660315 497 412 c 0
 517 372 526 321 526 261 c 0
 526 147.238390775 486.126453371 68.8030118759 416 24 c 0
 380 1 336 -10 284 -10 c 0xcc
284 83 m 0
 377.945122675 83 407 168.363923589 407 265 c 0
 407 333.655323565 392.132058082 388.882615038 356 421 c 0
 338 437 314 446 284 446 c 0
 223.421193929 446 188.349267796 408.231218079 172 361 c 0
 163 335 158 303 158 265 c 0
 158 167.51289079 187.19193802 83 284 83 c 0
354 681 m 0xec
 387.542804959 681 411.898466934 697.718773547 431 713 c 1
 448 638 l 1
 425.290074206 622.103051944 395.675174146 606 354 606 c 0xec
 298.420111325 606 270.845811058 633 218 633 c 0
 182.175343653 633 164.863893319 618.397919989 143 602 c 1
 123 669 l 1
 145.969802624 690.055652405 169.961641402 711 213 711 c 0xdc
 248.511566572 711 280.921765489 698.359411504 309 689 c 0
 324 684 339 681 354 681 c 0xec
EndSplineSet
EndChar

StartChar: odieresis
Encoding: 246 246 184
Width: 565
Flags: W
HStem: -10 93<214.945 351.651> 446 91<215.911 351.921> 586 129<131.019 222.932 347.797 438.212>
VStem: 39 119<146.962 377.444> 112 128<603.271 695.349> 328 127<603.368 695.349> 407 119<147.652 381.084>
LayerCount: 2
Fore
SplineSet
284 -10 m 0xf2
 178.443973097 -10 105.759173279 39.4816534412 69 113 c 0
 49 153 39 202 39 261 c 0
 39 376.855900186 79.9549478236 458.215237836 152 503 c 0
 189 526 233 537 284 537 c 0
 388.69287634 537 460.571169843 484.857660315 497 412 c 0
 517 372 526 321 526 261 c 0
 526 147.238390775 486.126453371 68.8030118759 416 24 c 0
 380 1 336 -10 284 -10 c 0xf2
284 83 m 0
 377.945122675 83 407 168.363923589 407 265 c 0
 407 333.655323565 392.132058082 388.882615038 356 421 c 0
 338 437 314 446 284 446 c 0
 223.421193929 446 188.349267796 408.231218079 172 361 c 0
 163 335 158 303 158 265 c 0
 158 167.51289079 187.19193802 83 284 83 c 0
176 586 m 0
 141.384498359 586 112 615.931191911 112 651 c 0
 112 680.894027294 144.015026594 715 176 715 c 0
 210.083175928 715 240 685.57232948 240 651 c 0xe8
 240 616.20093934 211.693309862 586 176 586 c 0
391 586 m 0
 356.886216505 586 328 616.477899953 328 651 c 0
 328 680.894027294 360.015026594 715 392 715 c 0
 425.58917233 715 455 685.033345474 455 651 c 0xe4
 455 616.20093934 426.693309862 586 391 586 c 0
EndSplineSet
EndChar

StartChar: divide
Encoding: 247 247 185
Width: 573
Flags: W
HStem: 93 163<235.944 341.208> 318 90<60 514> 471 162<234.015 341.631>
VStem: 206 162<119.985 225.442 497.655 604.462>
LayerCount: 2
Fore
SplineSet
287 471 m 0
 242.323395663 471 206 507.548579115 206 552 c 0
 206 570 214 589 230 607 c 0
 246 625 265 633 288 633 c 0
 332.174789408 633 368 595.907026199 368 552 c 0
 368 507.560655643 332.160653612 471 287 471 c 0
287 93 m 0
 243.390784988 93 206 130.392160326 206 174 c 0
 206 192 214 211 230 229 c 0
 246 247 265 256 288 256 c 0
 331.636974887 256 368 217.559919638 368 174 c 0
 368 130.390784988 331.093790415 93 287 93 c 0
514 409 m 1
 514 318 l 1
 60 318 l 1
 60 408 l 1
 514 409 l 1
EndSplineSet
EndChar

StartChar: oslash
Encoding: 248 248 186
Width: 600
Flags: W
HStem: -10 93<230.614 368.892> 436 91<232.119 370.433>
VStem: 57 119<194.112 369.65> 425 119<146.048 328.446>
LayerCount: 2
Fore
SplineSet
418.145307354 329.442763132 m 1
 208.570692931 129.808446626 l 1
 214.305437677 121.091488152 220.785142918 113.413206295 228 107 c 0
 246 91 272 83 302 83 c 0
 393.74076835 83 425 166.554633004 425 260 c 0
 425 284.24041818 422.896190005 307.825062509 418.145307354 329.442763132 c 1
391.953505131 392.149682125 m 1
 372.538803036 419.146931179 343.480875573 436 302 436 c 0
 209.487271812 436 176 354.192157833 176 260 c 0
 176 236.635439177 178.403465122 213.849728988 183.157524076 192.863221 c 1
 391.953505131 392.149682125 l 1
91.1606751154 105.056327536 m 2
 89.7269637463 107.671603341 88.3400445109 110.319910978 87 113 c 0
 67 153 57 200 57 256 c 0
 57 368.242518437 100.454692175 448.568275556 170 493 c 0
 206 516 251 527 302 527 c 0
 373.565754915 527 428.747871679 503.153910524 468.262518888 464.983235849 c 1
 528 522 l 1
 572 476 l 1
 507.350800502 414.417165695 l 1
 509.677919898 410.35264855 511.894173751 406.211652499 514 402 c 0
 534 362 544 313 544 256 c 0
 544 146.980219716 502.223995917 67.587552947 434 24 c 0
 398 1 353 -10 301 -10 c 0
 227.092734797 -10 169.654970325 14.3803962802 129.272542888 54.2714736606 c 1
 66 -6 l 1
 23 40 l 1
 91.1606751154 105.056327536 l 2
EndSplineSet
EndChar

StartChar: ugrave
Encoding: 249 249 187
Width: 581
Flags: W
HStem: -10 90<219.431 351.561> -0 21G<423.426 520> 507 20G<62 184 399 520>
VStem: 62 122<113.192 527> 399 121<114.13 527> 426 94<0 54.3846>
LayerCount: 2
Fore
SplineSet
413 101 m 1x74
 397.495781992 28.64698263 343.069271274 -10 259 -10 c 0
 172.80128834 -10 108.190062728 30.3644257011 78 88 c 0
 67 109 62 134 62 162 c 2
 62 527 l 1
 184 527 l 1
 184 176 l 2
 184 114.613915302 226.151843322 80 291 80 c 0
 355.999010527 80 399 115.00486531 399 180 c 2
 399 527 l 1
 520 527 l 1xb8
 520 -0 l 1
 426 -0 l 1
 413 101 l 1x74
232 723 m 1
 102 723 l 1
 245 577 l 1
 335 577 l 1
 232 723 l 1
EndSplineSet
EndChar

StartChar: uacute
Encoding: 250 250 188
Width: 581
Flags: W
HStem: -10 90<219.431 351.561> -0 21G<423.426 520> 507 20G<62 184 399 520> 703 20G<335.89 480>
VStem: 62 122<113.192 527> 399 121<114.13 527> 426 94<0 54.3846>
LayerCount: 2
Fore
SplineSet
413 101 m 1x7a
 397.495781992 28.64698263 343.069271274 -10 259 -10 c 0
 172.80128834 -10 108.190062728 30.3644257011 78 88 c 0
 67 109 62 134 62 162 c 2
 62 527 l 1
 184 527 l 1
 184 176 l 2
 184 114.613915302 226.151843322 80 291 80 c 0
 355.999010527 80 399 115.00486531 399 180 c 2
 399 527 l 1
 520 527 l 1xbc
 520 -0 l 1
 426 -0 l 1
 413 101 l 1x7a
350 723 m 1
 480 723 l 1
 337 577 l 1
 247 577 l 1
 350 723 l 1
EndSplineSet
EndChar

StartChar: ucircumflex
Encoding: 251 251 189
Width: 581
Flags: W
HStem: -10 90<219.431 351.561> -0 21G<423.426 520> 507 20G<62 184 399 520>
VStem: 62 122<113.192 527> 399 121<114.13 527> 426 94<0 54.3846>
LayerCount: 2
Fore
SplineSet
413 101 m 1x74
 397.495781992 28.64698263 343.069271274 -10 259 -10 c 0
 172.80128834 -10 108.190062728 30.3644257011 78 88 c 0
 67 109 62 134 62 162 c 2
 62 527 l 1
 184 527 l 1
 184 176 l 2
 184 114.613915302 226.151843322 80 291 80 c 0
 355.999010527 80 399 115.00486531 399 180 c 2
 399 527 l 1
 520 527 l 1xb8
 520 -0 l 1
 426 -0 l 1
 413 101 l 1x74
359 577 m 1
 292 645 l 1
 217 577 l 1
 121 577 l 1
 250 699 l 1
 335 699 l 1
 461 577 l 1
 359 577 l 1
EndSplineSet
EndChar

StartChar: udieresis
Encoding: 252 252 190
Width: 581
Flags: W
HStem: -10 90<219.431 351.561> -0 21G<423.426 520> 507 20G<62 184 399 520> 586 129<140.8 232.118 356.999 447.31>
VStem: 62 122<113.192 527> 121 128<602.99 695.051> 337 127<603.086 695.051> 399 121<114.13 527> 426 94<0 54.3846>
LayerCount: 2
Fore
SplineSet
413 101 m 1x7080
 397.495781992 28.64698263 343.069271274 -10 259 -10 c 0
 172.80128834 -10 108.190062728 30.3644257011 78 88 c 0
 67 109 62 134 62 162 c 2
 62 527 l 1
 184 527 l 1
 184 176 l 2
 184 114.613915302 226.151843322 80 291 80 c 0
 355.999010527 80 399 115.00486531 399 180 c 2
 399 527 l 1
 520 527 l 1xb9
 520 -0 l 1
 426 -0 l 1
 413 101 l 1x7080
185 586 m 0
 150.916824072 586 121 615.42767052 121 650 c 0
 121 680.387578856 152.46637539 715 185 715 c 0
 219.615501641 715 249 685.068808089 249 650 c 0x34
 249 615.692558128 220.164836426 586 185 586 c 0
400 586 m 0
 366.41082767 586 337 615.966654526 337 650 c 0
 337 680.387578856 368.46637539 715 401 715 c 0
 435.113783495 715 464 684.522100047 464 650 c 0x32
 464 615.692558128 435.164836426 586 400 586 c 0
EndSplineSet
EndChar

StartChar: yacute
Encoding: 253 253 191
Width: 549
Flags: W
HStem: -165 91.6698<47.3125 182.561> -157 85<67 134.46> 507 20G<18 146.385 405.615 532> 703 20G<318.793 463>
LayerCount: 2
Fore
SplineSet
136 -165 m 0xb0
 103 -165 80 -162 67 -157 c 2
 47 -150 l 1
 47 -72 l 1x70
 99 -73 l 2
 103.826588155 -73.2193903707 108.421797145 -73.3301921939 112.801668734 -73.3301921939 c 0
 166.157089635 -73.3301921939 187.556407583 -56.8871848344 206 -20 c 1
 219 18 l 1
 18 527 l 1
 139 527 l 1
 276 156 l 1
 413 527 l 1
 532 527 l 1
 319 -19 l 2
 304 -57 287 -87 267 -109 c 0
 235.726066086 -145.486256233 197.111132992 -165 136 -165 c 0xb0
333 723 m 1
 463 723 l 1
 320 578 l 1
 230 578 l 1
 333 723 l 1
EndSplineSet
EndChar

StartChar: thorn
Encoding: 254 254 192
Width: 595
Flags: W
HStem: -10 80<247.892 371.264> 446 81<258.869 375.006> 703 20G<69 190>
VStem: 69 121<-161 47.9509 105.014 406.532 449 723> 432 124<142.525 382.115>
LayerCount: 2
Fore
SplineSet
190 449 m 1
 226.791412204 489.470553424 270.454222583 527 350 527 c 0
 438.414379574 527 497.495080464 478.093992328 528 412 c 0
 546 373 556 323 556 264 c 0
 556 149.261855285 520.283498957 62.677186848 452 20 c 0
 420 0 382 -10 341 -10 c 0
 281.891372275 -10 239.904570134 10.7514932143 207 40 c 0
 200 46 196 49 194 48 c 0
 192 47 190 43 190 34 c 2
 190 -161 l 1
 69 -161 l 1
 69 723 l 1
 190 723 l 1
 190 449 l 1
432 265 m 0
 432 368.11031679 400.035793311 446 303 446 c 0
 257.985055644 446 224.033224725 424.646514615 205 398 c 0
 195 384 190 369 190 354 c 2
 190 126 l 1
 215.592554957 96.995104382 249.074295309 70 299 70 c 0
 399.340019291 70 432 159.038554842 432 265 c 0
EndSplineSet
EndChar

StartChar: ydieresis
Encoding: 255 255 193
Width: 549
Flags: W
HStem: -165 91.6698<47.3125 182.561> -157 85<67 134.46> 507 20G<18 146.385 405.615 532> 586 129<124.8 216.118 340.999 431.31>
VStem: 105 128<602.99 695.051> 321 127<603.086 695.051>
LayerCount: 2
Fore
SplineSet
136 -165 m 0xbc
 103 -165 80 -162 67 -157 c 2
 47 -150 l 1
 47 -72 l 1x7c
 99 -73 l 2
 103.826588155 -73.2193903707 108.421797145 -73.3301921939 112.801668734 -73.3301921939 c 0
 166.157089635 -73.3301921939 187.556407583 -56.8871848344 206 -20 c 1
 219 18 l 1
 18 527 l 1
 139 527 l 1
 276 156 l 1
 413 527 l 1
 532 527 l 1
 319 -19 l 2
 304 -57 287 -87 267 -109 c 0
 235.726066086 -145.486256233 197.111132992 -165 136 -165 c 0xbc
169 586 m 0
 134.916824072 586 105 615.42767052 105 650 c 0
 105 680.387578856 136.46637539 715 169 715 c 0
 203.615501641 715 233 685.068808089 233 650 c 0
 233 615.692558128 204.164836426 586 169 586 c 0
384 586 m 0
 350.41082767 586 321 615.966654526 321 650 c 0
 321 680.387578856 352.46637539 715 385 715 c 0
 419.113783495 715 448 684.522100047 448 650 c 0
 448 615.692558128 419.164836426 586 384 586 c 0
EndSplineSet
EndChar

StartChar: Amacron
Encoding: 256 256 194
Width: 719
Flags: W
HStem: 0 21G<34 163.253 555.857 685> 182 108<250 468> 703 20G<286.808 433.165> 816 80<196 523>
LayerCount: 2
Fore
SplineSet
34 0 m 1
 294 723 l 1
 426 723 l 1
 685 0 l 1
 563 0 l 1
 498 182 l 1
 222 182 l 1
 156 0 l 1
 34 0 l 1
250 290 m 1
 468 290 l 1
 360 604 l 1
 250 290 l 1
523 896 m 1
 523 816 l 1
 196 816 l 1
 196 896 l 1
 523 896 l 1
EndSplineSet
EndChar

StartChar: amacron
Encoding: 257 257 195
Width: 577
Flags: W
HStem: -10 83<187.205 309.115> -10 70<498.211 546.964> 257 67<214.019 316> 453 84<209.306 351.87> 610 80<122 450>
VStem: 43 116<100.411 212.329> 379 117<64.9526 93 119.776 263 330 427.299>
LayerCount: 2
Fore
SplineSet
384 93 m 1x7e
 356.70603408 31.58857668 303.627056145 -10 216 -10 c 2
 215 -10 l 2xbe
 127.016773926 -10 68.6262972841 30.3079595056 49 99 c 0
 45 113 43 128 43 144 c 0
 43 242.129326155 98.961130594 283.490282649 181 304 c 0
 214 312 254 320 302 324 c 2
 379 330 l 1
 379 366 l 2
 379 424.782565402 342.091423269 453 284 453 c 0
 283 453 281 452 280 452 c 0
 238.402035272 452 206.802038107 437.630900694 187 415 c 0
 183 410 181 405 178 400 c 0
 176 396 173 392 172 387 c 1
 72 412 l 1
 89.7462402988 500.731201494 178.550739799 537 285 537 c 2
 287 537 l 2
 354.643023969 537 408.950881161 524.874265699 446 494 c 0
 461 481 471 469 474 461 c 0
 485 435 490 422 490 421 c 0
 494 412 496 395 496 372 c 2
 496 93 l 2
 496 72 514 61 548 60 c 1
 548 0 l 1
 526 -7 498 -10 462 -10 c 0
 410 -10 384 14 384 61 c 2
 384 93 l 1x7e
159 157 m 0
 159 103.236488391 200.930522151 73 255 73 c 0
 307.064173633 73 348.498674364 101.569156053 368 135 c 0
 375 147 379 159 379 172 c 2
 379 263 l 1
 316 257 l 2
 244.391057951 249.043450883 159 236.466332663 159 157 c 0
450 690 m 1
 450 610 l 1
 122 610 l 1
 122 690 l 1
 450 690 l 1
EndSplineSet
EndChar

StartChar: Abreve
Encoding: 258 258 196
Width: 719
Flags: W
HStem: 0 21G<34 163.253 555.857 685> 182 108<250 468> 703 20G<286.808 433.165> 783 63<298.005 419.426>
VStem: 195 81<869.6 902>
LayerCount: 2
Fore
SplineSet
34 0 m 1
 294 723 l 1
 426 723 l 1
 685 0 l 1
 563 0 l 1
 498 182 l 1
 222 182 l 1
 156 0 l 1
 34 0 l 1
250 290 m 1
 468 290 l 1
 360 604 l 1
 250 290 l 1
359 846 m 0
 401.757052803 846 432.210263756 870.56070335 444 902 c 1
 524 902 l 1
 509.383838152 828.919190759 445.600094675 783 359 783 c 0
 269.953890685 783 212.006397411 828.305611219 195 902 c 1
 276 902 l 1
 286.124477174 869.601673042 316.465084767 846 359 846 c 0
EndSplineSet
EndChar

StartChar: abreve
Encoding: 259 259 197
Width: 577
Flags: W
HStem: -10 83<187.205 309.115> -10 70<498.211 546.964> 257 67<214.019 316> 453 84<209.306 351.87> 577 63<224.717 346.156>
VStem: 43 116<100.411 212.329> 122 80<663.6 696> 379 117<64.9526 93 119.776 263 330 427.299>
LayerCount: 2
Fore
SplineSet
384 93 m 1x7d
 356.70603408 31.58857668 303.627056145 -10 216 -10 c 2
 215 -10 l 2xbd
 127.016773926 -10 68.6262972841 30.3079595056 49 99 c 0
 45 113 43 128 43 144 c 0
 43 242.129326155 98.961130594 283.490282649 181 304 c 0
 214 312 254 320 302 324 c 2
 379 330 l 1
 379 366 l 2
 379 424.782565402 342.091423269 453 284 453 c 0
 283 453 281 452 280 452 c 0
 238.402035272 452 206.802038107 437.630900694 187 415 c 0
 183 410 181 405 178 400 c 0
 176 396 173 392 172 387 c 1
 72 412 l 1
 89.7462402988 500.731201494 178.550739799 537 285 537 c 2
 287 537 l 2
 354.643023969 537 408.950881161 524.874265699 446 494 c 0
 461 481 471 469 474 461 c 0
 485 435 490 422 490 421 c 0
 494 412 496 395 496 372 c 2
 496 93 l 2
 496 72 514 61 548 60 c 1
 548 0 l 1
 526 -7 498 -10 462 -10 c 0
 410 -10 384 14 384 61 c 2
 384 93 l 1x7d
159 157 m 0
 159 103.236488391 200.930522151 73 255 73 c 0
 307.064173633 73 348.498674364 101.569156053 368 135 c 0
 375 147 379 159 379 172 c 2
 379 263 l 1
 316 257 l 2
 244.391057951 249.043450883 159 236.466332663 159 157 c 0
286 640 m 0
 329.11076993 640 358.102259073 664.27269086 370 696 c 1
 450 696 l 1
 435.274801104 622.374005522 373.040756109 577 286 577 c 0
 196.953890685 577 139.006397411 622.305611219 122 696 c 1
 202 696 l 1x3b
 212.025663048 663.917878248 243.823694483 640 286 640 c 0
EndSplineSet
EndChar

StartChar: Aogonek
Encoding: 260 260 198
Width: 719
Flags: W
HStem: -170 60<594.453 704.11> 0 2.08119<684.254 685> 182 108<250 468> 703 20G<286.808 433.165>
VStem: 501 91<-106.936 -35.5989>
LayerCount: 2
Fore
SplineSet
250 290 m 1
 468 290 l 1
 360 604 l 1
 250 290 l 1
606 -170 m 0
 546.648285179 -170 501 -145.362737244 501 -89 c 0
 501 -70 508 -53 521 -37 c 0
 532.024267863 -23.4316703222 552.397342028 -11.3016185369 582.729067139 -2.53269627493e-16 c 1
 563 0 l 1
 498 182 l 1
 222 182 l 1
 156 0 l 1
 34 0 l 1
 294 723 l 1
 426 723 l 1
 684.254456838 2.08118805404 l 1
 686 2 l 1
 685.495025499 1.80692151431 684.992036286 1.61384302861 684.491038914 1.42076781913 c 2
 685 0 l 1
 680.840163255 -6.63531729561e-17 l 1
 649.464656737 -12.3307930573 626.28200286 -24.6154261204 613 -36 c 0
 599 -48 592 -61 592 -76 c 0
 592 -99.822364849 607.436484746 -110 633 -110 c 0
 660.098046611 -110 688.378810105 -100.388243685 705 -90 c 1
 705 -148 l 1
 684.191328707 -159.560372941 640.228024673 -170 606 -170 c 0
EndSplineSet
EndChar

StartChar: aogonek
Encoding: 261 261 199
Width: 577
Flags: W
HStem: -166 60<400.29 511.091> -10 83<187.205 309.115> -10 70<498.211 546.964> 257 67<214.019 316> 453 84<209.306 351.87>
VStem: 43 116<100.411 212.329> 308 90<-102.913 -32.8772> 379 117<64.9526 93 119.776 263 330 427.299>
LayerCount: 2
Fore
SplineSet
159 157 m 0xdd
 159 103.236488391 200.930522151 73 255 73 c 0
 307.064173633 73 348.498674364 101.569156053 368 135 c 0
 375 147 379 159 379 172 c 2
 379 263 l 1
 316 257 l 2
 244.391057951 249.043450883 159 236.466332663 159 157 c 0xdd
412 -166 m 0
 351.92786044 -166 308 -141.98535529 308 -85 c 0xbe
 308 -66 314 -49 327 -33 c 0
 339.61384177 -17.4752716678 364.466837709 -3.83349013086 402.472495237 8.8388520315 c 1
 390.157498412 20.7020492204 384 38.1275156971 384 61 c 2
 384 93 l 1
 356.70603408 31.58857668 303.627056145 -10 216 -10 c 2
 215 -10 l 2
 127.016773926 -10 68.6262972841 30.3079595056 49 99 c 0
 45 113 43 128 43 144 c 0
 43 242.129326155 98.961130594 283.490282649 181 304 c 0
 214 312 254 320 302 324 c 2
 379 330 l 1
 379 366 l 2
 379 424.782565402 342.091423269 453 284 453 c 0
 283 453 281 452 280 452 c 0
 238.402035272 452 206.802038107 437.630900694 187 415 c 0
 183 410 181 405 178 400 c 0
 176 396 173 392 172 387 c 1
 72 412 l 1
 89.7462402988 500.731201494 178.550739799 537 285 537 c 2
 287 537 l 2
 354.643023969 537 408.950881161 524.874265699 446 494 c 0
 461 481 471 469 474 461 c 0
 485 435 490 422 490 421 c 0
 494 412 496 395 496 372 c 2
 496 93 l 2xdd
 496 72 514 61 548 60 c 1
 548 0 l 1
 526 -7 498 -10 462 -10 c 0
 460.160117631 -10 458.352784946 -9.96995413788 456.578001959 -9.90990673918 c 0
 440.696117246 -17.4226572226 428.503449922 -24.7113285963 420 -32 c 0
 406 -44 398 -57 398 -72 c 0xbe
 398 -96.2625824219 413.993491781 -106 440 -106 c 0
 467.098046611 -106 495.378810105 -96.3882436845 512 -86 c 1
 512 -144 l 1
 490.347269288 -156.02929484 448.635191886 -166 412 -166 c 0
EndSplineSet
EndChar

StartChar: Cacute
Encoding: 262 262 200
Width: 694
Flags: W
HStem: -10 102<280.571 444.549> 631 102<276.91 448.743>
VStem: 50 135<210.304 520.35>
LayerCount: 2
Fore
SplineSet
366 631 m 0
 223.129922731 631 185 514.984150762 185 364 c 0
 185 269 201 200 232 157 c 0
 263 114 308 92 366 92 c 0
 453.687879278 92 502.595685943 151.063606584 521 221 c 1
 644 190 l 1
 611.661028261 68.7288559793 524.522351444 -10 369 -10 c 0
 225.410296393 -10 136.750816275 63.1520880235 89 166 c 0
 63 222 50 289 50 366 c 0
 50 520.045763409 102.008657675 631.005230679 198 689 c 0
 246 718 302 733 369 733 c 0
 480.511038235 733 562.669608673 682.568979164 609 614 c 0
 624 592 636 568 644 542 c 1
 521 510 l 1
 503.055239288 578.190090705 450.998536797 631 366 631 c 0
424 929 m 1
 554 929 l 1
 411 784 l 1
 321 784 l 1
 424 929 l 1
EndSplineSet
EndChar

StartChar: cacute
Encoding: 263 263 201
Width: 528
Flags: W
HStem: -10 88<215.376 351.35> 442 95<214.103 353.8> 703 20G<895.89 1040>
VStem: 39 115<148.781 374.182>
LayerCount: 2
Fore
SplineSet
154 257 m 0
 154 158.169708678 193.493434632 78 287 78 c 0
 343.770952336 78 379.905023883 117.651754237 392 162 c 1
 490 137 l 1
 474.072346667 78.598604447 437.807043209 39.0304230447 389 13 c 0
 359 -3 324 -10 284 -10 c 0
 179.68675068 -10 107.914263033 39.7823561278 70 112 c 0
 49 152 39 200 39 256 c 0
 39 372.526974166 80.529282274 457.950634927 153 503 c 0
 190 526 234 537 284 537 c 0
 379.741855549 537 447.983710817 488.536650662 478 421 c 1
 376 396 l 1
 358.359067213 423.441451001 328.284954936 442 284 442 c 0
 245 442 214 427 190 397 c 0
 166 367 154 320 154 257 c 0
910 723 m 1
 1040 723 l 1
 897 577 l 1
 807 577 l 1
 910 723 l 1
EndSplineSet
EndChar

StartChar: Ccircumflex
Encoding: 264 264 202
Width: 694
Flags: W
HStem: -10 102<280.571 444.549> 631 102<276.91 448.743>
VStem: 50 135<210.304 520.35>
LayerCount: 2
Fore
SplineSet
366 631 m 0
 223.129922731 631 185 514.984150762 185 364 c 0
 185 269 201 200 232 157 c 0
 263 114 308 92 366 92 c 0
 453.687879278 92 502.595685943 151.063606584 521 221 c 1
 644 190 l 1
 611.661028261 68.7288559793 524.522351444 -10 369 -10 c 0
 225.410296393 -10 136.750816275 63.1520880235 89 166 c 0
 63 222 50 289 50 366 c 0
 50 520.045763409 102.008657675 631.005230679 198 689 c 0
 246 718 302 733 369 733 c 0
 480.511038235 733 562.669608673 682.568979164 609 614 c 0
 624 592 636 568 644 542 c 1
 521 510 l 1
 503.055239288 578.190090705 450.998536797 631 366 631 c 0
434 784 m 1
 366 851 l 1
 292 784 l 1
 196 784 l 1
 325 906 l 1
 410 906 l 1
 536 784 l 1
 434 784 l 1
EndSplineSet
EndChar

StartChar: ccircumflex
Encoding: 265 265 203
Width: 528
Flags: W
HStem: -10 88<215.376 351.35> 442 95<214.103 353.8>
VStem: 39 115<148.781 374.182>
LayerCount: 2
Fore
SplineSet
154 257 m 0
 154 158.169708678 193.493434632 78 287 78 c 0
 343.770952336 78 379.905023883 117.651754237 392 162 c 1
 490 137 l 1
 474.072346667 78.598604447 437.807043209 39.0304230447 389 13 c 0
 359 -3 324 -10 284 -10 c 0
 179.68675068 -10 107.914263033 39.7823561278 70 112 c 0
 49 152 39 200 39 256 c 0
 39 372.526974166 80.529282274 457.950634927 153 503 c 0
 190 526 234 537 284 537 c 0
 379.741855549 537 447.983710817 488.536650662 478 421 c 1
 376 396 l 1
 358.359067213 423.441451001 328.284954936 442 284 442 c 0
 245 442 214 427 190 397 c 0
 166 367 154 320 154 257 c 0
920 577 m 1
 852 645 l 1
 778 577 l 1
 682 577 l 1
 811 699 l 1
 896 699 l 1
 1022 577 l 1
 920 577 l 1
EndSplineSet
EndChar

StartChar: Cdotaccent
Encoding: 266 266 204
Width: 694
Flags: W
HStem: -10 102<280.571 444.549> 631 102<276.91 448.743> 806 104<308 426>
VStem: 50 135<210.304 520.35> 308 118<806 910>
LayerCount: 2
Fore
SplineSet
366 631 m 0
 223.129922731 631 185 514.984150762 185 364 c 0
 185 269 201 200 232 157 c 0
 263 114 308 92 366 92 c 0
 453.687879278 92 502.595685943 151.063606584 521 221 c 1
 644 190 l 1
 611.661028261 68.7288559793 524.522351444 -10 369 -10 c 0
 225.410296393 -10 136.750816275 63.1520880235 89 166 c 0
 63 222 50 289 50 366 c 0
 50 520.045763409 102.008657675 631.005230679 198 689 c 0
 246 718 302 733 369 733 c 0
 480.511038235 733 562.669608673 682.568979164 609 614 c 0
 624 592 636 568 644 542 c 1
 521 510 l 1
 503.055239288 578.190090705 450.998536797 631 366 631 c 0
308 806 m 1
 308 910 l 1
 426 910 l 1
 426 806 l 1
 308 806 l 1
EndSplineSet
EndChar

StartChar: cdotaccent
Encoding: 267 267 205
Width: 528
Flags: W
HStem: -10 88<215.376 351.35> 442 95<214.103 353.8> 599 105<793 911>
VStem: 39 115<148.781 374.182> 793 118<599 704>
LayerCount: 2
Fore
SplineSet
154 257 m 0
 154 158.169708678 193.493434632 78 287 78 c 0
 343.770952336 78 379.905023883 117.651754237 392 162 c 1
 490 137 l 1
 474.072346667 78.598604447 437.807043209 39.0304230447 389 13 c 0
 359 -3 324 -10 284 -10 c 0
 179.68675068 -10 107.914263033 39.7823561278 70 112 c 0
 49 152 39 200 39 256 c 0
 39 372.526974166 80.529282274 457.950634927 153 503 c 0
 190 526 234 537 284 537 c 0
 379.741855549 537 447.983710817 488.536650662 478 421 c 1
 376 396 l 1
 358.359067213 423.441451001 328.284954936 442 284 442 c 0
 245 442 214 427 190 397 c 0
 166 367 154 320 154 257 c 0
793 599 m 1
 793 704 l 1
 911 704 l 1
 911 599 l 1
 793 599 l 1
EndSplineSet
EndChar

StartChar: Ccaron
Encoding: 268 268 206
Width: 694
Flags: W
HStem: -10 102<280.571 444.549> 631 102<276.91 448.743>
VStem: 50 135<210.304 520.35>
LayerCount: 2
Fore
SplineSet
366 631 m 0
 223.129922731 631 185 514.984150762 185 364 c 0
 185 269 201 200 232 157 c 0
 263 114 308 92 366 92 c 0
 453.687879278 92 502.595685943 151.063606584 521 221 c 1
 644 190 l 1
 611.661028261 68.7288559793 524.522351444 -10 369 -10 c 0
 225.410296393 -10 136.750816275 63.1520880235 89 166 c 0
 63 222 50 289 50 366 c 0
 50 520.045763409 102.008657675 631.005230679 198 689 c 0
 246 718 302 733 369 733 c 0
 480.511038235 733 562.669608673 682.568979164 609 614 c 0
 624 592 636 568 644 542 c 1
 521 510 l 1
 503.055239288 578.190090705 450.998536797 631 366 631 c 0
324 784 m 1
 196 906 l 1
 292 906 l 1
 366 834 l 1
 434 906 l 1
 536 906 l 1
 410 784 l 1
 324 784 l 1
EndSplineSet
EndChar

StartChar: ccaron
Encoding: 269 269 207
Width: 528
Flags: W
HStem: -10 88<215.376 351.35> 442 95<214.103 353.8>
VStem: 39 115<148.781 374.182>
LayerCount: 2
Fore
SplineSet
154 257 m 0
 154 158.169708678 193.493434632 78 287 78 c 0
 343.770952336 78 379.905023883 117.651754237 392 162 c 1
 490 137 l 1
 474.072346667 78.598604447 437.807043209 39.0304230447 389 13 c 0
 359 -3 324 -10 284 -10 c 0
 179.68675068 -10 107.914263033 39.7823561278 70 112 c 0
 49 152 39 200 39 256 c 0
 39 372.526974166 80.529282274 457.950634927 153 503 c 0
 190 526 234 537 284 537 c 0
 379.741855549 537 447.983710817 488.536650662 478 421 c 1
 376 396 l 1
 358.359067213 423.441451001 328.284954936 442 284 442 c 0
 245 442 214 427 190 397 c 0
 166 367 154 320 154 257 c 0
810 577 m 1
 681 700 l 1
 778 700 l 1
 852 628 l 1
 920 700 l 1
 1022 700 l 1
 896 577 l 1
 810 577 l 1
EndSplineSet
EndChar

StartChar: Dcaron
Encoding: 270 270 208
Width: 708
Flags: W
HStem: 0 101<211 392.108> 623 100<211 397.128>
VStem: 88 123<101 623> 530 127<239.529 492.224>
LayerCount: 2
Fore
SplineSet
657 366 m 0
 657 120.178075212 523.01469065 0 274 0 c 2
 88 0 l 1
 88 723 l 1
 228 723 l 2
 249 723 267 722 282 722 c 0
 524.364809488 716.491708875 657 608.327004135 657 366 c 0
530 365 m 0
 530 538.435463574 449.378929754 623 280 623 c 2
 211 623 l 1
 211 101 l 1
 276 101 l 2
 445.713327531 101 530 190.685319306 530 365 c 0
307 784 m 1
 178 906 l 1
 274 906 l 1
 349 834 l 1
 416 906 l 1
 518 906 l 1
 392 784 l 1
 307 784 l 1
EndSplineSet
EndChar

StartChar: dcaron
Encoding: 271 271 209
Width: 615
Flags: W
HStem: -10 89<216.388 353.529> 0 21G<438.547 531> 446 91<214.277 340.556> 706 20G<599 688> 728 20G<409 531>
VStem: 39 120<145.884 386.709> 409.08 121.92<137.127 389.872 452 748> 441 90<0 57.0769> 599 89<621 726>
LayerCount: 2
Fore
SplineSet
428 106 m 1x7d80
 404.973509508 36.9205285248 352.536907699 -10 258 -10 c 0
 105.951771721 -10 39 103.949938126 39 266 c 0
 39 376.731439602 69.3207343354 458.808263077 133 504 c 0
 164 526 201 537 247 537 c 0
 309.037012251 537 356.126412693 512.873587307 387 482 c 0
 397 472 404 462 409 452 c 1
 409 748 l 1
 531 748 l 1xbe80
 531 0 l 1
 441 0 l 1
 428 106 l 1x7d80
409 269 m 0
 409 371.443411013 383.563692578 446 285 446 c 0
 248 446 218 433 194 406 c 0
 170 379 159 333 159 269 c 0
 159 205 169 157 191 126 c 0
 213 95 243 79 283 79 c 0
 383.149833118 79 409.080152164 149.833197068 409.080152164 258.327814385 c 0
 409.080152164 261.845984896 409.052885925 265.403757128 409 269 c 0
591 519 m 1
 630 616 l 1
 599 621 l 1
 599 726 l 1
 688 726 l 1
 688 616 l 1
 646 519 l 1
 591 519 l 1
EndSplineSet
EndChar

StartChar: Dcroat
Encoding: 272 272 210
Width: 730
Flags: W
HStem: 0 101<233 414.108> 314 92<35 110 233 386> 623 100<233 419.128>
VStem: 110 123<101 314 406 623> 552 127<239.529 492.35>
LayerCount: 2
Fore
SplineSet
679 366 m 0
 679 120.178075212 545.01469065 0 296 0 c 2
 110 0 l 1
 110 314 l 1
 35 314 l 1
 35 406 l 1
 110 406 l 1
 110 723 l 1
 250 723 l 2
 271 723 289 722 304 722 c 0
 546.364809488 716.491708875 679 608.327004135 679 366 c 0
552 365 m 0
 552 539.008545661 471.025554508 623 301 623 c 2
 233 623 l 1
 233 406 l 1
 386 406 l 1
 386 314 l 1
 233 314 l 1
 233 101 l 1
 298 101 l 2
 467.713327531 101 552 190.685319306 552 365 c 0
EndSplineSet
EndChar

StartChar: dcroat
Encoding: 273 273 211
Width: 629
Flags: W
HStem: -10 90<215.427 352.559> 0 21G<438.547 531> 436 91<214.277 340.113> 587 71<275 409 531 599> 723 20G<409 531>
VStem: 39 120<144.362 375.732> 409 122<135.537 378.231 442 587 658 743> 441 90<0 57.0769>
LayerCount: 2
Fore
SplineSet
428 106 m 1x7d
 404.973509508 36.9205285248 352.536907699 -10 258 -10 c 0
 108.159410902 -10 39 102.720810576 39 261 c 0
 39 367.693147782 70.9160284276 449.940407271 133 494 c 0
 164 516 201 527 247 527 c 0
 309.037012251 527 356.126412693 502.873587307 387 472 c 0
 397 462 404 452 409 442 c 1
 409 587 l 1
 275 587 l 1
 275 658 l 1
 409 658 l 1
 409 743 l 1
 531 743 l 1
 531 658 l 1
 599 658 l 1
 599 587 l 1
 531 587 l 1xbe
 531 0 l 1
 441 0 l 1
 428 106 l 1x7d
159 264 m 0
 159 160.817055918 189.65722739 80 283 80 c 0
 385.324875589 80 409 150.42146446 409 264 c 0
 409 363.098974276 381.347147145 436 285 436 c 0
 248 436 218 423 194 396 c 0
 170 369 159 325 159 264 c 0
EndSplineSet
EndChar

StartChar: Emacron
Encoding: 274 274 212
Width: 628
Flags: W
HStem: 0 106<209 572> 313 103<210 524> 618 105<210 565> 816 80<164 491>
VStem: 88 121<106 313 416 618>
LayerCount: 2
Fore
SplineSet
88 0 m 1
 88 723 l 1
 566 723 l 1
 565 618 l 1
 210 618 l 1
 210 416 l 1
 524 416 l 1
 524 313 l 1
 209 313 l 1
 209 106 l 1
 572 106 l 1
 572 0 l 1
 88 0 l 1
491 896 m 1
 491 816 l 1
 164 816 l 1
 164 896 l 1
 491 896 l 1
EndSplineSet
EndChar

StartChar: emacron
Encoding: 275 275 213
Width: 566
Flags: W
HStem: -10 90<218.846 370.477> 236 75<164 407> 450 87<218.13 356.897> 610 80<124 452>
VStem: 43 121<138.794 236 311 380.652> 407 115<311 397.174>
LayerCount: 2
Fore
SplineSet
288 537 m 0
 444.517581287 537 522 428.649305801 522 272 c 2
 522 236 l 1
 164 236 l 1
 164 146.413041298 202.537955075 80 292 80 c 0
 344.873625721 80 387.935087673 102.493567129 402 140 c 1
 507 113 l 1
 486.935800363 64.2726580243 443.046246979 29.5187878351 395 10 c 0
 363 -3 330 -10 295 -10 c 0
 186.848368931 -10 113.410602473 40.0078713619 75 115 c 0
 54 156 43 204 43 258 c 0
 43 369.810937131 87.2292768362 456.152851224 156 502 c 0
 192 526 237 537 288 537 c 0
407 311 m 1
 407 391.334119425 368.032267261 450 287 450 c 0
 231.115717983 450 194.697905725 417.817102882 178 377 c 0
 169 355 164 333 164 311 c 1
 407 311 l 1
452 690 m 1
 452 610 l 1
 124 610 l 1
 124 690 l 1
 452 690 l 1
EndSplineSet
EndChar

StartChar: Ebreve
Encoding: 276 276 214
Width: 628
Flags: W
HStem: 0 106<209 572> 313 103<210 524> 618 105<210 565> 783 63<266.005 387.426>
VStem: 88 121<106 313 416 618> 163 81<869.6 902>
LayerCount: 2
Fore
SplineSet
88 0 m 1xf8
 88 723 l 1
 566 723 l 1
 565 618 l 1
 210 618 l 1
 210 416 l 1
 524 416 l 1
 524 313 l 1
 209 313 l 1
 209 106 l 1
 572 106 l 1
 572 0 l 1
 88 0 l 1xf8
327 846 m 0
 369.757052803 846 400.210263756 870.56070335 412 902 c 1
 492 902 l 1
 477.383838152 828.919190759 413.600094675 783 327 783 c 0
 237.953890685 783 180.006397411 828.305611219 163 902 c 1
 244 902 l 1xf4
 254.124477174 869.601673042 284.465084767 846 327 846 c 0
EndSplineSet
EndChar

StartChar: ebreve
Encoding: 277 277 215
Width: 566
Flags: W
HStem: -10 90<218.846 370.477> 236 75<164 407> 450 87<218.13 356.897> 577 63<226.717 348.156>
VStem: 43 121<138.794 236 311 380.652> 124 80<663.6 696> 407 115<311 397.174>
LayerCount: 2
Fore
SplineSet
288 537 m 0xfa
 444.517581287 537 522 428.649305801 522 272 c 2
 522 236 l 1
 164 236 l 1
 164 146.413041298 202.537955075 80 292 80 c 0
 344.873625721 80 387.935087673 102.493567129 402 140 c 1
 507 113 l 1
 486.935800363 64.2726580243 443.046246979 29.5187878351 395 10 c 0
 363 -3 330 -10 295 -10 c 0
 186.848368931 -10 113.410602473 40.0078713619 75 115 c 0
 54 156 43 204 43 258 c 0
 43 369.810937131 87.2292768362 456.152851224 156 502 c 0
 192 526 237 537 288 537 c 0xfa
407 311 m 1
 407 391.334119425 368.032267261 450 287 450 c 0
 231.115717983 450 194.697905725 417.817102882 178 377 c 0
 169 355 164 333 164 311 c 1
 407 311 l 1
288 640 m 0
 331.11076993 640 360.102259073 664.27269086 372 696 c 1
 452 696 l 1
 437.274801104 622.374005522 375.040756109 577 288 577 c 0
 198.953890685 577 141.006397411 622.305611219 124 696 c 1
 204 696 l 1xf6
 214.025663048 663.917878248 245.823694483 640 288 640 c 0
EndSplineSet
EndChar

StartChar: Edotaccent
Encoding: 278 278 216
Width: 628
Flags: W
HStem: 0 106<209 572> 313 103<210 524> 618 105<210 565> 806 104<268 386>
VStem: 88 121<106 313 416 618> 268 118<806 910>
LayerCount: 2
Fore
SplineSet
88 0 m 1
 88 723 l 1
 566 723 l 1
 565 618 l 1
 210 618 l 1
 210 416 l 1
 524 416 l 1
 524 313 l 1
 209 313 l 1
 209 106 l 1
 572 106 l 1
 572 0 l 1
 88 0 l 1
268 806 m 1
 268 910 l 1
 386 910 l 1
 386 806 l 1
 268 806 l 1
EndSplineSet
EndChar

StartChar: edotaccent
Encoding: 279 279 217
Width: 566
Flags: W
HStem: -10 90<218.846 370.477> 236 75<164 407> 450 87<218.13 356.897> 600 105<228 347>
VStem: 43 121<138.794 236 311 380.652> 228 119<600 705> 407 115<311 397.174>
LayerCount: 2
Fore
SplineSet
288 537 m 0
 444.517581287 537 522 428.649305801 522 272 c 2
 522 236 l 1
 164 236 l 1
 164 146.413041298 202.537955075 80 292 80 c 0
 344.873625721 80 387.935087673 102.493567129 402 140 c 1
 507 113 l 1
 486.935800363 64.2726580243 443.046246979 29.5187878351 395 10 c 0
 363 -3 330 -10 295 -10 c 0
 186.848368931 -10 113.410602473 40.0078713619 75 115 c 0
 54 156 43 204 43 258 c 0
 43 369.810937131 87.2292768362 456.152851224 156 502 c 0
 192 526 237 537 288 537 c 0
407 311 m 1
 407 391.334119425 368.032267261 450 287 450 c 0
 231.115717983 450 194.697905725 417.817102882 178 377 c 0
 169 355 164 333 164 311 c 1
 407 311 l 1
228 600 m 1
 228 705 l 1
 347 705 l 1
 347 600 l 1
 228 600 l 1
EndSplineSet
EndChar

StartChar: Eogonek
Encoding: 280 280 218
Width: 628
Flags: W
HStem: -168 60<492.229 602.081> 0 106<209 475.488> 313 103<210 524> 618 105<210 565>
VStem: 88 121<106 313 416 618> 399 91<-105.554 -33.3249>
LayerCount: 2
Fore
SplineSet
504 -168 m 0
 444.120374323 -168 399 -144.785695925 399 -88 c 0
 399 -69 406 -51 419 -35 c 0
 429.376789416 -22.2285668724 448.036483339 -10.7314267458 475.487661389 -6.97358837343e-16 c 1
 88 0 l 1
 88 723 l 1
 566 723 l 1
 565 618 l 1
 210 618 l 1
 210 416 l 1
 524 416 l 1
 524 313 l 1
 209 313 l 1
 209 106 l 1
 572 106 l 1
 572 3.6976744186 l 1
 584 3 l 1
 550 -10 525 -22 511 -34 c 0
 497 -46 490 -59 490 -74 c 0
 490 -98.7581199765 504.413195518 -108 531 -108 c 0
 560.118618948 -108 585.671706111 -98.8301836805 603 -88 c 1
 603 -146 l 1
 581.56786655 -157.906740806 540.244327729 -168 504 -168 c 0
EndSplineSet
EndChar

StartChar: eogonek
Encoding: 281 281 219
Width: 566
Flags: W
HStem: -156 60<322.359 432.097> 236 75<164 407> 450 87<218.13 356.897>
VStem: 43 121<138.794 236 311 380.652> 229 91<-93.0734 -21.4073> 407 115<311 397.174>
LayerCount: 2
Fore
SplineSet
407 311 m 1
 407 391.334119425 368.032267261 450 287 450 c 0
 231.115717983 450 194.697905725 417.817102882 178 377 c 0
 169 355 164 333 164 311 c 1
 407 311 l 1
334 -156 m 0
 273.511726464 -156 229 -132.416773137 229 -75 c 0
 229 -56 236 -39 249 -23 c 0
 253.035720668 -18.0329591773 258.324290669 -13.2586644057 264.895628048 -8.64719763806 c 1
 173.109451039 -0.196890113431 109.733686974 47.1866111459 75 115 c 0
 54 156 43 204 43 258 c 0
 43 369.810937131 87.2292768362 456.152851224 156 502 c 0
 192 526 237 537 288 537 c 0
 444.517581287 537 522 428.649305801 522 272 c 2
 522 236 l 1
 164 236 l 1
 164 146.413041298 202.537955075 80 292 80 c 0
 344.873625721 80 387.935087673 102.493567129 402 140 c 1
 507 113 l 1
 488.665882867 68.4742869629 450.438060435 35.6161500998 407.323372982 15.3881759894 c 1
 414 15 l 1
 380 2 355 -10 341 -22 c 0
 327 -34 320 -47 320 -62 c 0
 320 -85.822364849 335.436484746 -96 361 -96 c 0
 388.098046611 -96 416.378810105 -86.3882436845 433 -76 c 1
 433 -134 l 1
 411.56786655 -145.906740806 370.244327729 -156 334 -156 c 0
EndSplineSet
EndChar

StartChar: Ecaron
Encoding: 282 282 220
Width: 628
Flags: W
HStem: 0 106<209 572> 313 103<210 524> 618 105<210 565>
VStem: 88 121<106 313 416 618>
LayerCount: 2
Fore
SplineSet
88 0 m 1
 88 723 l 1
 566 723 l 1
 565 618 l 1
 210 618 l 1
 210 416 l 1
 524 416 l 1
 524 313 l 1
 209 313 l 1
 209 106 l 1
 572 106 l 1
 572 0 l 1
 88 0 l 1
285 784 m 1
 156 906 l 1
 252 906 l 1
 327 834 l 1
 394 906 l 1
 496 906 l 1
 370 784 l 1
 285 784 l 1
EndSplineSet
EndChar

StartChar: ecaron
Encoding: 283 283 221
Width: 566
Flags: W
HStem: -10 90<218.846 370.477> 236 75<164 407> 450 87<218.13 356.897>
VStem: 43 121<138.794 236 311 380.652> 407 115<311 397.174>
LayerCount: 2
Fore
SplineSet
288 537 m 0
 444.517581287 537 522 428.649305801 522 272 c 2
 522 236 l 1
 164 236 l 1
 164 146.413041298 202.537955075 80 292 80 c 0
 344.873625721 80 387.935087673 102.493567129 402 140 c 1
 507 113 l 1
 486.935800363 64.2726580243 443.046246979 29.5187878351 395 10 c 0
 363 -3 330 -10 295 -10 c 0
 186.848368931 -10 113.410602473 40.0078713619 75 115 c 0
 54 156 43 204 43 258 c 0
 43 369.810937131 87.2292768362 456.152851224 156 502 c 0
 192 526 237 537 288 537 c 0
407 311 m 1
 407 391.334119425 368.032267261 450 287 450 c 0
 231.115717983 450 194.697905725 417.817102882 178 377 c 0
 169 355 164 333 164 311 c 1
 407 311 l 1
244 578 m 1
 116 700 l 1
 212 700 l 1
 286 628 l 1
 354 700 l 1
 456 700 l 1
 330 578 l 1
 244 578 l 1
EndSplineSet
EndChar

StartChar: Gcircumflex
Encoding: 284 284 222
Width: 747
Flags: W
HStem: -10 108<287.42 458.501> 0 21G<582 668> 290 86<380 542> 628 105<282.82 452.133>
VStem: 50 133<218.169 507.153> 582 86<0 102>
LayerCount: 2
Fore
SplineSet
582 102 m 1x7c
 539.278628395 37.9179425921 477.399261167 -10 368 -10 c 0
 227.321911337 -10 136.318657415 61.9028400827 89 162 c 0
 63 217 50 283 50 360 c 0
 50 515.786346661 107.130984086 628.081865054 203 688 c 0
 251 718 309 733 374 733 c 0
 459.762458529 733 526.493979662 701.024556453 574 659 c 0
 609.965375828 627.184475229 633.966267026 591.859632165 649 543 c 1
 525 512 l 1
 512.208252705 555.491940803 482.847090563 588.817628304 447 610 c 0
 425 623 400 628 372 628 c 0
 285.81286211 628 234.601849174 582.279507362 207 515 c 0
 191 476 183 424 183 362 c 0
 183 237.625028157 215.853521331 145.709491653 302 112 c 0
 325 103 350 98 376 98 c 0xbc
 451.660586278 98 498.85357627 139.707152539 524 190 c 0
 532 206 536 223 537 238 c 2
 542 290 l 1
 380 290 l 1
 380 376 l 1
 668 376 l 1
 668 0 l 1
 582 0 l 1
 582 102 l 1x7c
438 784 m 1
 370 851 l 1
 296 784 l 1
 200 784 l 1
 329 906 l 1
 414 906 l 1
 540 784 l 1
 438 784 l 1
EndSplineSet
EndChar

StartChar: gcircumflex
Encoding: 285 285 223
Width: 624
Flags: W
HStem: -171 71<184.913 418.037> 196 70<223.056 369.188> 440 100<555.062 594> 457 68<224.662 367.54>
VStem: 28 120<-69.1604 14.9507> 67 122<299.359 421.484> 69 112<128.5 181.967> 404 115<299.505 421.897> 448 116<-74.6545 14.4927>
LayerCount: 2
Fore
SplineSet
505 424 m 1xe4
 511.776765039 407.058087402 519 383.439118766 519 362 c 0
 519 289.842222329 473.773389007 242.605906915 418 218 c 0
 384 203 343 195 293 195 c 0
 288 195 281 196 272 196 c 2
 252 196 l 2
 225 195 206 192 196 187 c 0
 186 182 181 176 181 170 c 0xe3
 181 161 189 155 204 152 c 0
 248.954172002 143.0091656 328.00156953 141.956385258 385 137 c 0
 485.646458234 130.176511306 564 89.3041017566 564 -8 c 0
 564 -56 542 -94 498 -125 c 0
 454 -156 387 -171 298 -171 c 0
 211 -171 145 -159 98 -136 c 0
 51 -113 28 -81 28 -40 c 0xe880
 28 -2.15485916383 50.8847540055 20.5898360037 74 36 c 0
 86 44 98 51 108 55 c 0
 118 59 125 62 128 64 c 1
 111.437624033 72.2811879837 93.276653275 85.0637650656 80 100 c 0
 72 109 69 121 69 136 c 0xe2
 69 153 77 169 93 184 c 0
 109 199 135 210 168 216 c 1
 115.310066342 242.344966829 67 291.01049608 67 362 c 0
 67 438.639824329 118.923276099 482.944516369 180 505 c 0
 216 518 256 525 303 525 c 0xd4
 371.576041742 525 410.975791945 508.665735236 452 482 c 1
 485.019803462 496.151344341 528.045988893 511.32891795 562 527 c 0
 575 533 587 536 596 540 c 1
 594 440 l 1
 505 424 l 1xe4
228 44 m 0
 187.83722153 44 148 16.3097334935 148 -26 c 0
 148 -50 162 -69 190 -81 c 0
 218 -93 261 -100 319 -100 c 0
 363 -100 395 -94 416 -82 c 0
 437 -70 448 -52 448 -29 c 0xc880
 448 14.7226478917 407.14721517 31.7751989164 362 35 c 2
 232 43 l 2
 231 43 229 44 228 44 c 0
189 359 m 0xd5
 189 298.400774573 234.009218217 266 297 266 c 0
 357.990133126 266 404 299.503816603 404 360 c 0
 404 421.405109479 358.547334823 457 297 457 c 0
 234.410984378 457 189 420.949535485 189 359 c 0xd5
369 578 m 1
 302 645 l 1
 227 578 l 1
 131 578 l 1
 260 700 l 1
 345 700 l 1
 471 578 l 1
 369 578 l 1
EndSplineSet
EndChar

StartChar: Gbreve
Encoding: 286 286 224
Width: 747
Flags: W
HStem: -10 108<287.42 458.501> 0 21G<582 668> 290 86<380 542> 628 105<282.82 452.133> 783 63<309.9 430.638>
VStem: 50 133<218.169 507.153> 206 81<869.928 902> 582 86<0 102>
LayerCount: 2
Fore
SplineSet
582 102 m 1x7f
 539.278628395 37.9179425921 477.399261167 -10 368 -10 c 0
 227.321911337 -10 136.318657415 61.9028400827 89 162 c 0
 63 217 50 283 50 360 c 0
 50 515.786346661 107.130984086 628.081865054 203 688 c 0
 251 718 309 733 374 733 c 0
 459.762458529 733 526.493979662 701.024556453 574 659 c 0
 609.965375828 627.184475229 633.966267026 591.859632165 649 543 c 1
 525 512 l 1
 512.208252705 555.491940803 482.847090563 588.817628304 447 610 c 0
 425 623 400 628 372 628 c 0
 285.81286211 628 234.601849174 582.279507362 207 515 c 0
 191 476 183 424 183 362 c 0
 183 237.625028157 215.853521331 145.709491653 302 112 c 0
 325 103 350 98 376 98 c 0xbf
 451.660586278 98 498.85357627 139.707152539 524 190 c 0
 532 206 536 223 537 238 c 2
 542 290 l 1
 380 290 l 1
 380 376 l 1
 668 376 l 1
 668 0 l 1
 582 0 l 1
 582 102 l 1x7f
370 846 m 0
 412.757052803 846 443.210263756 870.56070335 455 902 c 1
 535 902 l 1
 520.183237289 827.916186447 457.673282909 783 370 783 c 0
 282.006827502 783 222.779135609 829.290412362 206 902 c 1
 287 902 l 1
 296.901106179 870.316460228 328.357688249 846 370 846 c 0
EndSplineSet
EndChar

StartChar: gbreve
Encoding: 287 287 225
Width: 624
Flags: W
HStem: -171 71<184.913 418.037> 196 70<223.056 369.188> 440 100<555.062 594> 457 68<224.662 367.54> 577 63<241.005 362.426>
VStem: 28 120<-69.1604 14.9507> 67 122<299.359 421.484> 69 112<128.5 181.967> 138 81<663.6 696> 404 115<299.505 421.897> 448 116<-74.6545 14.4927>
LayerCount: 2
Fore
SplineSet
505 424 m 1xea
 511.776765039 407.058087402 519 383.439118766 519 362 c 0
 519 289.842222329 473.773389007 242.605906915 418 218 c 0
 384 203 343 195 293 195 c 0
 288 195 281 196 272 196 c 2
 252 196 l 2
 225 195 206 192 196 187 c 0
 186 182 181 176 181 170 c 0xe940
 181 161 189 155 204 152 c 0
 248.954172002 143.0091656 328.00156953 141.956385258 385 137 c 0
 485.646458234 130.176511306 564 89.3041017566 564 -8 c 0
 564 -56 542 -94 498 -125 c 0
 454 -156 387 -171 298 -171 c 0
 211 -171 145 -159 98 -136 c 0
 51 -113 28 -81 28 -40 c 0xec20
 28 -2.15485916383 50.8847540055 20.5898360037 74 36 c 0
 86 44 98 51 108 55 c 0
 118 59 125 62 128 64 c 1
 111.437624033 72.2811879837 93.276653275 85.0637650656 80 100 c 0
 72 109 69 121 69 136 c 0xe9
 69 153 77 169 93 184 c 0
 109 199 135 210 168 216 c 1
 115.310066342 242.344966829 67 291.01049608 67 362 c 0
 67 438.639824329 118.923276099 482.944516369 180 505 c 0
 216 518 256 525 303 525 c 0xda
 371.576041742 525 410.975791945 508.665735236 452 482 c 1
 485.019803462 496.151344341 528.045988893 511.32891795 562 527 c 0
 575 533 587 536 596 540 c 1
 594 440 l 1
 505 424 l 1xea
228 44 m 0
 187.83722153 44 148 16.3097334935 148 -26 c 0
 148 -50 162 -69 190 -81 c 0
 218 -93 261 -100 319 -100 c 0
 363 -100 395 -94 416 -82 c 0
 437 -70 448 -52 448 -29 c 0xcc20
 448 14.7226478917 407.14721517 31.7751989164 362 35 c 2
 232 43 l 2
 231 43 229 44 228 44 c 0
189 359 m 0xda40
 189 298.400774573 234.009218217 266 297 266 c 0
 357.990133126 266 404 299.503816603 404 360 c 0
 404 421.405109479 358.547334823 457 297 457 c 0
 234.410984378 457 189 420.949535485 189 359 c 0xda40
302 640 m 0
 344.757052803 640 375.210263756 664.56070335 387 696 c 1
 467 696 l 1
 452.383838152 622.919190759 388.600094675 577 302 577 c 0
 212.953890685 577 155.006397411 622.305611219 138 696 c 1
 219 696 l 1xc880
 229.124477174 663.601673042 259.465084767 640 302 640 c 0
EndSplineSet
EndChar

StartChar: Gdotaccent
Encoding: 288 288 226
Width: 747
Flags: W
HStem: -10 108<287.42 458.501> 0 21G<582 668> 290 86<380 542> 628 105<282.82 452.133> 806 105<311 430>
VStem: 50 133<218.169 507.153> 311 119<806 911> 582 86<0 102>
LayerCount: 2
Fore
SplineSet
582 102 m 1x7f
 539.278628395 37.9179425921 477.399261167 -10 368 -10 c 0
 227.321911337 -10 136.318657415 61.9028400827 89 162 c 0
 63 217 50 283 50 360 c 0
 50 515.786346661 107.130984086 628.081865054 203 688 c 0
 251 718 309 733 374 733 c 0
 459.762458529 733 526.493979662 701.024556453 574 659 c 0
 609.965375828 627.184475229 633.966267026 591.859632165 649 543 c 1
 525 512 l 1
 512.208252705 555.491940803 482.847090563 588.817628304 447 610 c 0
 425 623 400 628 372 628 c 0
 285.81286211 628 234.601849174 582.279507362 207 515 c 0
 191 476 183 424 183 362 c 0
 183 237.625028157 215.853521331 145.709491653 302 112 c 0
 325 103 350 98 376 98 c 0xbf
 451.660586278 98 498.85357627 139.707152539 524 190 c 0
 532 206 536 223 537 238 c 2
 542 290 l 1
 380 290 l 1
 380 376 l 1
 668 376 l 1
 668 0 l 1
 582 0 l 1
 582 102 l 1x7f
311 806 m 1
 311 911 l 1
 430 911 l 1
 430 806 l 1
 311 806 l 1
EndSplineSet
EndChar

StartChar: gdotaccent
Encoding: 289 289 227
Width: 624
Flags: W
HStem: -171 71<184.913 418.037> 196 70<223.056 369.188> 440 100<555.062 594> 457 68<224.662 367.54> 600 104<243 361>
VStem: 28 120<-69.1604 14.9507> 67 122<299.359 421.484> 69 112<128.5 181.967> 243 118<600 704> 404 115<299.505 421.897> 448 116<-74.6545 14.4927>
LayerCount: 2
Fore
SplineSet
505 424 m 1xea80
 511.776765039 407.058087402 519 383.439118766 519 362 c 0
 519 289.842222329 473.773389007 242.605906915 418 218 c 0
 384 203 343 195 293 195 c 0
 288 195 281 196 272 196 c 2
 252 196 l 2
 225 195 206 192 196 187 c 0
 186 182 181 176 181 170 c 0xe9c0
 181 161 189 155 204 152 c 0
 248.954172002 143.0091656 328.00156953 141.956385258 385 137 c 0
 485.646458234 130.176511306 564 89.3041017566 564 -8 c 0
 564 -56 542 -94 498 -125 c 0
 454 -156 387 -171 298 -171 c 0
 211 -171 145 -159 98 -136 c 0
 51 -113 28 -81 28 -40 c 0xeca0
 28 -2.15485916383 50.8847540055 20.5898360037 74 36 c 0
 86 44 98 51 108 55 c 0
 118 59 125 62 128 64 c 1
 111.437624033 72.2811879837 93.276653275 85.0637650656 80 100 c 0
 72 109 69 121 69 136 c 0xe980
 69 153 77 169 93 184 c 0
 109 199 135 210 168 216 c 1
 115.310066342 242.344966829 67 291.01049608 67 362 c 0
 67 438.639824329 118.923276099 482.944516369 180 505 c 0
 216 518 256 525 303 525 c 0xda80
 371.576041742 525 410.975791945 508.665735236 452 482 c 1
 485.019803462 496.151344341 528.045988893 511.32891795 562 527 c 0
 575 533 587 536 596 540 c 1
 594 440 l 1
 505 424 l 1xea80
228 44 m 0
 187.83722153 44 148 16.3097334935 148 -26 c 0
 148 -50 162 -69 190 -81 c 0
 218 -93 261 -100 319 -100 c 0
 363 -100 395 -94 416 -82 c 0
 437 -70 448 -52 448 -29 c 0xcca0
 448 14.7226478917 407.14721517 31.7751989164 362 35 c 2
 232 43 l 2
 231 43 229 44 228 44 c 0
189 359 m 0xdac0
 189 298.400774573 234.009218217 266 297 266 c 0
 357.990133126 266 404 299.503816603 404 360 c 0
 404 421.405109479 358.547334823 457 297 457 c 0
 234.410984378 457 189 420.949535485 189 359 c 0xdac0
243 600 m 1
 243 704 l 1
 361 704 l 1
 361 600 l 1
 243 600 l 1
EndSplineSet
EndChar

StartChar: uni0122
Encoding: 290 290 228
Width: 747
Flags: W
HStem: -134 87<314 350> -10 108<287.42 458.501> 0 21G<582 668> 290 86<380 542> 628 105<282.82 452.133>
VStem: 50 133<218.169 507.153> 314 110<-119 -47> 582 86<0 102>
LayerCount: 2
Fore
SplineSet
582 102 m 1xbf
 539.278628395 37.9179425921 477.399261167 -10 368 -10 c 0
 227.321911337 -10 136.318657415 61.9028400827 89 162 c 0
 63 217 50 283 50 360 c 0
 50 515.786346661 107.130984086 628.081865054 203 688 c 0
 251 718 309 733 374 733 c 0
 459.762458529 733 526.493979662 701.024556453 574 659 c 0
 609.965375828 627.184475229 633.966267026 591.859632165 649 543 c 1
 525 512 l 1
 512.208252705 555.491940803 482.847090563 588.817628304 447 610 c 0
 425 623 400 628 372 628 c 0
 285.81286211 628 234.601849174 582.279507362 207 515 c 0
 191 476 183 424 183 362 c 0
 183 237.625028157 215.853521331 145.709491653 302 112 c 0
 325 103 350 98 376 98 c 0xdf
 451.660586278 98 498.85357627 139.707152539 524 190 c 0
 532 206 536 223 537 238 c 2
 542 290 l 1
 380 290 l 1
 380 376 l 1
 668 376 l 1
 668 0 l 1
 582 0 l 1
 582 102 l 1xbf
306 -206 m 1
 350 -137 l 1
 314 -134 l 1
 314 -47 l 1
 424 -47 l 1
 424 -119 l 1
 352 -206 l 1
 306 -206 l 1
EndSplineSet
EndChar

